{"glyphs":{"0":{"ha":681,"x_min":75,"x_max":606,"o":"m 119 451 q 139 247 119 331 q 190 110 158 163 q 260 33 221 57 q 340 10 300 10 q 420 33 381 10 q 491 110 460 57 q 542 247 522 163 q 561 451 561 331 q 542 658 561 572 q 491 797 522 743 q 420 874 460 850 q 340 899 381 899 q 260 874 300 899 q 190 797 221 850 q 139 658 158 743 q 119 451 119 572 m 340 926 q 440 899 392 926 q 525 815 489 872 q 583 667 561 757 q 606 451 606 576 q 583 238 606 326 q 525 92 561 149 q 440 8 489 35 q 340 -18 392 -18 q 240 8 288 -18 q 156 92 192 35 q 97 238 119 149 q 75 451 75 326 q 97 667 75 576 q 156 815 119 757 q 240 899 192 872 q 340 926 288 926 z "},"1":{"ha":681,"x_min":115,"x_max":593,"o":"m 126 854 l 367 922 l 386 906 l 381 703 l 381 296 q 381 167 381 231 q 383 36 382 103 l 593 28 l 593 0 l 115 0 l 115 28 l 339 36 q 341 167 340 103 q 342 296 342 231 l 342 875 l 126 826 l 126 854 z "},"2":{"ha":681,"x_min":68,"x_max":614,"o":"m 68 0 l 68 31 q 215 203 144 119 q 333 343 286 286 q 423 456 388 407 q 481 544 458 504 q 512 618 503 583 q 521 689 521 653 q 508 770 521 732 q 469 837 494 808 q 404 882 443 865 q 314 899 365 899 q 243 890 275 899 q 175 861 211 882 l 131 776 q 96 747 115 747 q 68 767 76 747 q 169 883 103 840 q 319 926 236 926 q 500 863 435 926 q 565 688 565 800 q 553 613 565 650 q 515 533 542 576 q 447 434 489 489 q 342 307 404 379 q 306 265 329 292 q 251 201 282 238 q 183 124 219 165 q 108 39 146 82 l 614 39 l 614 0 l 68 0 z "},"3":{"ha":681,"x_min":63,"x_max":590,"o":"m 221 489 l 278 489 q 371 503 328 489 q 447 545 414 518 q 498 612 479 572 q 517 703 517 651 q 467 845 517 792 q 324 899 417 899 q 247 891 281 899 q 179 864 213 883 l 143 774 q 129 753 136 758 q 111 749 122 749 q 86 768 90 749 q 124 842 99 811 q 181 891 149 872 q 251 918 214 910 q 326 926 289 926 q 424 910 381 926 q 498 863 468 893 q 544 792 528 833 q 561 703 561 751 q 506 559 561 622 q 350 476 450 496 q 528 402 465 465 q 590 233 590 339 q 569 127 590 174 q 510 48 547 81 q 422 -1 472 15 q 313 -18 371 -18 q 154 20 218 -18 q 63 132 90 58 q 90 158 63 158 q 119 136 110 158 l 158 42 q 220 18 186 26 q 300 10 254 10 q 483 72 419 10 q 546 235 546 135 q 480 403 546 346 q 279 461 414 461 l 221 461 l 221 489 z "},"4":{"ha":681,"x_min":47,"x_max":661,"o":"m 661 304 l 493 304 l 493 0 l 454 0 l 454 304 l 47 304 l 47 332 l 468 919 l 493 919 l 493 340 l 661 340 l 661 304 m 454 340 l 454 856 l 85 340 l 454 340 z "},"5":{"ha":681,"x_min":51,"x_max":601,"o":"m 293 -18 q 139 21 204 -18 q 51 135 74 60 q 79 156 58 156 q 108 133 99 156 l 149 40 q 209 17 176 25 q 288 10 242 10 q 488 81 418 10 q 557 275 557 153 q 491 473 557 410 q 319 536 425 536 q 224 526 267 536 q 143 493 181 517 l 119 493 l 149 908 l 579 908 l 579 869 l 175 869 l 150 524 q 233 555 192 546 q 322 564 275 564 q 438 544 386 564 q 525 488 489 524 q 581 399 561 451 q 601 282 601 346 q 581 165 601 219 q 520 69 560 110 q 424 5 481 28 q 293 -18 367 -18 z "},"6":{"ha":681,"x_min":74,"x_max":607,"o":"m 344 -18 q 229 8 279 -18 q 144 82 179 35 q 92 194 110 129 q 74 339 74 260 q 110 543 74 444 q 215 722 147 642 q 381 856 283 801 q 600 926 478 910 l 604 904 q 417 841 500 885 q 274 735 335 797 q 174 594 213 672 q 124 428 136 515 q 234 519 176 490 q 363 549 292 549 q 542 475 476 549 q 607 275 607 401 q 586 159 607 213 q 530 66 565 106 q 447 4 494 26 q 344 -18 399 -18 m 347 10 q 429 29 390 10 q 498 83 468 49 q 545 165 528 117 q 563 271 563 213 q 507 456 563 392 q 356 521 451 521 q 235 491 290 521 q 119 390 181 461 q 118 365 118 378 q 118 340 118 353 q 133 212 118 272 q 176 107 147 151 q 248 36 206 63 q 347 10 290 10 z "},"7":{"ha":681,"x_min":64,"x_max":589,"o":"m 196 6 l 554 869 l 64 869 l 64 908 l 589 908 l 589 881 l 242 0 l 201 0 l 196 6 z "},"8":{"ha":681,"x_min":72,"x_max":608,"o":"m 72 199 q 131 347 72 285 q 301 461 189 408 q 149 572 193 510 q 104 710 104 635 q 123 798 104 758 q 174 866 142 838 q 248 910 206 894 q 339 926 290 926 q 506 867 443 926 q 568 713 568 808 q 524 582 568 644 q 368 472 479 519 q 481 413 435 443 q 556 349 528 382 q 596 279 583 315 q 608 203 608 243 q 589 112 608 153 q 533 42 569 71 q 447 -3 497 13 q 336 -18 397 -18 q 139 42 206 -18 q 72 199 72 103 m 143 711 q 188 584 143 640 q 344 482 233 528 q 485 581 440 528 q 529 713 529 635 q 517 783 529 750 q 481 842 504 817 q 422 883 457 868 q 339 899 386 899 q 265 885 300 899 q 202 848 229 872 q 159 789 175 824 q 143 711 143 754 m 336 10 q 508 61 446 10 q 569 199 569 113 q 515 332 569 271 q 326 450 460 393 q 162 336 213 393 q 111 201 111 279 q 169 62 111 114 q 336 10 228 10 z "},"9":{"ha":681,"x_min":67,"x_max":599,"o":"m 118 -18 l 110 6 q 411 201 300 76 q 547 475 522 325 q 456 399 511 426 q 335 371 401 371 q 226 391 276 371 q 141 449 176 411 q 86 540 106 486 q 68 658 67 593 q 90 766 69 717 q 147 851 111 815 q 229 906 182 886 q 329 926 276 926 q 437 901 388 926 q 522 829 486 876 q 578 714 558 782 q 599 561 599 646 q 567 376 599 464 q 476 213 536 288 q 325 78 415 138 q 118 -18 235 19 m 113 653 q 130 549 113 596 q 178 468 147 501 q 252 417 210 435 q 344 399 294 399 q 457 428 403 399 q 551 511 511 457 q 553 535 553 522 q 554 558 554 547 q 536 700 554 638 q 488 807 518 763 q 416 875 457 851 q 328 899 375 899 q 244 882 283 899 q 176 833 206 865 q 130 756 147 801 q 113 653 113 710 z "}," ":{"ha":344,"x_min":0,"x_max":0,"o":""},"A":{"ha":907,"x_min":17,"x_max":904,"o":"m 17 0 l 17 28 l 129 36 l 426 950 l 454 950 l 760 35 l 904 28 l 904 0 l 560 0 l 560 28 l 717 36 l 615 343 l 267 343 l 169 35 l 292 28 l 292 0 l 17 0 m 606 371 l 438 883 l 275 371 l 606 371 z "},"B":{"ha":825,"x_min":81,"x_max":756,"o":"m 232 431 l 232 510 q 232 708 232 610 q 229 904 232 806 l 81 913 l 81 940 l 413 940 q 636 881 565 940 q 707 721 707 821 q 653 580 707 643 q 486 493 600 517 q 692 413 628 481 q 756 249 756 344 q 736 150 756 196 q 676 71 717 104 q 576 19 636 38 q 435 0 515 0 l 81 0 l 81 28 l 229 36 q 232 233 232 135 q 232 431 232 331 m 397 910 l 276 910 q 274 709 274 810 q 274 504 274 608 l 375 504 q 593 565 518 504 q 668 725 668 625 q 654 798 668 764 q 608 857 640 832 q 524 896 576 882 q 397 910 472 910 m 393 476 l 274 476 q 274 229 274 335 q 276 31 274 124 l 436 31 q 640 88 567 31 q 714 251 714 144 q 638 417 714 358 q 393 476 563 476 z "},"C":{"ha":894,"x_min":89,"x_max":817,"o":"m 536 13 q 653 25 600 13 q 760 69 707 38 l 783 249 l 817 249 l 811 56 q 678 -3 742 13 q 539 -18 614 -18 q 354 17 438 -18 q 212 117 271 53 q 121 271 153 181 q 89 469 89 361 q 122 669 89 579 q 215 823 156 758 q 358 923 275 888 q 540 958 442 958 q 682 940 624 958 q 803 885 740 921 l 808 692 l 775 692 l 753 869 q 658 914 704 900 q 544 928 613 928 q 374 895 450 928 q 245 802 299 863 q 163 658 192 742 q 133 469 133 574 q 164 279 133 364 q 248 135 194 194 q 375 44 301 76 q 536 13 449 13 z "},"D":{"ha":985,"x_min":81,"x_max":896,"o":"m 232 472 l 232 493 q 232 705 232 604 q 229 904 232 806 l 81 913 l 81 940 l 438 940 q 776 819 657 940 q 896 469 896 697 q 865 277 896 364 q 776 129 835 190 q 628 34 717 68 q 425 0 540 0 l 81 0 l 81 28 l 229 36 q 232 240 232 135 q 232 472 232 344 m 274 472 q 274 236 274 342 q 276 31 274 131 l 407 31 q 603 62 519 31 q 742 150 688 93 q 824 288 797 207 q 851 469 851 369 q 744 797 851 685 q 428 910 638 910 l 276 910 q 274 708 274 810 q 274 493 274 606 l 274 472 z "},"E":{"ha":835,"x_min":81,"x_max":772,"o":"m 232 431 l 232 510 q 232 708 232 610 q 229 904 232 806 l 81 913 l 81 940 l 739 940 l 753 728 l 719 728 l 697 910 l 276 910 q 274 707 274 810 q 274 490 274 604 l 547 490 l 561 625 l 588 625 l 588 325 l 561 325 l 547 460 l 274 460 q 274 226 274 328 q 276 31 274 124 l 717 31 l 739 213 l 772 213 l 758 0 l 81 0 l 81 28 l 229 36 q 232 233 232 135 q 232 431 232 331 z "},"F":{"ha":804,"x_min":81,"x_max":756,"o":"m 232 431 l 232 510 q 232 708 232 610 q 229 904 232 806 l 81 913 l 81 940 l 742 940 l 756 728 l 722 728 l 700 910 l 276 910 q 274 707 274 810 q 274 490 274 604 l 547 490 l 561 625 l 588 625 l 588 325 l 561 325 l 547 460 l 274 460 q 274 229 274 329 q 276 36 274 129 l 439 28 l 439 0 l 81 0 l 81 28 l 229 36 q 232 233 232 135 q 232 431 232 331 z "},"G":{"ha":951,"x_min":89,"x_max":940,"o":"m 832 138 l 832 67 q 758 27 793 43 q 689 1 724 11 q 618 -14 654 -10 q 542 -18 582 -18 q 356 17 439 -18 q 213 117 272 53 q 122 271 154 181 q 89 469 89 361 q 122 669 89 579 q 216 823 156 758 q 360 923 276 888 q 543 958 443 958 q 697 937 632 958 q 824 876 761 915 l 829 683 l 796 683 l 774 863 q 672 911 724 894 q 547 928 621 928 q 376 895 453 928 q 246 802 300 863 q 163 658 192 742 q 133 469 133 574 q 163 281 133 365 q 244 137 192 196 q 372 45 297 78 q 539 13 447 13 q 671 29 610 13 q 790 82 732 46 l 790 138 q 790 273 790 206 q 788 408 789 340 l 621 417 l 621 444 l 940 444 l 940 417 l 835 408 q 833 286 833 350 q 832 138 832 222 z "},"H":{"ha":1103,"x_min":81,"x_max":1022,"o":"m 232 431 l 232 510 q 232 708 232 610 q 229 904 232 806 l 81 913 l 81 940 l 425 940 l 425 913 l 276 904 q 274 708 274 806 q 274 514 274 610 l 829 514 q 829 714 829 618 q 826 904 829 810 l 678 913 l 678 940 l 1022 940 l 1022 913 l 874 904 q 871 708 871 806 q 871 510 871 610 l 871 431 q 871 233 871 331 q 874 36 871 135 l 1022 28 l 1022 0 l 678 0 l 678 28 l 826 36 q 829 242 829 135 q 829 483 829 349 l 274 483 q 274 350 274 411 q 274 235 274 289 q 274 132 274 181 q 276 36 275 83 l 425 28 l 425 0 l 81 0 l 81 28 l 229 36 q 232 233 232 135 q 232 431 232 331 z "},"I":{"ha":506,"x_min":81,"x_max":425,"o":"m 232 431 l 232 510 q 232 708 232 610 q 229 904 232 806 l 81 913 l 81 940 l 425 940 l 425 913 l 276 904 q 274 708 274 806 q 274 510 274 610 l 274 431 q 274 233 274 331 q 276 36 274 135 l 425 28 l 425 0 l 81 0 l 81 28 l 229 36 q 232 233 232 135 q 232 431 232 331 z "},"J":{"ha":494,"x_min":-46,"x_max":442,"o":"m 83 913 l 83 940 l 442 940 l 442 913 l 294 904 q 292 705 292 804 q 292 503 292 606 l 292 275 q 291 210 292 236 q 290 164 290 183 q 288 130 289 144 q 288 103 288 115 q 263 -25 285 32 q 208 -122 242 -82 q 129 -183 174 -161 q 35 -204 85 -204 q -46 -175 -31 -204 q -26 -150 -42 -158 q 10 -142 -10 -142 q 48 -147 29 -142 q 90 -165 67 -151 l 100 -171 q 150 -140 124 -161 q 198 -83 176 -119 q 234 6 219 -47 q 249 132 249 58 q 249 155 249 142 q 249 197 249 168 q 250 274 250 225 q 250 406 250 324 q 249 609 250 488 q 246 904 247 731 l 83 913 z "},"K":{"ha":922,"x_min":81,"x_max":929,"o":"m 232 431 l 232 510 q 232 708 232 610 q 229 904 232 806 l 81 913 l 81 940 l 425 940 l 425 913 l 276 904 q 274 708 274 806 q 274 510 274 610 l 274 342 l 739 903 l 575 913 l 575 940 l 889 940 l 889 913 l 782 904 l 494 558 l 800 36 l 929 28 l 929 0 l 613 0 l 613 28 l 753 36 l 464 522 l 274 293 q 274 183 274 249 q 276 36 274 118 l 425 28 l 425 0 l 81 0 l 81 28 l 229 36 q 232 233 232 135 q 232 431 232 331 z "},"L":{"ha":783,"x_min":81,"x_max":742,"o":"m 232 510 q 232 708 232 610 q 229 904 232 806 l 81 913 l 81 940 l 425 940 l 425 913 l 276 904 q 274 699 274 806 q 274 457 274 593 l 274 401 q 274 226 274 321 q 276 31 274 131 l 686 31 l 708 226 l 742 226 l 728 0 l 81 0 l 81 28 l 229 36 q 232 233 232 135 q 232 431 232 331 l 232 510 z "},"M":{"ha":1246,"x_min":50,"x_max":1165,"o":"m 64 0 l 64 28 l 192 38 l 192 904 l 50 913 l 50 940 l 238 940 l 603 71 l 967 940 l 1165 940 l 1165 913 l 1017 904 q 1014 708 1014 806 q 1014 510 1014 610 l 1014 431 q 1014 233 1014 331 q 1017 36 1014 135 l 1165 28 l 1165 0 l 821 0 l 821 28 l 969 36 q 972 231 972 135 q 972 417 971 326 l 976 876 l 610 0 l 593 0 l 219 876 l 225 528 l 225 38 l 367 28 l 367 0 l 64 0 z "},"N":{"ha":1017,"x_min":53,"x_max":964,"o":"m 67 0 l 67 28 l 193 38 l 193 903 l 190 907 l 53 913 l 53 940 l 215 940 l 803 67 l 803 903 l 647 913 l 647 940 l 964 940 l 964 913 l 836 903 l 836 -10 l 808 -10 l 226 853 l 226 38 l 383 28 l 383 0 l 67 0 z "},"O":{"ha":981,"x_min":88,"x_max":893,"o":"m 132 469 q 157 292 132 375 q 228 147 182 210 q 340 49 274 85 q 490 13 407 13 q 640 49 574 13 q 753 147 707 85 q 824 292 799 210 q 849 469 849 375 q 824 646 849 563 q 753 792 799 729 q 640 891 707 854 q 490 928 574 928 q 340 891 407 928 q 228 792 274 854 q 157 646 182 729 q 132 469 132 563 m 490 958 q 650 924 576 958 q 778 824 724 889 q 863 669 832 760 q 893 469 893 579 q 863 269 893 358 q 778 115 832 179 q 650 17 724 51 q 490 -18 576 -18 q 331 17 404 -18 q 203 115 257 51 q 118 269 149 179 q 88 469 88 358 q 118 669 88 579 q 203 824 149 760 q 331 924 257 889 q 490 958 404 958 z "},"P":{"ha":803,"x_min":81,"x_max":736,"o":"m 232 431 l 232 510 q 232 708 232 610 q 229 904 232 806 l 81 913 l 81 940 l 431 940 q 661 869 586 940 q 736 672 736 799 q 713 560 736 611 q 645 474 690 510 q 532 417 600 438 q 372 396 464 396 l 274 396 q 274 217 274 307 q 276 36 274 128 l 439 28 l 439 0 l 81 0 l 81 28 l 229 36 q 232 233 232 135 q 232 431 232 331 m 274 510 l 274 424 l 356 424 q 512 442 447 424 q 617 494 576 461 q 676 572 657 526 q 694 672 694 618 q 631 850 694 790 q 424 910 567 910 l 276 910 q 274 710 274 810 q 274 510 274 611 z "},"Q":{"ha":981,"x_min":88,"x_max":893,"o":"m 683 -275 q 581 -252 622 -275 q 513 -193 539 -229 q 476 -110 488 -157 q 465 -17 465 -64 q 315 24 383 -12 q 195 125 246 61 q 116 276 144 189 q 88 469 88 363 q 118 669 88 579 q 203 824 149 760 q 331 924 257 889 q 490 958 404 958 q 650 924 576 958 q 778 824 724 889 q 863 669 832 760 q 893 469 893 579 q 864 273 893 361 q 783 121 835 185 q 660 21 731 57 q 506 -18 589 -15 q 517 -111 504 -69 q 553 -183 529 -153 q 611 -228 578 -212 q 686 -244 644 -244 q 758 -237 726 -244 q 822 -217 790 -231 l 831 -236 q 758 -266 797 -257 q 683 -275 718 -275 m 132 469 q 157 292 132 375 q 228 147 182 210 q 340 49 274 85 q 490 13 407 13 q 640 49 574 13 q 753 147 707 85 q 824 292 799 210 q 849 469 849 375 q 824 646 849 563 q 753 792 799 729 q 640 891 707 854 q 490 928 574 928 q 340 891 407 928 q 228 792 274 854 q 157 646 182 729 q 132 469 132 563 z "},"R":{"ha":900,"x_min":81,"x_max":872,"o":"m 232 431 l 232 510 q 232 708 232 610 q 229 904 232 806 l 81 913 l 81 940 l 442 940 q 667 878 589 940 q 746 694 746 815 q 729 603 746 646 q 683 529 713 561 q 610 476 653 497 q 515 446 567 454 q 590 399 567 431 q 633 311 613 368 l 733 33 l 872 28 l 872 0 q 836 -5 860 -3 q 783 -7 813 -7 q 714 7 732 -7 q 686 47 696 21 l 600 293 q 573 359 586 332 q 540 404 560 386 q 489 431 519 422 q 411 439 458 439 l 274 439 q 274 228 274 326 q 276 36 274 131 l 425 28 l 425 0 l 81 0 l 81 28 l 229 36 q 232 233 232 135 q 232 431 232 331 m 439 910 l 276 910 q 274 703 274 810 q 274 467 274 597 l 454 467 q 554 484 508 467 q 634 533 600 501 q 688 605 668 564 q 707 694 707 646 q 642 851 707 792 q 439 910 576 910 z "},"S":{"ha":715,"x_min":76,"x_max":639,"o":"m 338 13 q 443 26 394 13 q 527 65 492 39 q 582 132 563 92 q 601 226 601 172 q 592 297 601 265 q 556 355 582 328 q 488 407 531 382 q 378 460 444 432 l 326 481 q 163 586 214 525 q 111 733 111 647 q 133 836 111 793 q 192 906 156 879 q 277 946 229 933 q 376 958 325 958 q 444 954 414 958 q 501 942 475 950 q 551 921 528 933 q 600 892 575 908 l 596 725 l 565 725 l 553 882 q 472 917 513 906 q 378 928 431 928 q 213 881 278 928 q 149 738 149 835 q 197 607 149 656 q 328 525 244 558 l 383 503 q 510 442 461 471 q 588 381 560 413 q 628 311 617 349 q 639 228 639 274 q 616 124 639 169 q 553 47 593 79 q 458 -1 513 15 q 338 -18 403 -18 q 186 6 256 -18 q 76 57 117 29 l 83 232 l 110 232 l 126 71 q 226 24 178 36 q 338 13 274 13 z "},"T":{"ha":825,"x_min":28,"x_max":797,"o":"m 392 431 l 392 510 q 392 710 392 611 q 389 910 392 810 l 83 910 l 61 714 l 28 714 l 42 940 l 783 940 l 797 714 l 764 714 l 742 910 l 436 910 q 433 710 433 810 q 433 510 433 611 l 433 431 q 433 233 433 331 q 436 36 433 135 l 599 28 l 599 0 l 226 0 l 226 28 l 389 36 q 392 233 392 135 q 392 431 392 331 z "},"U":{"ha":1024,"x_min":69,"x_max":957,"o":"m 247 356 q 266 200 247 264 q 320 95 285 136 q 404 36 356 54 q 514 18 453 18 q 643 38 589 18 q 732 102 697 58 q 783 215 767 146 q 799 381 799 283 l 799 903 l 629 913 l 629 940 l 957 940 l 957 913 l 832 903 l 832 344 q 756 76 832 171 q 514 -18 679 -18 q 386 2 443 -18 q 289 66 329 22 q 227 178 249 110 q 206 346 206 247 l 206 501 q 206 703 206 603 q 203 904 206 804 l 69 913 l 69 940 l 400 940 l 400 913 l 250 904 q 247 705 247 804 q 247 501 247 606 l 247 356 z "},"V":{"ha":900,"x_min":0,"x_max":886,"o":"m 439 -10 l 132 904 l 0 913 l 0 940 l 331 940 l 331 913 l 175 904 l 457 50 l 726 903 l 569 913 l 569 940 l 886 940 l 886 913 l 761 903 l 467 -10 l 439 -10 z "},"W":{"ha":1342,"x_min":15,"x_max":1328,"o":"m 922 -10 l 672 851 l 422 -10 l 394 -10 l 147 904 l 15 913 l 15 940 l 332 940 l 332 913 l 189 904 l 415 67 l 657 904 l 525 913 l 525 940 l 842 940 l 842 913 l 699 903 l 942 63 l 1150 903 l 1011 913 l 1011 940 l 1328 940 l 1328 913 l 1186 903 l 950 -10 l 922 -10 z "},"X":{"ha":885,"x_min":28,"x_max":857,"o":"m 28 0 l 28 28 l 146 36 l 421 479 l 168 904 l 46 913 l 46 940 l 363 940 l 363 913 l 213 904 l 446 511 l 678 904 l 531 913 l 531 940 l 847 940 l 847 913 l 718 903 l 463 485 l 729 36 l 857 28 l 857 0 l 540 0 l 540 28 l 685 36 l 438 451 l 188 38 l 344 28 l 344 0 l 28 0 z "},"Y":{"ha":882,"x_min":43,"x_max":846,"o":"m 628 0 l 256 0 l 256 28 l 419 36 q 420 106 419 75 q 421 174 421 138 q 421 257 421 210 q 421 378 421 304 l 156 904 l 43 913 l 43 940 l 353 940 l 353 913 l 200 903 l 446 411 l 690 903 l 536 913 l 536 940 l 846 940 l 846 913 l 726 904 l 463 379 q 463 255 463 304 q 463 169 463 206 q 463 103 463 133 q 464 36 464 74 l 628 28 l 628 0 z "},"Z":{"ha":771,"x_min":42,"x_max":729,"o":"m 699 226 l 729 226 l 715 0 l 42 0 l 42 28 l 656 910 l 119 910 l 93 714 l 63 714 l 74 940 l 703 940 l 703 913 l 92 31 l 669 31 l 699 226 z "},"a":{"ha":701,"x_min":79,"x_max":675,"o":"m 261 18 q 374 51 321 18 q 493 156 428 85 l 493 381 q 390 353 443 368 q 288 321 336 339 q 121 153 121 260 q 158 53 121 89 q 261 18 196 18 m 590 -18 q 522 18 543 -18 q 494 122 500 54 q 376 17 431 51 q 250 -18 321 -18 q 127 24 175 -18 q 79 144 79 65 q 131 269 79 219 q 286 353 183 319 q 392 382 339 369 q 493 406 444 394 l 493 450 q 483 545 493 508 q 451 604 472 582 q 398 635 429 626 q 325 643 367 643 q 182 601 246 643 l 160 518 q 126 488 151 488 q 96 514 103 488 q 179 631 118 592 q 328 671 240 671 q 481 624 429 671 q 532 471 532 576 l 532 156 q 550 44 532 74 q 601 15 568 15 q 628 20 615 15 q 661 39 642 25 l 675 19 q 636 -8 658 3 q 590 -18 614 -18 z "},"b":{"ha":806,"x_min":67,"x_max":733,"o":"m 67 0 l 67 28 l 192 36 q 192 96 192 63 q 194 163 193 129 q 194 231 194 197 q 194 292 194 264 l 194 994 l 68 994 l 68 1022 l 214 1039 l 236 1028 l 233 831 l 233 556 q 347 645 285 619 q 464 671 408 671 q 575 646 525 671 q 660 576 625 621 q 715 470 696 532 q 733 336 733 408 q 714 190 733 256 q 658 78 694 125 q 571 7 622 32 q 457 -18 519 -18 q 344 6 403 -18 q 233 92 285 31 l 229 -6 l 67 0 m 456 17 q 544 35 501 17 q 619 92 586 53 q 670 191 651 131 q 689 336 689 251 q 672 466 689 410 q 623 560 654 522 q 549 617 592 597 q 456 636 506 636 q 341 610 396 636 q 233 517 286 583 l 233 125 q 342 42 290 68 q 456 17 393 17 z "},"c":{"ha":678,"x_min":72,"x_max":614,"o":"m 386 643 q 280 620 329 643 q 194 556 231 597 q 138 456 158 514 q 117 328 117 399 q 136 203 117 260 q 191 105 156 146 q 275 41 226 64 q 381 18 324 18 q 499 41 443 18 q 599 110 554 64 l 614 96 q 515 14 572 46 q 378 -18 458 -18 q 255 7 311 -18 q 158 78 199 32 q 94 187 117 124 q 72 326 72 250 q 99 472 72 408 q 169 581 125 536 q 270 648 213 625 q 389 671 328 671 q 522 635 463 671 q 613 525 581 599 q 582 497 606 497 q 546 524 556 497 l 514 606 q 450 635 481 626 q 386 643 419 643 z "},"d":{"ha":799,"x_min":72,"x_max":758,"o":"m 117 315 q 135 186 117 242 q 184 93 153 131 q 258 36 215 56 q 350 17 301 17 q 468 44 415 17 q 572 136 521 71 l 572 526 q 478 608 526 581 q 367 636 429 636 q 269 617 314 636 q 190 558 224 597 q 136 458 156 518 q 117 315 117 397 m 568 -8 l 571 96 q 465 8 522 33 q 346 -18 407 -18 q 235 7 285 -18 q 149 76 185 32 q 92 182 113 121 q 72 315 72 243 q 94 465 72 399 q 156 576 117 531 q 250 647 196 622 q 367 671 304 671 q 471 644 417 671 q 572 560 525 618 l 572 994 l 446 994 l 446 1022 l 594 1039 l 614 1028 l 611 836 l 611 35 l 758 28 l 758 0 l 568 -8 z "},"e":{"ha":682,"x_min":72,"x_max":618,"o":"m 549 365 q 570 377 564 365 q 576 419 576 389 q 563 503 576 463 q 524 574 550 543 q 458 624 497 606 q 368 643 419 643 q 271 621 315 643 q 193 560 226 599 q 140 472 160 522 q 118 367 121 422 l 549 365 m 368 671 q 475 650 428 671 q 553 594 522 629 q 601 513 585 558 q 618 415 618 467 q 610 336 618 367 l 117 338 q 141 191 118 251 q 200 92 164 131 q 283 35 236 53 q 379 18 331 18 q 597 107 513 18 l 613 92 q 509 10 571 39 q 379 -18 447 -18 q 267 2 322 -18 q 168 65 211 22 q 99 172 125 107 q 72 329 72 238 q 97 472 72 408 q 162 579 121 535 q 256 647 203 624 q 368 671 310 671 z "},"f":{"ha":492,"x_min":46,"x_max":546,"o":"m 188 292 l 188 619 l 47 619 l 47 647 l 186 653 q 210 846 188 765 q 282 979 232 926 q 360 1036 319 1019 q 442 1053 401 1053 q 510 1039 481 1053 q 546 1006 539 1025 q 537 986 546 994 q 513 978 528 978 q 476 988 494 978 q 431 1019 458 999 l 418 1028 q 360 1008 390 1025 q 303 958 331 990 q 271 913 285 938 q 247 853 257 889 q 232 769 238 818 q 226 653 226 721 l 454 653 l 454 619 l 226 619 l 226 292 q 228 163 226 226 q 231 35 229 100 l 376 28 l 376 0 l 46 0 l 46 28 l 183 35 q 186 163 185 100 q 188 292 188 226 z "},"g":{"ha":708,"x_min":69,"x_max":660,"o":"m 354 -307 q 551 -254 485 -307 q 617 -125 617 -201 q 610 -80 617 -101 q 586 -42 603 -58 q 541 -17 569 -26 q 469 -8 513 -8 l 297 -8 q 252 -6 275 -8 q 206 -1 229 -4 q 135 -62 160 -31 q 111 -146 111 -94 q 174 -265 111 -222 q 354 -307 236 -307 m 101 442 q 118 535 101 493 q 165 607 135 576 q 237 654 194 638 q 331 671 279 671 q 476 624 418 671 l 639 661 l 660 647 l 660 604 l 499 604 q 544 533 528 574 q 560 442 560 492 q 542 347 560 389 q 495 274 525 304 q 423 228 465 244 q 331 211 381 211 q 225 233 274 211 q 169 167 189 196 q 150 106 150 139 q 180 53 150 74 q 281 33 210 33 l 479 33 q 612 -6 565 33 q 658 -124 658 -44 q 640 -204 658 -165 q 583 -273 621 -243 q 487 -322 544 -303 q 351 -340 429 -340 q 144 -289 219 -340 q 69 -154 69 -237 q 103 -58 69 -99 q 183 8 136 -18 q 132 42 151 19 q 113 96 113 64 q 138 174 113 140 q 204 244 164 208 q 128 324 156 274 q 101 442 101 375 m 331 643 q 195 588 247 643 q 143 442 143 532 q 195 295 143 351 q 331 239 247 239 q 466 295 414 239 q 518 442 518 351 q 466 588 518 532 q 331 643 414 643 z "},"h":{"ha":846,"x_min":67,"x_max":794,"o":"m 511 671 q 581 658 550 671 q 633 618 611 646 q 667 546 656 590 q 679 436 679 501 l 679 292 q 679 230 679 264 q 680 162 679 196 q 681 94 681 128 q 682 35 682 61 l 794 28 l 794 0 l 513 0 l 513 28 l 638 35 q 638 94 638 61 q 640 162 639 128 q 640 230 640 196 q 640 292 640 264 l 640 438 q 601 588 640 543 q 501 632 563 632 q 451 626 479 632 q 388 603 422 619 q 314 556 353 586 q 233 479 275 526 l 233 292 q 233 231 233 264 q 234 163 233 197 q 235 94 235 128 q 236 35 236 61 l 349 28 l 349 0 l 67 0 l 67 28 l 192 35 q 192 95 192 61 q 194 163 193 129 q 194 231 194 197 q 194 292 194 264 l 194 994 l 68 994 l 68 1022 l 214 1039 l 236 1028 l 233 831 l 233 515 q 380 637 311 603 q 511 671 449 671 z "},"i":{"ha":421,"x_min":61,"x_max":349,"o":"m 204 896 q 173 908 186 896 q 160 940 160 919 q 173 973 160 961 q 204 985 186 985 q 235 973 222 985 q 249 940 249 961 q 235 908 249 919 q 204 896 222 896 m 349 0 l 67 0 l 67 28 l 192 35 q 192 95 192 61 q 194 163 193 129 q 194 231 194 197 q 194 292 194 264 l 194 360 q 194 490 194 425 q 192 619 194 554 l 61 619 l 61 647 l 222 664 l 236 656 l 233 494 l 233 292 q 233 231 233 264 q 234 163 233 197 q 235 94 235 128 q 236 35 236 61 l 349 28 l 349 0 z "},"j":{"ha":388,"x_min":-76,"x_max":242,"o":"m 197 896 q 166 908 179 896 q 153 940 153 919 q 166 973 153 961 q 197 985 179 985 q 228 973 215 985 q 242 940 242 961 q 228 908 242 919 q 197 896 215 896 m 188 104 l 188 360 q 187 500 188 433 q 183 619 186 567 l 54 619 l 54 647 l 215 664 l 229 656 l 226 494 l 226 188 q 224 -3 226 74 q 214 -131 221 -79 q 194 -215 207 -182 q 160 -275 181 -249 q 84 -337 124 -321 q 7 -354 44 -354 q -53 -346 -33 -354 q -76 -328 -72 -337 q -29 -297 -69 -297 q 1 -301 -15 -297 q 40 -315 17 -304 l 53 -321 q 98 -295 76 -311 q 133 -260 119 -279 q 178 -116 168 -211 q 188 104 188 -21 z "},"k":{"ha":754,"x_min":67,"x_max":747,"o":"m 68 1022 l 217 1039 l 236 1028 l 233 831 l 233 301 l 547 617 l 414 625 l 414 653 l 719 653 l 719 625 l 592 618 l 392 419 l 631 35 l 747 28 l 747 0 l 606 0 l 363 390 l 233 263 q 233 206 233 236 q 234 145 233 175 q 235 87 235 115 q 236 35 236 58 l 349 28 l 349 0 l 67 0 l 67 28 l 192 35 q 192 95 192 61 q 194 163 193 129 q 194 231 194 197 q 194 292 194 264 l 194 994 l 68 994 l 68 1022 z "},"l":{"ha":421,"x_min":53,"x_max":369,"o":"m 68 1022 l 217 1039 l 236 1028 l 233 831 l 233 292 q 233 231 233 264 q 234 163 233 197 q 235 94 235 128 q 236 35 236 61 l 369 28 l 369 0 l 53 0 l 53 28 l 192 35 q 192 95 192 61 q 194 163 193 129 q 194 231 194 197 q 194 292 194 264 l 194 994 l 68 994 l 68 1022 z "},"m":{"ha":1235,"x_min":54,"x_max":1183,"o":"m 485 671 q 584 638 543 671 q 640 525 625 604 q 770 636 707 601 q 897 671 833 671 q 1023 618 978 671 q 1068 436 1068 565 l 1068 292 q 1068 230 1068 264 q 1069 162 1068 196 q 1070 94 1069 128 q 1071 35 1071 61 l 1183 28 l 1183 0 l 901 0 l 901 28 l 1026 35 q 1027 94 1026 61 q 1028 162 1028 128 q 1029 230 1029 196 q 1029 292 1029 264 l 1029 438 q 991 588 1029 543 q 894 632 953 632 q 842 626 871 632 q 783 605 814 621 q 717 562 751 589 q 644 493 682 535 q 647 465 646 479 q 647 436 647 451 l 647 292 q 647 230 647 264 q 648 162 647 196 q 649 94 649 128 q 650 35 650 61 l 763 28 l 763 0 l 481 0 l 481 28 l 606 35 q 606 94 606 61 q 608 162 607 128 q 608 230 608 196 q 608 292 608 264 l 608 438 q 598 527 608 490 q 570 588 588 564 q 530 622 553 611 q 482 632 507 632 q 431 626 458 632 q 372 603 404 619 q 304 556 340 586 q 226 479 268 526 l 226 292 q 226 231 226 264 q 227 163 226 197 q 228 94 228 128 q 229 35 229 61 l 342 28 l 342 0 l 60 0 l 60 28 l 185 35 q 185 95 185 61 q 187 163 186 129 q 188 231 188 197 q 188 292 188 264 l 188 360 q 187 500 188 433 q 183 619 186 567 l 54 619 l 54 647 l 210 664 l 224 656 l 226 514 q 361 635 300 599 q 485 671 422 671 z "},"n":{"ha":839,"x_min":54,"x_max":788,"o":"m 504 671 q 574 658 543 671 q 626 618 604 646 q 660 546 649 590 q 672 436 672 501 l 672 292 q 672 230 672 264 q 673 162 672 196 q 674 94 674 128 q 675 35 675 61 l 788 28 l 788 0 l 506 0 l 506 28 l 631 35 q 631 94 631 61 q 633 162 632 128 q 633 230 633 196 q 633 292 633 264 l 633 438 q 594 588 633 543 q 494 632 556 632 q 444 626 472 632 q 381 603 415 619 q 307 556 346 586 q 226 479 268 526 l 226 292 q 226 231 226 264 q 227 163 226 197 q 228 94 228 128 q 229 35 229 61 l 342 28 l 342 0 l 60 0 l 60 28 l 185 35 q 185 95 185 61 q 187 163 186 129 q 188 231 188 197 q 188 292 188 264 l 188 360 q 187 500 188 433 q 183 619 186 567 l 54 619 l 54 647 l 210 664 l 224 656 l 226 514 q 372 637 303 603 q 504 671 442 671 z "},"o":{"ha":747,"x_min":72,"x_max":675,"o":"m 374 -18 q 264 2 318 -18 q 167 64 210 22 q 99 170 125 106 q 72 324 72 235 q 99 478 72 413 q 167 586 125 543 q 264 650 210 629 q 374 671 318 671 q 483 650 429 671 q 580 586 538 629 q 649 478 622 543 q 675 324 675 413 q 649 170 675 235 q 580 64 622 106 q 483 2 538 22 q 374 -18 429 -18 m 374 10 q 479 31 432 10 q 560 93 526 53 q 612 192 593 133 q 631 324 631 250 q 612 456 631 397 q 560 557 593 515 q 479 621 526 599 q 374 643 432 643 q 268 621 315 643 q 188 557 221 599 q 135 456 154 515 q 117 324 117 397 q 135 192 117 250 q 188 93 154 133 q 268 31 221 53 q 374 10 315 10 z "},"p":{"ha":799,"x_min":54,"x_max":726,"o":"m 682 336 q 665 467 682 411 q 616 561 647 524 q 542 617 585 599 q 449 636 499 636 q 334 610 389 636 q 226 517 279 583 l 226 117 q 334 38 283 58 q 449 17 385 17 q 537 35 494 17 q 612 91 579 53 q 663 190 644 129 q 682 336 682 250 m 188 -49 l 188 354 q 187 497 188 428 q 183 619 186 567 l 54 619 l 54 647 l 210 664 l 224 656 l 226 553 q 340 644 278 618 q 457 671 401 671 q 568 646 518 671 q 653 576 618 621 q 708 471 689 532 q 726 336 726 410 q 707 189 726 254 q 651 78 688 124 q 564 7 615 32 q 450 -18 513 -18 q 338 1 396 -18 q 226 81 279 21 l 226 -49 q 226 -110 226 -76 q 227 -177 226 -143 q 228 -245 228 -211 q 229 -306 229 -279 l 369 -312 l 369 -340 l 60 -340 l 60 -312 l 185 -306 q 185 -245 185 -279 q 187 -177 186 -211 q 188 -110 188 -143 q 188 -49 188 -76 z "},"q":{"ha":760,"x_min":72,"x_max":740,"o":"m 117 315 q 135 185 117 242 q 184 92 153 129 q 258 35 215 54 q 350 17 301 17 q 468 44 415 17 q 572 136 521 71 l 572 528 q 478 609 526 582 q 367 636 429 636 q 269 617 314 636 q 190 558 224 597 q 136 458 156 518 q 117 315 117 397 m 611 -49 q 612 -177 611 -114 q 614 -306 613 -240 l 740 -312 l 740 -340 l 431 -340 l 431 -312 l 569 -306 q 572 -177 571 -240 q 572 -49 572 -114 l 572 97 q 465 8 522 33 q 346 -18 407 -18 q 235 6 285 -18 q 149 75 185 31 q 92 181 113 119 q 72 315 72 242 q 94 465 72 399 q 156 576 117 531 q 250 647 196 622 q 367 671 304 671 q 472 644 418 671 q 574 560 526 618 l 589 657 l 615 653 l 611 465 l 611 -49 z "},"r":{"ha":563,"x_min":54,"x_max":551,"o":"m 60 0 l 60 28 l 185 35 q 185 95 185 61 q 187 163 186 129 q 188 231 188 197 q 188 292 188 264 l 188 360 q 187 500 188 433 q 183 619 186 567 l 54 619 l 54 647 l 210 664 l 224 656 l 226 479 q 267 556 243 521 q 322 617 292 592 q 388 656 353 642 q 460 671 422 671 q 520 660 496 671 q 551 633 544 649 q 510 594 551 594 q 476 604 490 594 q 440 632 461 614 l 428 643 q 226 431 306 613 l 226 292 q 226 231 226 264 q 227 163 226 197 q 228 94 228 128 q 229 35 229 61 l 360 28 l 360 0 l 60 0 z "},"s":{"ha":592,"x_min":76,"x_max":515,"o":"m 279 -18 q 176 -7 221 -18 q 81 25 131 4 l 76 165 l 107 165 l 125 42 q 192 18 156 26 q 282 10 228 10 q 428 51 379 10 q 476 154 476 92 q 469 200 476 179 q 445 238 463 221 q 399 271 428 256 q 326 301 369 286 l 261 325 q 142 393 186 353 q 97 503 97 433 q 152 624 97 578 q 310 671 207 671 q 406 658 367 671 q 494 615 446 644 l 492 492 l 461 492 l 451 601 q 377 634 413 625 q 306 643 342 643 q 177 603 218 643 q 136 507 136 564 q 171 422 136 453 q 276 364 206 390 l 347 338 q 478 263 440 303 q 515 160 515 222 q 501 92 515 124 q 458 35 488 60 q 385 -3 429 11 q 279 -18 340 -18 z "},"t":{"ha":461,"x_min":21,"x_max":426,"o":"m 213 147 q 238 46 213 76 q 311 15 263 15 q 368 22 346 15 q 417 40 390 28 l 426 21 q 307 -18 379 -18 q 200 26 231 -18 q 172 153 169 69 q 173 193 172 172 q 174 242 174 214 l 174 619 l 21 619 l 21 647 l 174 653 l 188 860 l 218 860 l 213 653 l 414 653 l 414 619 l 213 619 l 213 147 z "},"u":{"ha":839,"x_min":54,"x_max":768,"o":"m 768 0 l 615 -8 l 619 132 q 508 26 571 69 q 363 -18 444 -18 q 278 -5 314 -18 q 219 39 243 8 q 185 119 196 69 q 174 243 174 169 l 176 614 l 54 622 l 54 650 l 206 658 l 218 642 l 213 450 l 213 247 q 253 71 213 121 q 369 21 294 21 q 503 60 440 21 q 619 169 567 99 l 619 614 l 500 621 l 500 650 l 651 658 l 664 642 l 658 450 l 658 35 l 768 28 l 768 0 z "},"v":{"ha":683,"x_min":-14,"x_max":683,"o":"m 354 -8 l 329 -8 l 92 618 l -14 625 l -14 653 l 254 653 l 254 625 l 136 618 l 347 51 l 553 617 l 429 625 l 429 653 l 683 653 l 683 625 l 588 618 l 354 -8 z "},"w":{"ha":1061,"x_min":-7,"x_max":1054,"o":"m 739 -8 q 666 199 696 114 q 613 351 636 285 q 572 476 590 418 q 536 600 554 533 l 326 -8 l 303 -8 l 93 618 l -7 625 l -7 653 l 263 653 l 263 625 l 138 618 l 319 60 l 517 618 l 413 625 l 413 653 l 667 653 l 667 625 l 563 618 l 756 60 l 929 618 l 800 625 l 800 653 l 1054 653 l 1054 625 l 963 617 l 761 -8 l 739 -8 z "},"x":{"ha":694,"x_min":14,"x_max":681,"o":"m 251 28 l 251 0 l 14 0 l 14 28 l 111 35 l 331 328 l 119 618 l 24 625 l 24 653 l 276 653 l 276 625 l 165 618 l 353 354 l 540 618 l 429 625 l 429 653 l 671 653 l 671 625 l 576 618 l 368 335 l 588 35 l 681 28 l 681 0 l 424 0 l 424 28 l 538 35 l 346 307 l 150 35 l 251 28 z "},"y":{"ha":683,"x_min":-26,"x_max":685,"o":"m 71 -354 q 10 -345 39 -354 q -26 -312 -18 -336 q -11 -292 -24 -299 q 18 -285 1 -285 q 53 -293 35 -285 q 90 -315 71 -301 l 101 -324 q 208 -251 158 -310 q 293 -101 258 -193 l 326 -11 l 83 618 l -19 625 l -19 653 l 250 653 l 250 625 l 128 618 l 344 38 l 554 617 l 431 625 l 431 653 l 685 653 l 685 625 l 590 618 l 322 -104 q 209 -292 275 -231 q 71 -354 143 -354 z "},"z":{"ha":635,"x_min":74,"x_max":581,"o":"m 82 653 l 557 653 l 557 625 l 121 28 l 522 28 l 551 193 l 581 193 l 571 0 l 75 0 l 75 28 l 510 625 l 128 625 l 103 474 l 74 479 l 82 653 z "},"À":{"ha":907,"x_min":17,"x_max":904,"o":"m 17 0 l 17 28 l 129 36 l 426 950 l 454 950 l 760 35 l 904 28 l 904 0 l 560 0 l 560 28 l 717 36 l 615 343 l 267 343 l 169 35 l 292 28 l 292 0 l 17 0 m 606 371 l 438 883 l 275 371 l 606 371 m 494 1029 l 483 1014 q 403 1063 443 1038 q 325 1113 363 1089 q 276 1147 290 1136 q 261 1169 261 1157 q 268 1187 261 1181 q 286 1193 275 1193 q 310 1184 297 1193 q 351 1150 322 1175 q 420 1092 383 1122 q 494 1029 457 1061 z "},"Á":{"ha":907,"x_min":17,"x_max":904,"o":"m 17 0 l 17 28 l 129 36 l 426 950 l 454 950 l 760 35 l 904 28 l 904 0 l 560 0 l 560 28 l 717 36 l 615 343 l 267 343 l 169 35 l 292 28 l 292 0 l 17 0 m 606 371 l 438 883 l 275 371 l 606 371 m 358 1029 q 433 1092 396 1061 q 501 1151 469 1124 q 543 1184 531 1175 q 567 1193 556 1193 q 585 1187 578 1193 q 592 1169 592 1181 q 578 1146 592 1157 q 529 1114 564 1135 q 450 1065 490 1090 q 369 1014 410 1039 l 358 1029 z "},"Â":{"ha":907,"x_min":17,"x_max":904,"o":"m 17 0 l 17 28 l 129 36 l 426 950 l 454 950 l 760 35 l 904 28 l 904 0 l 560 0 l 560 28 l 717 36 l 615 343 l 267 343 l 169 35 l 292 28 l 292 0 l 17 0 m 606 371 l 438 883 l 275 371 l 606 371 m 450 1169 l 631 1014 l 619 1000 l 440 1118 l 261 1000 l 250 1014 l 431 1169 l 450 1169 z "},"Ã":{"ha":907,"x_min":17,"x_max":904,"o":"m 17 0 l 17 28 l 129 36 l 426 950 l 454 950 l 760 35 l 904 28 l 904 0 l 560 0 l 560 28 l 717 36 l 615 343 l 267 343 l 169 35 l 292 28 l 292 0 l 17 0 m 606 371 l 438 883 l 275 371 l 606 371 m 211 1046 q 253 1138 221 1103 q 338 1174 286 1174 q 405 1156 378 1174 q 451 1114 432 1138 q 493 1076 474 1090 q 544 1061 513 1061 q 606 1087 582 1061 q 644 1163 629 1113 l 667 1156 q 624 1065 657 1100 q 539 1029 592 1029 q 472 1047 499 1029 q 426 1088 446 1065 q 385 1126 404 1111 q 333 1142 365 1142 q 272 1115 296 1142 q 233 1039 249 1089 l 211 1046 z "},"Ä":{"ha":907,"x_min":17,"x_max":904,"o":"m 17 0 l 17 28 l 129 36 l 426 950 l 454 950 l 760 35 l 904 28 l 904 0 l 560 0 l 560 28 l 717 36 l 615 343 l 267 343 l 169 35 l 292 28 l 292 0 l 17 0 m 606 371 l 438 883 l 275 371 l 606 371 m 290 1050 q 260 1062 274 1050 q 246 1094 246 1074 q 260 1127 246 1115 q 290 1139 274 1139 q 322 1127 308 1139 q 335 1094 335 1115 q 322 1062 335 1074 q 290 1050 308 1050 m 576 1050 q 545 1062 558 1050 q 532 1094 532 1074 q 545 1127 532 1115 q 576 1139 558 1139 q 607 1127 593 1139 q 621 1094 621 1115 q 607 1062 621 1074 q 576 1050 593 1050 z "},"Ā":{"ha":907,"x_min":17,"x_max":904,"o":"m 17 0 l 17 28 l 129 36 l 426 950 l 454 950 l 760 35 l 904 28 l 904 0 l 560 0 l 560 28 l 717 36 l 615 343 l 267 343 l 169 35 l 292 28 l 292 0 l 17 0 m 606 371 l 438 883 l 275 371 l 606 371 m 238 1065 l 238 1101 l 643 1101 l 643 1065 l 238 1065 z "},"Ă":{"ha":907,"x_min":17,"x_max":904,"o":"m 17 0 l 17 28 l 129 36 l 426 950 l 454 950 l 760 35 l 904 28 l 904 0 l 560 0 l 560 28 l 717 36 l 615 343 l 267 343 l 169 35 l 292 28 l 292 0 l 17 0 m 606 371 l 438 883 l 275 371 l 606 371 m 251 1186 l 272 1193 q 331 1097 292 1132 q 438 1061 371 1061 q 544 1097 504 1061 q 603 1193 583 1132 l 624 1186 q 603 1128 617 1157 q 566 1076 589 1100 q 511 1038 543 1053 q 438 1024 479 1024 q 364 1038 396 1024 q 309 1076 332 1053 q 272 1128 286 1100 q 251 1186 257 1157 z "},"Ắ":{"ha":907,"x_min":17,"x_max":904,"o":"m 17 0 l 17 28 l 129 36 l 426 950 l 454 950 l 760 35 l 904 28 l 904 0 l 560 0 l 560 28 l 717 36 l 615 343 l 267 343 l 169 35 l 292 28 l 292 0 l 17 0 m 606 371 l 438 883 l 275 371 l 606 371 m 438 1024 q 364 1038 396 1024 q 309 1076 332 1053 q 272 1128 286 1100 q 251 1186 257 1157 l 272 1193 q 331 1097 292 1132 q 438 1061 371 1061 q 544 1097 504 1061 q 603 1193 583 1132 l 624 1186 q 603 1128 617 1157 q 566 1076 589 1100 q 511 1038 543 1053 q 438 1024 479 1024 m 399 1153 l 478 1258 q 508 1294 497 1283 q 531 1306 519 1306 q 547 1300 540 1306 q 554 1282 554 1294 q 544 1258 554 1271 q 506 1222 533 1246 l 411 1140 l 399 1153 z "},"Ặ":{"ha":907,"x_min":17,"x_max":904,"o":"m 17 0 l 17 28 l 129 36 l 426 950 l 454 950 l 760 35 l 904 28 l 904 0 l 560 0 l 560 28 l 717 36 l 615 343 l 267 343 l 169 35 l 292 28 l 292 0 l 17 0 m 606 371 l 438 883 l 275 371 l 606 371 m 251 1186 l 272 1193 q 331 1097 292 1132 q 438 1061 371 1061 q 544 1097 504 1061 q 603 1193 583 1132 l 624 1186 q 603 1128 617 1157 q 566 1076 589 1100 q 511 1038 543 1053 q 438 1024 479 1024 q 364 1038 396 1024 q 309 1076 332 1053 q 272 1128 286 1100 q 251 1186 257 1157 m 453 -229 q 422 -217 436 -229 q 408 -185 408 -204 q 422 -153 408 -165 q 453 -140 436 -140 q 483 -153 469 -140 q 497 -185 497 -165 q 483 -217 497 -204 q 453 -229 469 -229 z "},"Ằ":{"ha":907,"x_min":17,"x_max":904,"o":"m 17 0 l 17 28 l 129 36 l 426 950 l 454 950 l 760 35 l 904 28 l 904 0 l 560 0 l 560 28 l 717 36 l 615 343 l 267 343 l 169 35 l 292 28 l 292 0 l 17 0 m 606 371 l 438 883 l 275 371 l 606 371 m 438 1024 q 364 1038 396 1024 q 309 1076 332 1053 q 272 1128 286 1100 q 251 1186 257 1157 l 272 1193 q 331 1097 292 1132 q 438 1061 371 1061 q 544 1097 504 1061 q 603 1193 583 1132 l 624 1186 q 603 1128 617 1157 q 566 1076 589 1100 q 511 1038 543 1053 q 438 1024 479 1024 m 476 1153 l 464 1140 l 369 1222 q 331 1258 342 1246 q 321 1282 321 1271 q 328 1300 321 1294 q 344 1306 335 1306 q 367 1294 356 1306 q 397 1258 378 1283 l 476 1153 z "},"Ẳ":{"ha":907,"x_min":17,"x_max":904,"o":"m 17 0 l 17 28 l 129 36 l 426 950 l 454 950 l 760 35 l 904 28 l 904 0 l 560 0 l 560 28 l 717 36 l 615 343 l 267 343 l 169 35 l 292 28 l 292 0 l 17 0 m 606 371 l 438 883 l 275 371 l 606 371 m 413 1144 l 407 1165 q 479 1192 457 1176 q 501 1235 501 1208 q 497 1260 501 1249 q 479 1279 492 1271 q 444 1294 467 1288 q 385 1307 421 1300 l 390 1342 q 506 1305 474 1331 q 539 1239 539 1279 q 506 1177 539 1203 q 413 1144 472 1151 m 251 1186 l 272 1193 q 331 1097 292 1132 q 438 1061 371 1061 q 544 1097 504 1061 q 603 1193 583 1132 l 624 1186 q 603 1128 617 1157 q 566 1076 589 1100 q 511 1038 543 1053 q 438 1024 479 1024 q 364 1038 396 1024 q 309 1076 332 1053 q 272 1128 286 1100 q 251 1186 257 1157 z "},"Ẵ":{"ha":907,"x_min":17,"x_max":904,"o":"m 17 0 l 17 28 l 129 36 l 426 950 l 454 950 l 760 35 l 904 28 l 904 0 l 560 0 l 560 28 l 717 36 l 615 343 l 267 343 l 169 35 l 292 28 l 292 0 l 17 0 m 606 371 l 438 883 l 275 371 l 606 371 m 232 1189 q 271 1262 242 1233 q 347 1290 300 1290 q 406 1278 382 1290 q 449 1253 429 1267 q 488 1229 471 1238 q 532 1221 504 1221 q 590 1238 568 1221 q 624 1290 611 1256 l 643 1285 q 604 1213 633 1240 q 528 1185 575 1185 q 469 1195 492 1185 q 426 1221 446 1206 q 388 1245 404 1236 q 343 1254 371 1254 q 285 1237 307 1254 q 251 1185 264 1219 l 232 1189 m 438 1024 q 318 1057 365 1024 q 243 1147 271 1090 l 263 1158 q 333 1087 294 1113 q 438 1061 372 1061 q 542 1087 503 1061 q 613 1158 581 1113 l 632 1147 q 557 1057 604 1090 q 438 1024 510 1024 z "},"Ǎ":{"ha":907,"x_min":17,"x_max":904,"o":"m 17 0 l 17 28 l 129 36 l 426 950 l 454 950 l 760 35 l 904 28 l 904 0 l 560 0 l 560 28 l 717 36 l 615 343 l 267 343 l 169 35 l 292 28 l 292 0 l 17 0 m 606 371 l 438 883 l 275 371 l 606 371 m 286 1201 l 439 1072 l 592 1201 l 607 1186 l 453 1028 l 425 1028 l 271 1186 l 286 1201 z "},"Ấ":{"ha":907,"x_min":17,"x_max":904,"o":"m 17 0 l 17 28 l 129 36 l 426 950 l 454 950 l 760 35 l 904 28 l 904 0 l 560 0 l 560 28 l 717 36 l 615 343 l 267 343 l 169 35 l 292 28 l 292 0 l 17 0 m 606 371 l 438 883 l 275 371 l 606 371 m 261 1000 l 250 1014 l 431 1169 l 450 1169 l 631 1014 l 619 1000 l 440 1118 l 261 1000 m 588 1090 l 574 1104 l 657 1206 q 672 1222 665 1217 q 690 1228 679 1228 q 714 1204 714 1228 q 705 1184 714 1193 q 688 1168 696 1175 l 588 1090 z "},"Ậ":{"ha":907,"x_min":17,"x_max":904,"o":"m 17 0 l 17 28 l 129 36 l 426 950 l 454 950 l 760 35 l 904 28 l 904 0 l 560 0 l 560 28 l 717 36 l 615 343 l 267 343 l 169 35 l 292 28 l 292 0 l 17 0 m 606 371 l 438 883 l 275 371 l 606 371 m 450 1169 l 631 1014 l 619 1000 l 440 1118 l 261 1000 l 250 1014 l 431 1169 l 450 1169 m 453 -229 q 422 -217 436 -229 q 408 -185 408 -204 q 422 -153 408 -165 q 453 -140 436 -140 q 483 -153 469 -140 q 497 -185 497 -165 q 483 -217 497 -204 q 453 -229 469 -229 z "},"Ầ":{"ha":907,"x_min":17,"x_max":904,"o":"m 17 0 l 17 28 l 129 36 l 426 950 l 454 950 l 760 35 l 904 28 l 904 0 l 560 0 l 560 28 l 717 36 l 615 343 l 267 343 l 169 35 l 292 28 l 292 0 l 17 0 m 606 371 l 438 883 l 275 371 l 606 371 m 619 1000 l 440 1118 l 261 1000 l 250 1014 l 431 1169 l 450 1169 l 631 1014 l 619 1000 m 293 1090 l 193 1168 q 176 1184 185 1175 q 167 1204 167 1193 q 190 1228 167 1228 q 208 1222 201 1228 q 224 1206 215 1217 l 307 1104 l 293 1090 z "},"Ẩ":{"ha":907,"x_min":17,"x_max":904,"o":"m 17 0 l 17 28 l 129 36 l 426 950 l 454 950 l 760 35 l 904 28 l 904 0 l 560 0 l 560 28 l 717 36 l 615 343 l 267 343 l 169 35 l 292 28 l 292 0 l 17 0 m 606 371 l 438 883 l 275 371 l 606 371 m 261 1000 l 250 1014 l 431 1169 l 450 1169 l 631 1014 l 619 1000 l 440 1118 l 261 1000 m 576 1114 q 657 1179 657 1132 q 627 1222 657 1210 q 524 1242 597 1233 l 528 1276 q 653 1247 611 1269 q 694 1183 694 1225 q 665 1124 694 1149 q 582 1093 635 1100 l 576 1114 z "},"Ẫ":{"ha":907,"x_min":17,"x_max":904,"o":"m 17 0 l 17 28 l 129 36 l 426 950 l 454 950 l 760 35 l 904 28 l 904 0 l 560 0 l 560 28 l 717 36 l 615 343 l 267 343 l 169 35 l 292 28 l 292 0 l 17 0 m 606 371 l 438 883 l 275 371 l 606 371 m 260 1000 l 251 1014 l 432 1142 l 451 1142 l 632 1014 l 624 1000 l 442 1092 l 260 1000 m 236 1176 q 275 1249 246 1221 q 351 1278 304 1278 q 410 1266 386 1278 q 453 1240 433 1254 q 492 1217 475 1225 q 536 1208 508 1208 q 594 1226 572 1208 q 628 1278 615 1243 l 647 1272 q 608 1200 638 1228 q 532 1172 579 1172 q 473 1183 496 1172 q 431 1208 450 1193 q 392 1233 408 1224 q 347 1242 375 1242 q 290 1224 311 1242 q 256 1172 268 1207 l 236 1176 z "},"Ạ":{"ha":907,"x_min":17,"x_max":904,"o":"m 17 0 l 17 28 l 129 36 l 426 950 l 454 950 l 760 35 l 904 28 l 904 0 l 560 0 l 560 28 l 717 36 l 615 343 l 267 343 l 169 35 l 292 28 l 292 0 l 17 0 m 606 371 l 438 883 l 275 371 l 606 371 m 453 -229 q 422 -217 436 -229 q 408 -185 408 -204 q 422 -153 408 -165 q 453 -140 436 -140 q 483 -153 469 -140 q 497 -185 497 -165 q 483 -217 497 -204 q 453 -229 469 -229 z "},"Ả":{"ha":907,"x_min":17,"x_max":904,"o":"m 17 0 l 17 28 l 129 36 l 426 950 l 454 950 l 760 35 l 904 28 l 904 0 l 560 0 l 560 28 l 717 36 l 615 343 l 267 343 l 169 35 l 292 28 l 292 0 l 17 0 m 606 371 l 438 883 l 275 371 l 606 371 m 421 1003 l 415 1024 q 488 1051 465 1035 q 510 1093 510 1067 q 505 1118 510 1107 q 488 1138 500 1129 q 452 1152 475 1146 q 393 1165 429 1158 l 399 1200 q 515 1163 482 1189 q 547 1097 547 1138 q 514 1035 547 1061 q 421 1003 481 1010 z "},"Å":{"ha":907,"x_min":17,"x_max":904,"o":"m 17 0 l 17 28 l 129 36 l 426 950 l 454 950 l 760 35 l 904 28 l 904 0 l 560 0 l 560 28 l 717 36 l 615 343 l 267 343 l 169 35 l 292 28 l 292 0 l 17 0 m 606 371 l 438 883 l 275 371 l 606 371 m 439 1001 q 360 1033 394 1001 q 325 1117 325 1064 q 360 1201 325 1169 q 439 1232 394 1232 q 518 1201 483 1232 q 553 1117 553 1169 q 518 1033 553 1064 q 439 1001 483 1001 m 439 1029 q 498 1056 475 1029 q 521 1117 521 1082 q 498 1178 521 1151 q 439 1204 475 1204 q 380 1178 403 1204 q 357 1117 357 1151 q 380 1056 357 1082 q 439 1029 403 1029 z "},"Ą":{"ha":907,"x_min":17,"x_max":904,"o":"m 17 0 l 17 28 l 129 36 l 426 950 l 454 950 l 760 35 l 904 28 l 904 0 l 560 0 l 560 28 l 717 36 l 615 343 l 267 343 l 169 35 l 292 28 l 292 0 l 17 0 m 606 371 l 438 883 l 275 371 l 606 371 m 660 -185 q 669 -128 660 -156 q 693 -76 678 -100 q 726 -31 708 -51 q 764 7 744 -10 l 790 7 q 724 -78 750 -29 q 699 -169 699 -126 q 725 -249 699 -222 q 792 -276 751 -276 q 838 -269 817 -276 q 883 -240 858 -261 l 897 -254 q 849 -294 879 -279 q 779 -310 819 -310 q 695 -278 731 -310 q 660 -185 660 -247 z "},"Æ":{"ha":1253,"x_min":17,"x_max":1190,"o":"m 17 0 l 17 28 l 129 38 l 589 906 l 485 913 l 485 940 l 1157 940 l 1171 728 l 1138 728 l 1115 910 l 694 910 q 692 707 692 810 q 692 490 692 604 l 965 490 l 979 625 l 1006 625 l 1006 325 l 979 325 l 965 460 l 692 460 q 692 226 692 328 q 694 31 692 124 l 1135 31 l 1157 213 l 1190 213 l 1176 0 l 499 0 l 499 28 l 647 36 q 650 224 650 135 q 650 368 650 313 l 344 368 l 168 36 l 292 28 l 292 0 l 17 0 m 650 396 l 650 903 l 631 903 l 360 396 l 650 396 z "},"Ç":{"ha":894,"x_min":89,"x_max":817,"o":"m 536 13 q 653 25 600 13 q 760 69 707 38 l 783 249 l 817 249 l 811 56 q 678 -3 742 13 q 539 -18 614 -18 q 354 17 438 -18 q 212 117 271 53 q 121 271 153 181 q 89 469 89 361 q 122 669 89 579 q 215 823 156 758 q 358 923 275 888 q 540 958 442 958 q 682 940 624 958 q 803 885 740 921 l 808 692 l 775 692 l 753 869 q 658 914 704 900 q 544 928 613 928 q 374 895 450 928 q 245 802 299 863 q 163 658 192 742 q 133 469 133 574 q 164 279 133 364 q 248 135 194 194 q 375 44 301 76 q 536 13 449 13 m 501 -107 l 519 0 l 547 0 l 536 -82 q 633 -116 599 -86 q 667 -190 667 -146 q 633 -267 667 -237 q 538 -297 600 -297 q 494 -293 514 -297 q 451 -282 474 -289 l 457 -261 q 497 -268 478 -265 q 532 -271 515 -271 q 603 -249 581 -271 q 625 -192 625 -228 q 598 -131 625 -154 q 501 -107 571 -107 z "},"Ć":{"ha":894,"x_min":89,"x_max":817,"o":"m 536 13 q 653 25 600 13 q 760 69 707 38 l 783 249 l 817 249 l 811 56 q 678 -3 742 13 q 539 -18 614 -18 q 354 17 438 -18 q 212 117 271 53 q 121 271 153 181 q 89 469 89 361 q 122 669 89 579 q 215 823 156 758 q 358 923 275 888 q 540 958 442 958 q 682 940 624 958 q 803 885 740 921 l 808 692 l 775 692 l 753 869 q 658 914 704 900 q 544 928 613 928 q 374 895 450 928 q 245 802 299 863 q 163 658 192 742 q 133 469 133 574 q 164 279 133 364 q 248 135 194 194 q 375 44 301 76 q 536 13 449 13 m 461 1029 q 535 1092 499 1061 q 604 1151 572 1124 q 646 1184 633 1175 q 669 1193 658 1193 q 688 1187 681 1193 q 694 1169 694 1181 q 681 1146 694 1157 q 632 1114 667 1135 q 553 1065 593 1090 q 472 1014 513 1039 l 461 1029 z "},"Č":{"ha":894,"x_min":89,"x_max":817,"o":"m 536 13 q 653 25 600 13 q 760 69 707 38 l 783 249 l 817 249 l 811 56 q 678 -3 742 13 q 539 -18 614 -18 q 354 17 438 -18 q 212 117 271 53 q 121 271 153 181 q 89 469 89 361 q 122 669 89 579 q 215 823 156 758 q 358 923 275 888 q 540 958 442 958 q 682 940 624 958 q 803 885 740 921 l 808 692 l 775 692 l 753 869 q 658 914 704 900 q 544 928 613 928 q 374 895 450 928 q 245 802 299 863 q 163 658 192 742 q 133 469 133 574 q 164 279 133 364 q 248 135 194 194 q 375 44 301 76 q 536 13 449 13 m 369 1201 l 522 1072 l 675 1201 l 690 1186 l 536 1028 l 508 1028 l 354 1186 l 369 1201 z "},"Ĉ":{"ha":894,"x_min":89,"x_max":817,"o":"m 536 13 q 653 25 600 13 q 760 69 707 38 l 783 249 l 817 249 l 811 56 q 678 -3 742 13 q 539 -18 614 -18 q 354 17 438 -18 q 212 117 271 53 q 121 271 153 181 q 89 469 89 361 q 122 669 89 579 q 215 823 156 758 q 358 923 275 888 q 540 958 442 958 q 682 940 624 958 q 803 885 740 921 l 808 692 l 775 692 l 753 869 q 658 914 704 900 q 544 928 613 928 q 374 895 450 928 q 245 802 299 863 q 163 658 192 742 q 133 469 133 574 q 164 279 133 364 q 248 135 194 194 q 375 44 301 76 q 536 13 449 13 m 525 1169 l 706 1014 l 694 1000 l 515 1118 l 336 1000 l 325 1014 l 506 1169 l 525 1169 z "},"Ċ":{"ha":894,"x_min":89,"x_max":817,"o":"m 536 13 q 653 25 600 13 q 760 69 707 38 l 783 249 l 817 249 l 811 56 q 678 -3 742 13 q 539 -18 614 -18 q 354 17 438 -18 q 212 117 271 53 q 121 271 153 181 q 89 469 89 361 q 122 669 89 579 q 215 823 156 758 q 358 923 275 888 q 540 958 442 958 q 682 940 624 958 q 803 885 740 921 l 808 692 l 775 692 l 753 869 q 658 914 704 900 q 544 928 613 928 q 374 895 450 928 q 245 802 299 863 q 163 658 192 742 q 133 469 133 574 q 164 279 133 364 q 248 135 194 194 q 375 44 301 76 q 536 13 449 13 m 501 1054 q 471 1067 485 1054 q 457 1099 457 1079 q 471 1131 457 1118 q 501 1143 485 1143 q 532 1131 518 1143 q 546 1099 546 1118 q 532 1067 546 1079 q 501 1054 518 1054 z "},"Ď":{"ha":985,"x_min":81,"x_max":896,"o":"m 232 472 l 232 493 q 232 705 232 604 q 229 904 232 806 l 81 913 l 81 940 l 438 940 q 776 819 657 940 q 896 469 896 697 q 865 277 896 364 q 776 129 835 190 q 628 34 717 68 q 425 0 540 0 l 81 0 l 81 28 l 229 36 q 232 240 232 135 q 232 472 232 344 m 274 472 q 274 236 274 342 q 276 31 274 131 l 407 31 q 603 62 519 31 q 742 150 688 93 q 824 288 797 207 q 851 469 851 369 q 744 797 851 685 q 428 910 638 910 l 276 910 q 274 708 274 810 q 274 493 274 606 l 274 472 m 294 1201 l 447 1072 l 600 1201 l 615 1186 l 461 1028 l 433 1028 l 279 1186 l 294 1201 z "},"Đ":{"ha":985,"x_min":81,"x_max":896,"o":"m 540 467 l 274 467 q 274 228 274 332 q 276 31 274 125 l 407 31 q 603 62 519 31 q 742 150 688 93 q 824 288 797 207 q 851 469 851 369 q 744 797 851 685 q 428 910 638 910 l 276 910 q 274 708 274 810 q 274 497 274 607 l 540 497 l 540 467 m 81 0 l 81 28 l 229 36 q 232 239 232 135 q 232 467 232 343 l 81 467 l 81 497 l 232 497 q 232 712 232 614 q 229 904 232 810 l 81 913 l 81 940 l 438 940 q 776 819 657 940 q 896 469 896 697 q 865 277 896 364 q 776 129 835 190 q 628 34 717 68 q 425 0 540 0 l 81 0 z "},"Ḍ":{"ha":985,"x_min":81,"x_max":896,"o":"m 232 472 l 232 493 q 232 705 232 604 q 229 904 232 806 l 81 913 l 81 940 l 438 940 q 776 819 657 940 q 896 469 896 697 q 865 277 896 364 q 776 129 835 190 q 628 34 717 68 q 425 0 540 0 l 81 0 l 81 28 l 229 36 q 232 240 232 135 q 232 472 232 344 m 274 472 q 274 236 274 342 q 276 31 274 131 l 407 31 q 603 62 519 31 q 742 150 688 93 q 824 288 797 207 q 851 469 851 369 q 744 797 851 685 q 428 910 638 910 l 276 910 q 274 708 274 810 q 274 493 274 606 l 274 472 m 489 -229 q 458 -217 472 -229 q 444 -185 444 -204 q 458 -153 444 -165 q 489 -140 472 -140 q 519 -153 506 -140 q 533 -185 533 -165 q 519 -217 533 -204 q 489 -229 506 -229 z "},"Ḏ":{"ha":985,"x_min":81,"x_max":896,"o":"m 232 472 l 232 493 q 232 705 232 604 q 229 904 232 806 l 81 913 l 81 940 l 438 940 q 776 819 657 940 q 896 469 896 697 q 865 277 896 364 q 776 129 835 190 q 628 34 717 68 q 425 0 540 0 l 81 0 l 81 28 l 229 36 q 232 240 232 135 q 232 472 232 344 m 274 472 q 274 236 274 342 q 276 31 274 131 l 407 31 q 603 62 519 31 q 742 150 688 93 q 824 288 797 207 q 851 469 851 369 q 744 797 851 685 q 428 910 638 910 l 276 910 q 274 708 274 810 q 274 493 274 606 l 274 472 m 322 -185 l 322 -149 l 656 -149 l 656 -185 l 322 -185 z "},"È":{"ha":835,"x_min":81,"x_max":772,"o":"m 232 431 l 232 510 q 232 708 232 610 q 229 904 232 806 l 81 913 l 81 940 l 739 940 l 753 728 l 719 728 l 697 910 l 276 910 q 274 707 274 810 q 274 490 274 604 l 547 490 l 561 625 l 588 625 l 588 325 l 561 325 l 547 460 l 274 460 q 274 226 274 328 q 276 31 274 124 l 717 31 l 739 213 l 772 213 l 758 0 l 81 0 l 81 28 l 229 36 q 232 233 232 135 q 232 431 232 331 m 492 1029 l 481 1014 q 400 1063 440 1038 q 322 1113 360 1089 q 273 1147 288 1136 q 258 1169 258 1157 q 265 1187 258 1181 q 283 1193 272 1193 q 307 1184 294 1193 q 349 1150 319 1175 q 417 1092 381 1122 q 492 1029 454 1061 z "},"É":{"ha":835,"x_min":81,"x_max":772,"o":"m 232 431 l 232 510 q 232 708 232 610 q 229 904 232 806 l 81 913 l 81 940 l 739 940 l 753 728 l 719 728 l 697 910 l 276 910 q 274 707 274 810 q 274 490 274 604 l 547 490 l 561 625 l 588 625 l 588 325 l 561 325 l 547 460 l 274 460 q 274 226 274 328 q 276 31 274 124 l 717 31 l 739 213 l 772 213 l 758 0 l 81 0 l 81 28 l 229 36 q 232 233 232 135 q 232 431 232 331 m 369 1029 q 444 1092 407 1061 q 513 1151 481 1124 q 554 1184 542 1175 q 578 1193 567 1193 q 596 1187 589 1193 q 603 1169 603 1181 q 589 1146 603 1157 q 540 1114 575 1135 q 461 1065 501 1090 q 381 1014 421 1039 l 369 1029 z "},"Ê":{"ha":835,"x_min":81,"x_max":772,"o":"m 232 431 l 232 510 q 232 708 232 610 q 229 904 232 806 l 81 913 l 81 940 l 739 940 l 753 728 l 719 728 l 697 910 l 276 910 q 274 707 274 810 q 274 490 274 604 l 547 490 l 561 625 l 588 625 l 588 325 l 561 325 l 547 460 l 274 460 q 274 226 274 328 q 276 31 274 124 l 717 31 l 739 213 l 772 213 l 758 0 l 81 0 l 81 28 l 229 36 q 232 233 232 135 q 232 431 232 331 m 474 1169 l 654 1014 l 643 1000 l 464 1118 l 285 1000 l 274 1014 l 454 1169 l 474 1169 z "},"Ě":{"ha":835,"x_min":81,"x_max":772,"o":"m 232 431 l 232 510 q 232 708 232 610 q 229 904 232 806 l 81 913 l 81 940 l 739 940 l 753 728 l 719 728 l 697 910 l 276 910 q 274 707 274 810 q 274 490 274 604 l 547 490 l 561 625 l 588 625 l 588 325 l 561 325 l 547 460 l 274 460 q 274 226 274 328 q 276 31 274 124 l 717 31 l 739 213 l 772 213 l 758 0 l 81 0 l 81 28 l 229 36 q 232 233 232 135 q 232 431 232 331 m 315 1201 l 468 1072 l 621 1201 l 636 1186 l 482 1028 l 454 1028 l 300 1186 l 315 1201 z "},"Ë":{"ha":835,"x_min":81,"x_max":772,"o":"m 232 431 l 232 510 q 232 708 232 610 q 229 904 232 806 l 81 913 l 81 940 l 739 940 l 753 728 l 719 728 l 697 910 l 276 910 q 274 707 274 810 q 274 490 274 604 l 547 490 l 561 625 l 588 625 l 588 325 l 561 325 l 547 460 l 274 460 q 274 226 274 328 q 276 31 274 124 l 717 31 l 739 213 l 772 213 l 758 0 l 81 0 l 81 28 l 229 36 q 232 233 232 135 q 232 431 232 331 m 318 1050 q 288 1062 301 1050 q 274 1094 274 1074 q 288 1127 274 1115 q 318 1139 301 1139 q 349 1127 336 1139 q 363 1094 363 1115 q 349 1062 363 1074 q 318 1050 336 1050 m 604 1050 q 573 1062 586 1050 q 560 1094 560 1074 q 573 1127 560 1115 q 604 1139 586 1139 q 635 1127 621 1139 q 649 1094 649 1115 q 635 1062 649 1074 q 604 1050 621 1050 z "},"Ē":{"ha":835,"x_min":81,"x_max":772,"o":"m 232 431 l 232 510 q 232 708 232 610 q 229 904 232 806 l 81 913 l 81 940 l 739 940 l 753 728 l 719 728 l 697 910 l 276 910 q 274 707 274 810 q 274 490 274 604 l 547 490 l 561 625 l 588 625 l 588 325 l 561 325 l 547 460 l 274 460 q 274 226 274 328 q 276 31 274 124 l 717 31 l 739 213 l 772 213 l 758 0 l 81 0 l 81 28 l 229 36 q 232 233 232 135 q 232 431 232 331 m 265 1065 l 265 1101 l 671 1101 l 671 1065 l 265 1065 z "},"Ė":{"ha":835,"x_min":81,"x_max":772,"o":"m 232 431 l 232 510 q 232 708 232 610 q 229 904 232 806 l 81 913 l 81 940 l 739 940 l 753 728 l 719 728 l 697 910 l 276 910 q 274 707 274 810 q 274 490 274 604 l 547 490 l 561 625 l 588 625 l 588 325 l 561 325 l 547 460 l 274 460 q 274 226 274 328 q 276 31 274 124 l 717 31 l 739 213 l 772 213 l 758 0 l 81 0 l 81 28 l 229 36 q 232 233 232 135 q 232 431 232 331 m 468 1054 q 438 1067 451 1054 q 424 1099 424 1079 q 438 1131 424 1118 q 468 1143 451 1143 q 499 1131 485 1143 q 513 1099 513 1118 q 499 1067 513 1079 q 468 1054 485 1054 z "},"Ę":{"ha":835,"x_min":81,"x_max":792,"o":"m 232 431 l 232 510 q 232 708 232 610 q 229 904 232 806 l 81 913 l 81 940 l 739 940 l 753 728 l 719 728 l 697 910 l 276 910 q 274 707 274 810 q 274 490 274 604 l 547 490 l 561 625 l 588 625 l 588 325 l 561 325 l 547 460 l 274 460 q 274 226 274 328 q 276 31 274 124 l 717 31 l 739 213 l 772 213 l 758 0 l 81 0 l 81 28 l 229 36 q 232 233 232 135 q 232 431 232 331 m 554 -185 q 563 -128 554 -156 q 588 -76 572 -100 q 621 -31 603 -51 q 658 7 639 -10 l 685 7 q 619 -78 644 -29 q 593 -169 593 -126 q 619 -249 593 -222 q 686 -276 646 -276 q 732 -269 711 -276 q 778 -240 753 -261 l 792 -254 q 744 -294 774 -279 q 674 -310 714 -310 q 590 -278 625 -310 q 554 -185 554 -247 z "},"Ĕ":{"ha":835,"x_min":81,"x_max":772,"o":"m 232 431 l 232 510 q 232 708 232 610 q 229 904 232 806 l 81 913 l 81 940 l 739 940 l 753 728 l 719 728 l 697 910 l 276 910 q 274 707 274 810 q 274 490 274 604 l 547 490 l 561 625 l 588 625 l 588 325 l 561 325 l 547 460 l 274 460 q 274 226 274 328 q 276 31 274 124 l 717 31 l 739 213 l 772 213 l 758 0 l 81 0 l 81 28 l 229 36 q 232 233 232 135 q 232 431 232 331 m 267 1186 l 288 1193 q 347 1097 307 1132 q 453 1061 386 1061 q 559 1097 519 1061 q 618 1193 599 1132 l 639 1186 q 618 1128 632 1157 q 581 1076 604 1100 q 526 1038 558 1053 q 453 1024 494 1024 q 379 1038 411 1024 q 324 1076 347 1053 q 287 1128 301 1100 q 267 1186 272 1157 z "},"Ế":{"ha":835,"x_min":81,"x_max":772,"o":"m 232 431 l 232 510 q 232 708 232 610 q 229 904 232 806 l 81 913 l 81 940 l 739 940 l 753 728 l 719 728 l 697 910 l 276 910 q 274 707 274 810 q 274 490 274 604 l 547 490 l 561 625 l 588 625 l 588 325 l 561 325 l 547 460 l 274 460 q 274 226 274 328 q 276 31 274 124 l 717 31 l 739 213 l 772 213 l 758 0 l 81 0 l 81 28 l 229 36 q 232 233 232 135 q 232 431 232 331 m 281 1000 l 269 1014 l 450 1169 l 469 1169 l 650 1014 l 639 1000 l 460 1118 l 281 1000 m 607 1090 l 593 1104 l 676 1206 q 692 1222 685 1217 q 710 1228 699 1228 q 733 1204 733 1228 q 724 1184 733 1193 q 707 1168 715 1175 l 607 1090 z "},"Ệ":{"ha":835,"x_min":81,"x_max":772,"o":"m 232 431 l 232 510 q 232 708 232 610 q 229 904 232 806 l 81 913 l 81 940 l 739 940 l 753 728 l 719 728 l 697 910 l 276 910 q 274 707 274 810 q 274 490 274 604 l 547 490 l 561 625 l 588 625 l 588 325 l 561 325 l 547 460 l 274 460 q 274 226 274 328 q 276 31 274 124 l 717 31 l 739 213 l 772 213 l 758 0 l 81 0 l 81 28 l 229 36 q 232 233 232 135 q 232 431 232 331 m 474 1169 l 654 1014 l 643 1000 l 464 1118 l 285 1000 l 274 1014 l 454 1169 l 474 1169 m 475 -229 q 444 -217 458 -229 q 431 -185 431 -204 q 444 -153 431 -165 q 475 -140 458 -140 q 506 -153 492 -140 q 519 -185 519 -165 q 506 -217 519 -204 q 475 -229 492 -229 z "},"Ề":{"ha":835,"x_min":81,"x_max":772,"o":"m 232 431 l 232 510 q 232 708 232 610 q 229 904 232 806 l 81 913 l 81 940 l 739 940 l 753 728 l 719 728 l 697 910 l 276 910 q 274 707 274 810 q 274 490 274 604 l 547 490 l 561 625 l 588 625 l 588 325 l 561 325 l 547 460 l 274 460 q 274 226 274 328 q 276 31 274 124 l 717 31 l 739 213 l 772 213 l 758 0 l 81 0 l 81 28 l 229 36 q 232 233 232 135 q 232 431 232 331 m 639 1000 l 460 1118 l 281 1000 l 269 1014 l 450 1169 l 469 1169 l 650 1014 l 639 1000 m 313 1090 l 213 1168 q 195 1184 204 1175 q 186 1204 186 1193 q 210 1228 186 1228 q 228 1222 221 1228 q 243 1206 235 1217 l 326 1104 l 313 1090 z "},"Ể":{"ha":835,"x_min":81,"x_max":772,"o":"m 232 431 l 232 510 q 232 708 232 610 q 229 904 232 806 l 81 913 l 81 940 l 739 940 l 753 728 l 719 728 l 697 910 l 276 910 q 274 707 274 810 q 274 490 274 604 l 547 490 l 561 625 l 588 625 l 588 325 l 561 325 l 547 460 l 274 460 q 274 226 274 328 q 276 31 274 124 l 717 31 l 739 213 l 772 213 l 758 0 l 81 0 l 81 28 l 229 36 q 232 233 232 135 q 232 431 232 331 m 274 1000 l 263 1014 l 443 1169 l 463 1169 l 643 1014 l 632 1000 l 453 1118 l 274 1000 m 589 1114 q 669 1179 669 1132 q 640 1222 669 1210 q 536 1242 610 1233 l 540 1276 q 665 1247 624 1269 q 707 1183 707 1225 q 677 1124 707 1149 q 594 1093 647 1100 l 589 1114 z "},"Ễ":{"ha":835,"x_min":81,"x_max":772,"o":"m 232 431 l 232 510 q 232 708 232 610 q 229 904 232 806 l 81 913 l 81 940 l 739 940 l 753 728 l 719 728 l 697 910 l 276 910 q 274 707 274 810 q 274 490 274 604 l 547 490 l 561 625 l 588 625 l 588 325 l 561 325 l 547 460 l 274 460 q 274 226 274 328 q 276 31 274 124 l 717 31 l 739 213 l 772 213 l 758 0 l 81 0 l 81 28 l 229 36 q 232 233 232 135 q 232 431 232 331 m 271 1000 l 263 1014 l 443 1142 l 463 1142 l 643 1014 l 635 1000 l 453 1092 l 271 1000 m 247 1176 q 286 1249 257 1221 q 363 1278 315 1278 q 421 1266 397 1278 q 464 1240 444 1254 q 503 1217 486 1225 q 547 1208 519 1208 q 605 1226 583 1208 q 639 1278 626 1243 l 658 1272 q 619 1200 649 1228 q 543 1172 590 1172 q 484 1183 507 1172 q 442 1208 461 1193 q 403 1233 419 1224 q 358 1242 386 1242 q 301 1224 322 1242 q 267 1172 279 1207 l 247 1176 z "},"Ẹ":{"ha":835,"x_min":81,"x_max":772,"o":"m 232 431 l 232 510 q 232 708 232 610 q 229 904 232 806 l 81 913 l 81 940 l 739 940 l 753 728 l 719 728 l 697 910 l 276 910 q 274 707 274 810 q 274 490 274 604 l 547 490 l 561 625 l 588 625 l 588 325 l 561 325 l 547 460 l 274 460 q 274 226 274 328 q 276 31 274 124 l 717 31 l 739 213 l 772 213 l 758 0 l 81 0 l 81 28 l 229 36 q 232 233 232 135 q 232 431 232 331 m 475 -229 q 444 -217 458 -229 q 431 -185 431 -204 q 444 -153 431 -165 q 475 -140 458 -140 q 506 -153 492 -140 q 519 -185 519 -165 q 506 -217 519 -204 q 475 -229 492 -229 z "},"Ẻ":{"ha":835,"x_min":81,"x_max":772,"o":"m 232 431 l 232 510 q 232 708 232 610 q 229 904 232 806 l 81 913 l 81 940 l 739 940 l 753 728 l 719 728 l 697 910 l 276 910 q 274 707 274 810 q 274 490 274 604 l 547 490 l 561 625 l 588 625 l 588 325 l 561 325 l 547 460 l 274 460 q 274 226 274 328 q 276 31 274 124 l 717 31 l 739 213 l 772 213 l 758 0 l 81 0 l 81 28 l 229 36 q 232 233 232 135 q 232 431 232 331 m 428 1003 l 422 1024 q 494 1051 472 1035 q 517 1093 517 1067 q 512 1118 517 1107 q 494 1138 507 1129 q 459 1152 482 1146 q 400 1165 436 1158 l 406 1200 q 522 1163 489 1189 q 554 1097 554 1138 q 521 1035 554 1061 q 428 1003 488 1010 z "},"Ẽ":{"ha":835,"x_min":81,"x_max":772,"o":"m 232 431 l 232 510 q 232 708 232 610 q 229 904 232 806 l 81 913 l 81 940 l 739 940 l 753 728 l 719 728 l 697 910 l 276 910 q 274 707 274 810 q 274 490 274 604 l 547 490 l 561 625 l 588 625 l 588 325 l 561 325 l 547 460 l 274 460 q 274 226 274 328 q 276 31 274 124 l 717 31 l 739 213 l 772 213 l 758 0 l 81 0 l 81 28 l 229 36 q 232 233 232 135 q 232 431 232 331 m 225 1046 q 267 1138 235 1103 q 351 1174 300 1174 q 419 1156 392 1174 q 465 1114 446 1138 q 507 1076 488 1090 q 558 1061 526 1061 q 619 1087 596 1061 q 658 1163 643 1113 l 681 1156 q 638 1065 671 1100 q 553 1029 606 1029 q 486 1047 513 1029 q 440 1088 460 1065 q 399 1126 418 1111 q 347 1142 379 1142 q 286 1115 310 1142 q 247 1039 263 1089 l 225 1046 z "},"Ğ":{"ha":951,"x_min":89,"x_max":940,"o":"m 832 138 l 832 67 q 758 27 793 43 q 689 1 724 11 q 618 -14 654 -10 q 542 -18 582 -18 q 356 17 439 -18 q 213 117 272 53 q 122 271 154 181 q 89 469 89 361 q 122 669 89 579 q 216 823 156 758 q 360 923 276 888 q 543 958 443 958 q 697 937 632 958 q 824 876 761 915 l 829 683 l 796 683 l 774 863 q 672 911 724 894 q 547 928 621 928 q 376 895 453 928 q 246 802 300 863 q 163 658 192 742 q 133 469 133 574 q 163 281 133 365 q 244 137 192 196 q 372 45 297 78 q 539 13 447 13 q 671 29 610 13 q 790 82 732 46 l 790 138 q 790 273 790 206 q 788 408 789 340 l 621 417 l 621 444 l 940 444 l 940 417 l 835 408 q 833 286 833 350 q 832 138 832 222 m 322 1186 l 343 1193 q 402 1097 363 1132 q 508 1061 442 1061 q 615 1097 575 1061 q 674 1193 654 1132 l 694 1186 q 674 1128 688 1157 q 637 1076 660 1100 q 582 1038 614 1053 q 508 1024 550 1024 q 435 1038 467 1024 q 380 1076 403 1053 q 342 1128 357 1100 q 322 1186 328 1157 z "},"Ġ":{"ha":951,"x_min":89,"x_max":940,"o":"m 832 138 l 832 67 q 758 27 793 43 q 689 1 724 11 q 618 -14 654 -10 q 542 -18 582 -18 q 356 17 439 -18 q 213 117 272 53 q 122 271 154 181 q 89 469 89 361 q 122 669 89 579 q 216 823 156 758 q 360 923 276 888 q 543 958 443 958 q 697 937 632 958 q 824 876 761 915 l 829 683 l 796 683 l 774 863 q 672 911 724 894 q 547 928 621 928 q 376 895 453 928 q 246 802 300 863 q 163 658 192 742 q 133 469 133 574 q 163 281 133 365 q 244 137 192 196 q 372 45 297 78 q 539 13 447 13 q 671 29 610 13 q 790 82 732 46 l 790 138 q 790 273 790 206 q 788 408 789 340 l 621 417 l 621 444 l 940 444 l 940 417 l 835 408 q 833 286 833 350 q 832 138 832 222 m 522 1054 q 492 1067 506 1054 q 478 1099 478 1079 q 492 1131 478 1118 q 522 1143 506 1143 q 553 1131 539 1143 q 567 1099 567 1118 q 553 1067 567 1079 q 522 1054 539 1054 z "},"Ģ":{"ha":951,"x_min":89,"x_max":940,"o":"m 832 138 l 832 67 q 758 27 793 43 q 689 1 724 11 q 618 -14 654 -10 q 542 -18 582 -18 q 356 17 439 -18 q 213 117 272 53 q 122 271 154 181 q 89 469 89 361 q 122 669 89 579 q 216 823 156 758 q 360 923 276 888 q 543 958 443 958 q 697 937 632 958 q 824 876 761 915 l 829 683 l 796 683 l 774 863 q 672 911 724 894 q 547 928 621 928 q 376 895 453 928 q 246 802 300 863 q 163 658 192 742 q 133 469 133 574 q 163 281 133 365 q 244 137 192 196 q 372 45 297 78 q 539 13 447 13 q 671 29 610 13 q 790 82 732 46 l 790 138 q 790 273 790 206 q 788 408 789 340 l 621 417 l 621 444 l 940 444 l 940 417 l 835 408 q 833 286 833 350 q 832 138 832 222 m 588 -144 q 576 -205 588 -176 q 543 -256 564 -233 q 495 -296 522 -279 q 439 -321 468 -312 l 431 -299 q 507 -252 478 -281 q 549 -187 536 -224 q 510 -164 525 -179 q 496 -133 496 -149 q 508 -103 496 -112 q 539 -93 521 -93 q 561 -97 550 -93 q 581 -108 572 -100 q 588 -144 588 -122 z "},"Ǧ":{"ha":951,"x_min":89,"x_max":940,"o":"m 832 138 l 832 67 q 758 27 793 43 q 689 1 724 11 q 618 -14 654 -10 q 542 -18 582 -18 q 356 17 439 -18 q 213 117 272 53 q 122 271 154 181 q 89 469 89 361 q 122 669 89 579 q 216 823 156 758 q 360 923 276 888 q 543 958 443 958 q 697 937 632 958 q 824 876 761 915 l 829 683 l 796 683 l 774 863 q 672 911 724 894 q 547 928 621 928 q 376 895 453 928 q 246 802 300 863 q 163 658 192 742 q 133 469 133 574 q 163 281 133 365 q 244 137 192 196 q 372 45 297 78 q 539 13 447 13 q 671 29 610 13 q 790 82 732 46 l 790 138 q 790 273 790 206 q 788 408 789 340 l 621 417 l 621 444 l 940 444 l 940 417 l 835 408 q 833 286 833 350 q 832 138 832 222 m 382 1201 l 535 1072 l 688 1201 l 703 1186 l 549 1028 l 521 1028 l 367 1186 l 382 1201 z "},"Ĝ":{"ha":951,"x_min":89,"x_max":940,"o":"m 832 138 l 832 67 q 758 27 793 43 q 689 1 724 11 q 618 -14 654 -10 q 542 -18 582 -18 q 356 17 439 -18 q 213 117 272 53 q 122 271 154 181 q 89 469 89 361 q 122 669 89 579 q 216 823 156 758 q 360 923 276 888 q 543 958 443 958 q 697 937 632 958 q 824 876 761 915 l 829 683 l 796 683 l 774 863 q 672 911 724 894 q 547 928 621 928 q 376 895 453 928 q 246 802 300 863 q 163 658 192 742 q 133 469 133 574 q 163 281 133 365 q 244 137 192 196 q 372 45 297 78 q 539 13 447 13 q 671 29 610 13 q 790 82 732 46 l 790 138 q 790 273 790 206 q 788 408 789 340 l 621 417 l 621 444 l 940 444 l 940 417 l 835 408 q 833 286 833 350 q 832 138 832 222 m 544 1169 l 725 1014 l 714 1000 l 535 1118 l 356 1000 l 344 1014 l 525 1169 l 544 1169 z "},"Ḡ":{"ha":951,"x_min":89,"x_max":940,"o":"m 832 138 l 832 67 q 758 27 793 43 q 689 1 724 11 q 618 -14 654 -10 q 542 -18 582 -18 q 356 17 439 -18 q 213 117 272 53 q 122 271 154 181 q 89 469 89 361 q 122 669 89 579 q 216 823 156 758 q 360 923 276 888 q 543 958 443 958 q 697 937 632 958 q 824 876 761 915 l 829 683 l 796 683 l 774 863 q 672 911 724 894 q 547 928 621 928 q 376 895 453 928 q 246 802 300 863 q 163 658 192 742 q 133 469 133 574 q 163 281 133 365 q 244 137 192 196 q 372 45 297 78 q 539 13 447 13 q 671 29 610 13 q 790 82 732 46 l 790 138 q 790 273 790 206 q 788 408 789 340 l 621 417 l 621 444 l 940 444 l 940 417 l 835 408 q 833 286 833 350 q 832 138 832 222 m 332 1065 l 332 1101 l 738 1101 l 738 1065 l 332 1065 z "},"Ħ":{"ha":1104,"x_min":53,"x_max":1051,"o":"m 274 510 l 274 486 l 829 486 l 829 510 l 829 696 l 274 696 l 274 510 m 232 431 l 232 510 l 232 696 l 53 696 l 53 726 l 232 726 q 231 815 232 771 q 229 904 231 860 l 81 913 l 81 940 l 425 940 l 425 913 l 276 904 q 274 815 275 860 q 274 726 274 771 l 829 726 q 828 815 829 771 q 826 904 828 860 l 679 913 l 679 940 l 1024 940 l 1024 913 l 874 904 q 872 815 872 860 q 871 726 871 771 l 1051 726 l 1051 696 l 871 696 l 871 510 l 871 431 q 871 233 871 331 q 874 36 871 135 l 1024 28 l 1024 0 l 679 0 l 679 28 l 826 36 q 829 237 829 135 q 829 456 829 339 l 274 456 q 274 228 274 328 q 276 36 274 128 l 425 28 l 425 0 l 81 0 l 81 28 l 229 36 q 232 233 232 135 q 232 431 232 331 z "},"Ḫ":{"ha":1103,"x_min":81,"x_max":1022,"o":"m 232 431 l 232 510 q 232 708 232 610 q 229 904 232 806 l 81 913 l 81 940 l 425 940 l 425 913 l 276 904 q 274 708 274 806 q 274 514 274 610 l 829 514 q 829 714 829 618 q 826 904 829 810 l 678 913 l 678 940 l 1022 940 l 1022 913 l 874 904 q 871 708 871 806 q 871 510 871 610 l 871 431 q 871 233 871 331 q 874 36 871 135 l 1022 28 l 1022 0 l 678 0 l 678 28 l 826 36 q 829 242 829 135 q 829 483 829 349 l 274 483 q 274 350 274 411 q 274 235 274 289 q 274 132 274 181 q 276 36 275 83 l 425 28 l 425 0 l 81 0 l 81 28 l 229 36 q 232 233 232 135 q 232 431 232 331 m 356 -103 l 376 -97 q 438 -215 397 -169 q 551 -261 479 -261 q 665 -215 624 -261 q 726 -97 706 -169 l 747 -103 q 683 -244 735 -190 q 551 -299 631 -299 q 420 -244 472 -299 q 356 -103 368 -190 z "},"Ĥ":{"ha":1103,"x_min":81,"x_max":1022,"o":"m 232 431 l 232 510 q 232 708 232 610 q 229 904 232 806 l 81 913 l 81 940 l 425 940 l 425 913 l 276 904 q 274 708 274 806 q 274 514 274 610 l 829 514 q 829 714 829 618 q 826 904 829 810 l 678 913 l 678 940 l 1022 940 l 1022 913 l 874 904 q 871 708 871 806 q 871 510 871 610 l 871 431 q 871 233 871 331 q 874 36 871 135 l 1022 28 l 1022 0 l 678 0 l 678 28 l 826 36 q 829 242 829 135 q 829 483 829 349 l 274 483 q 274 350 274 411 q 274 235 274 289 q 274 132 274 181 q 276 36 275 83 l 425 28 l 425 0 l 81 0 l 81 28 l 229 36 q 232 233 232 135 q 232 431 232 331 m 561 1169 l 742 1014 l 731 1000 l 551 1118 l 372 1000 l 361 1014 l 542 1169 l 561 1169 z "},"Ḥ":{"ha":1103,"x_min":81,"x_max":1022,"o":"m 232 431 l 232 510 q 232 708 232 610 q 229 904 232 806 l 81 913 l 81 940 l 425 940 l 425 913 l 276 904 q 274 708 274 806 q 274 514 274 610 l 829 514 q 829 714 829 618 q 826 904 829 810 l 678 913 l 678 940 l 1022 940 l 1022 913 l 874 904 q 871 708 871 806 q 871 510 871 610 l 871 431 q 871 233 871 331 q 874 36 871 135 l 1022 28 l 1022 0 l 678 0 l 678 28 l 826 36 q 829 242 829 135 q 829 483 829 349 l 274 483 q 274 350 274 411 q 274 235 274 289 q 274 132 274 181 q 276 36 275 83 l 425 28 l 425 0 l 81 0 l 81 28 l 229 36 q 232 233 232 135 q 232 431 232 331 m 551 -229 q 521 -217 535 -229 q 507 -185 507 -204 q 521 -153 507 -165 q 551 -140 535 -140 q 582 -153 568 -140 q 596 -185 596 -165 q 582 -217 596 -204 q 551 -229 568 -229 z "},"Ì":{"ha":506,"x_min":81,"x_max":425,"o":"m 232 431 l 232 510 q 232 708 232 610 q 229 904 232 806 l 81 913 l 81 940 l 425 940 l 425 913 l 276 904 q 274 708 274 806 q 274 510 274 610 l 274 431 q 274 233 274 331 q 276 36 274 135 l 425 28 l 425 0 l 81 0 l 81 28 l 229 36 q 232 233 232 135 q 232 431 232 331 m 314 1029 l 303 1014 q 222 1063 263 1038 q 144 1113 182 1089 q 95 1147 110 1136 q 81 1169 81 1157 q 88 1187 81 1181 q 106 1193 94 1193 q 129 1184 117 1193 q 171 1150 142 1175 q 240 1092 203 1122 q 314 1029 276 1061 z "},"Í":{"ha":506,"x_min":81,"x_max":425,"o":"m 232 431 l 232 510 q 232 708 232 610 q 229 904 232 806 l 81 913 l 81 940 l 425 940 l 425 913 l 276 904 q 274 708 274 806 q 274 510 274 610 l 274 431 q 274 233 274 331 q 276 36 274 135 l 425 28 l 425 0 l 81 0 l 81 28 l 229 36 q 232 233 232 135 q 232 431 232 331 m 192 1029 q 266 1092 229 1061 q 335 1151 303 1124 q 376 1184 364 1175 q 400 1193 389 1193 q 418 1187 411 1193 q 425 1169 425 1181 q 411 1146 425 1157 q 363 1114 397 1135 q 283 1065 324 1090 q 203 1014 243 1039 l 192 1029 z "},"Î":{"ha":506,"x_min":63,"x_max":443,"o":"m 232 431 l 232 510 q 232 708 232 610 q 229 904 232 806 l 81 913 l 81 940 l 425 940 l 425 913 l 276 904 q 274 708 274 806 q 274 510 274 610 l 274 431 q 274 233 274 331 q 276 36 274 135 l 425 28 l 425 0 l 81 0 l 81 28 l 229 36 q 232 233 232 135 q 232 431 232 331 m 263 1169 l 443 1014 l 432 1000 l 253 1118 l 74 1000 l 63 1014 l 243 1169 l 263 1169 z "},"Ï":{"ha":506,"x_min":65,"x_max":440,"o":"m 232 431 l 232 510 q 232 708 232 610 q 229 904 232 806 l 81 913 l 81 940 l 425 940 l 425 913 l 276 904 q 274 708 274 806 q 274 510 274 610 l 274 431 q 274 233 274 331 q 276 36 274 135 l 425 28 l 425 0 l 81 0 l 81 28 l 229 36 q 232 233 232 135 q 232 431 232 331 m 110 1050 q 79 1062 93 1050 q 65 1094 65 1074 q 79 1127 65 1115 q 110 1139 93 1139 q 141 1127 128 1139 q 154 1094 154 1115 q 141 1062 154 1074 q 110 1050 128 1050 m 396 1050 q 365 1062 378 1050 q 351 1094 351 1074 q 365 1127 351 1115 q 396 1139 378 1139 q 426 1127 413 1139 q 440 1094 440 1115 q 426 1062 440 1074 q 396 1050 413 1050 z "},"Ī":{"ha":506,"x_min":50,"x_max":456,"o":"m 232 431 l 232 510 q 232 708 232 610 q 229 904 232 806 l 81 913 l 81 940 l 425 940 l 425 913 l 276 904 q 274 708 274 806 q 274 510 274 610 l 274 431 q 274 233 274 331 q 276 36 274 135 l 425 28 l 425 0 l 81 0 l 81 28 l 229 36 q 232 233 232 135 q 232 431 232 331 m 50 1065 l 50 1101 l 456 1101 l 456 1065 l 50 1065 z "},"İ":{"ha":506,"x_min":81,"x_max":425,"o":"m 232 431 l 232 510 q 232 708 232 610 q 229 904 232 806 l 81 913 l 81 940 l 425 940 l 425 913 l 276 904 q 274 708 274 806 q 274 510 274 610 l 274 431 q 274 233 274 331 q 276 36 274 135 l 425 28 l 425 0 l 81 0 l 81 28 l 229 36 q 232 233 232 135 q 232 431 232 331 m 253 1054 q 222 1067 236 1054 q 208 1099 208 1079 q 222 1131 208 1118 q 253 1143 236 1143 q 283 1131 269 1143 q 297 1099 297 1118 q 283 1067 297 1079 q 253 1054 269 1054 z "},"Į":{"ha":506,"x_min":81,"x_max":425,"o":"m 232 431 l 232 510 q 232 708 232 610 q 229 904 232 806 l 81 913 l 81 940 l 425 940 l 425 913 l 276 904 q 274 708 274 806 q 274 510 274 610 l 274 431 q 274 233 274 331 q 276 36 274 135 l 425 28 l 425 0 l 81 0 l 81 28 l 229 36 q 232 233 232 135 q 232 431 232 331 m 154 -185 q 163 -128 154 -156 q 188 -76 172 -100 q 221 -31 203 -51 q 258 7 239 -10 l 285 7 q 219 -78 244 -29 q 193 -169 193 -126 q 219 -249 193 -222 q 286 -276 246 -276 q 332 -269 311 -276 q 378 -240 353 -261 l 392 -254 q 344 -294 374 -279 q 274 -310 314 -310 q 190 -278 225 -310 q 154 -185 154 -247 z "},"Ǐ":{"ha":506,"x_min":81,"x_max":425,"o":"m 232 431 l 232 510 q 232 708 232 610 q 229 904 232 806 l 81 913 l 81 940 l 425 940 l 425 913 l 276 904 q 274 708 274 806 q 274 510 274 610 l 274 431 q 274 233 274 331 q 276 36 274 135 l 425 28 l 425 0 l 81 0 l 81 28 l 229 36 q 232 233 232 135 q 232 431 232 331 m 100 1201 l 253 1072 l 406 1201 l 421 1186 l 267 1028 l 239 1028 l 85 1186 l 100 1201 z "},"Ị":{"ha":506,"x_min":81,"x_max":425,"o":"m 232 431 l 232 510 q 232 708 232 610 q 229 904 232 806 l 81 913 l 81 940 l 425 940 l 425 913 l 276 904 q 274 708 274 806 q 274 510 274 610 l 274 431 q 274 233 274 331 q 276 36 274 135 l 425 28 l 425 0 l 81 0 l 81 28 l 229 36 q 232 233 232 135 q 232 431 232 331 m 254 -229 q 224 -217 238 -229 q 210 -185 210 -204 q 224 -153 210 -165 q 254 -140 238 -140 q 285 -153 271 -140 q 299 -185 299 -165 q 285 -217 299 -204 q 254 -229 271 -229 z "},"Ỉ":{"ha":506,"x_min":81,"x_max":425,"o":"m 232 431 l 232 510 q 232 708 232 610 q 229 904 232 806 l 81 913 l 81 940 l 425 940 l 425 913 l 276 904 q 274 708 274 806 q 274 510 274 610 l 274 431 q 274 233 274 331 q 276 36 274 135 l 425 28 l 425 0 l 81 0 l 81 28 l 229 36 q 232 233 232 135 q 232 431 232 331 m 235 1003 l 229 1024 q 301 1051 279 1035 q 324 1093 324 1067 q 319 1118 324 1107 q 301 1138 314 1129 q 266 1152 289 1146 q 207 1165 243 1158 l 213 1200 q 328 1163 296 1189 q 361 1097 361 1138 q 328 1035 361 1061 q 235 1003 294 1010 z "},"Ĩ":{"ha":506,"x_min":25,"x_max":481,"o":"m 232 431 l 232 510 q 232 708 232 610 q 229 904 232 806 l 81 913 l 81 940 l 425 940 l 425 913 l 276 904 q 274 708 274 806 q 274 510 274 610 l 274 431 q 274 233 274 331 q 276 36 274 135 l 425 28 l 425 0 l 81 0 l 81 28 l 229 36 q 232 233 232 135 q 232 431 232 331 m 25 1046 q 67 1138 35 1103 q 151 1174 100 1174 q 219 1156 192 1174 q 265 1114 246 1138 q 307 1076 288 1090 q 358 1061 326 1061 q 419 1087 396 1061 q 458 1163 443 1113 l 481 1156 q 438 1065 471 1100 q 353 1029 406 1029 q 286 1047 313 1029 q 240 1088 260 1065 q 199 1126 218 1111 q 147 1142 179 1142 q 86 1115 110 1142 q 47 1039 63 1089 l 25 1046 z "},"Ĵ":{"ha":494,"x_min":-46,"x_max":453,"o":"m 83 913 l 83 940 l 442 940 l 442 913 l 294 904 q 292 705 292 804 q 292 503 292 606 l 292 275 q 291 210 292 236 q 290 164 290 183 q 288 130 289 144 q 288 103 288 115 q 263 -25 285 32 q 208 -122 242 -82 q 129 -183 174 -161 q 35 -204 85 -204 q -46 -175 -31 -204 q -26 -150 -42 -158 q 10 -142 -10 -142 q 48 -147 29 -142 q 90 -165 67 -151 l 100 -171 q 150 -140 124 -161 q 198 -83 176 -119 q 234 6 219 -47 q 249 132 249 58 q 249 155 249 142 q 249 197 249 168 q 250 274 250 225 q 250 406 250 324 q 249 609 250 488 q 246 904 247 731 l 83 913 m 272 1169 l 453 1014 l 442 1000 l 263 1118 l 83 1000 l 72 1014 l 253 1169 l 272 1169 z "},"Ķ":{"ha":922,"x_min":81,"x_max":929,"o":"m 232 431 l 232 510 q 232 708 232 610 q 229 904 232 806 l 81 913 l 81 940 l 425 940 l 425 913 l 276 904 q 274 708 274 806 q 274 510 274 610 l 274 342 l 739 903 l 575 913 l 575 940 l 889 940 l 889 913 l 782 904 l 494 558 l 800 36 l 929 28 l 929 0 l 613 0 l 613 28 l 753 36 l 464 522 l 274 293 q 274 183 274 249 q 276 36 274 118 l 425 28 l 425 0 l 81 0 l 81 28 l 229 36 q 232 233 232 135 q 232 431 232 331 m 557 -144 q 545 -205 557 -176 q 513 -256 533 -233 q 465 -296 492 -279 q 408 -321 438 -312 l 400 -299 q 476 -252 447 -281 q 518 -187 506 -224 q 480 -164 494 -179 q 465 -133 465 -149 q 478 -103 465 -112 q 508 -93 490 -93 q 531 -97 519 -93 q 550 -108 542 -100 q 557 -144 557 -122 z "},"Ĺ":{"ha":783,"x_min":81,"x_max":742,"o":"m 232 510 q 232 708 232 610 q 229 904 232 806 l 81 913 l 81 940 l 425 940 l 425 913 l 276 904 q 274 699 274 806 q 274 457 274 593 l 274 401 q 274 226 274 321 q 276 31 274 131 l 686 31 l 708 226 l 742 226 l 728 0 l 81 0 l 81 28 l 229 36 q 232 233 232 135 q 232 431 232 331 l 232 510 m 233 1029 q 308 1092 271 1061 q 376 1151 344 1124 q 418 1184 406 1175 q 442 1193 431 1193 q 460 1187 453 1193 q 467 1169 467 1181 q 453 1146 467 1157 q 404 1114 439 1135 q 325 1065 365 1090 q 244 1014 285 1039 l 233 1029 z "},"Ľ":{"ha":783,"x_min":81,"x_max":742,"o":"m 232 510 q 232 708 232 610 q 229 904 232 806 l 81 913 l 81 940 l 425 940 l 425 913 l 276 904 q 274 699 274 806 q 274 457 274 593 l 274 401 q 274 226 274 321 q 276 31 274 131 l 686 31 l 708 226 l 742 226 l 728 0 l 81 0 l 81 28 l 229 36 q 232 233 232 135 q 232 431 232 331 l 232 510 m 631 1033 q 653 1003 653 1033 q 647 928 653 974 q 635 822 642 882 l 624 722 l 603 722 l 606 1025 q 631 1033 615 1033 z "},"Ļ":{"ha":783,"x_min":81,"x_max":742,"o":"m 232 510 q 232 708 232 610 q 229 904 232 806 l 81 913 l 81 940 l 425 940 l 425 913 l 276 904 q 274 699 274 806 q 274 457 274 593 l 274 401 q 274 226 274 321 q 276 31 274 131 l 686 31 l 708 226 l 742 226 l 728 0 l 81 0 l 81 28 l 229 36 q 232 233 232 135 q 232 431 232 331 l 232 510 m 469 -144 q 458 -205 469 -176 q 425 -256 446 -233 q 377 -296 404 -279 q 321 -321 350 -312 l 313 -299 q 389 -252 360 -281 q 431 -187 418 -224 q 392 -164 407 -179 q 378 -133 378 -149 q 390 -103 378 -112 q 421 -93 403 -93 q 443 -97 432 -93 q 463 -108 454 -100 q 469 -144 469 -122 z "},"Ŀ":{"ha":783,"x_min":81,"x_max":742,"o":"m 232 510 q 232 708 232 610 q 229 904 232 806 l 81 913 l 81 940 l 425 940 l 425 913 l 276 904 q 274 699 274 806 q 274 457 274 593 l 274 401 q 274 226 274 321 q 276 31 274 131 l 686 31 l 708 226 l 742 226 l 728 0 l 81 0 l 81 28 l 229 36 q 232 233 232 135 q 232 431 232 331 l 232 510 m 628 436 q 597 449 608 436 q 585 478 585 463 q 597 508 585 496 q 628 519 608 519 q 659 508 647 519 q 671 478 671 496 q 659 449 671 463 q 628 436 647 436 z "},"Ḷ":{"ha":783,"x_min":81,"x_max":742,"o":"m 232 510 q 232 708 232 610 q 229 904 232 806 l 81 913 l 81 940 l 425 940 l 425 913 l 276 904 q 274 699 274 806 q 274 457 274 593 l 274 401 q 274 226 274 321 q 276 31 274 131 l 686 31 l 708 226 l 742 226 l 728 0 l 81 0 l 81 28 l 229 36 q 232 233 232 135 q 232 431 232 331 l 232 510 m 469 -229 q 439 -217 453 -229 q 425 -185 425 -204 q 439 -153 425 -165 q 469 -140 453 -140 q 500 -153 486 -140 q 514 -185 514 -165 q 500 -217 514 -204 q 469 -229 486 -229 z "},"Ḹ":{"ha":783,"x_min":50,"x_max":742,"o":"m 232 510 q 232 708 232 610 q 229 904 232 806 l 81 913 l 81 940 l 425 940 l 425 913 l 276 904 q 274 699 274 806 q 274 457 274 593 l 274 401 q 274 226 274 321 q 276 31 274 131 l 686 31 l 708 226 l 742 226 l 728 0 l 81 0 l 81 28 l 229 36 q 232 233 232 135 q 232 431 232 331 l 232 510 m 469 -229 q 439 -217 453 -229 q 425 -185 425 -204 q 439 -153 425 -165 q 469 -140 453 -140 q 500 -153 486 -140 q 514 -185 514 -165 q 500 -217 514 -204 q 469 -229 486 -229 m 50 1065 l 50 1101 l 456 1101 l 456 1065 l 50 1065 z "},"Ḻ":{"ha":783,"x_min":81,"x_max":742,"o":"m 232 510 q 232 708 232 610 q 229 904 232 806 l 81 913 l 81 940 l 425 940 l 425 913 l 276 904 q 274 699 274 806 q 274 457 274 593 l 274 401 q 274 226 274 321 q 276 31 274 131 l 686 31 l 708 226 l 742 226 l 728 0 l 81 0 l 81 28 l 229 36 q 232 233 232 135 q 232 431 232 331 l 232 510 m 282 -185 l 282 -149 l 615 -149 l 615 -185 l 282 -185 z "},"Ł":{"ha":783,"x_min":81,"x_max":742,"o":"m 550 629 l 550 590 l 274 432 l 274 403 q 274 227 274 322 q 276 32 274 132 l 686 32 l 708 228 l 742 228 l 728 1 l 81 1 l 81 29 l 229 38 q 232 231 232 136 q 232 407 232 326 l 81 321 l 81 360 l 232 447 l 232 511 q 232 709 232 611 q 229 906 232 807 l 81 914 l 81 942 l 425 942 l 425 914 l 276 906 q 274 702 274 807 q 274 471 274 597 l 550 629 z "},"Ḿ":{"ha":1246,"x_min":50,"x_max":1165,"o":"m 64 0 l 64 28 l 192 38 l 192 904 l 50 913 l 50 940 l 238 940 l 603 71 l 967 940 l 1165 940 l 1165 913 l 1017 904 q 1014 708 1014 806 q 1014 510 1014 610 l 1014 431 q 1014 233 1014 331 q 1017 36 1014 135 l 1165 28 l 1165 0 l 821 0 l 821 28 l 969 36 q 972 231 972 135 q 972 417 971 326 l 976 876 l 610 0 l 593 0 l 219 876 l 225 528 l 225 38 l 367 28 l 367 0 l 64 0 m 575 1015 q 649 1078 613 1047 q 718 1138 686 1110 q 760 1170 747 1161 q 783 1179 772 1179 q 801 1173 794 1179 q 808 1156 808 1167 q 794 1132 808 1143 q 746 1100 781 1121 q 667 1051 707 1076 q 586 1000 626 1025 l 575 1015 z "},"Ṃ":{"ha":1246,"x_min":50,"x_max":1165,"o":"m 64 0 l 64 28 l 192 38 l 192 904 l 50 913 l 50 940 l 238 940 l 603 71 l 967 940 l 1165 940 l 1165 913 l 1017 904 q 1014 708 1014 806 q 1014 510 1014 610 l 1014 431 q 1014 233 1014 331 q 1017 36 1014 135 l 1165 28 l 1165 0 l 821 0 l 821 28 l 969 36 q 972 231 972 135 q 972 417 971 326 l 976 876 l 610 0 l 593 0 l 219 876 l 225 528 l 225 38 l 367 28 l 367 0 l 64 0 m 608 -229 q 578 -217 592 -229 q 564 -185 564 -204 q 578 -153 564 -165 q 608 -140 592 -140 q 639 -153 625 -140 q 653 -185 653 -165 q 639 -217 653 -204 q 608 -229 625 -229 z "},"Ń":{"ha":1017,"x_min":53,"x_max":964,"o":"m 67 0 l 67 28 l 193 38 l 193 903 l 190 907 l 53 913 l 53 940 l 215 940 l 803 67 l 803 903 l 647 913 l 647 940 l 964 940 l 964 913 l 836 903 l 836 -10 l 808 -10 l 226 853 l 226 38 l 383 28 l 383 0 l 67 0 m 461 1029 q 535 1092 499 1061 q 604 1151 572 1124 q 646 1184 633 1175 q 669 1193 658 1193 q 688 1187 681 1193 q 694 1169 694 1181 q 681 1146 694 1157 q 632 1114 667 1135 q 553 1065 593 1090 q 472 1014 513 1039 l 461 1029 z "},"Ň":{"ha":1017,"x_min":53,"x_max":964,"o":"m 67 0 l 67 28 l 193 38 l 193 903 l 190 907 l 53 913 l 53 940 l 215 940 l 803 67 l 803 903 l 647 913 l 647 940 l 964 940 l 964 913 l 836 903 l 836 -10 l 808 -10 l 226 853 l 226 38 l 383 28 l 383 0 l 67 0 m 342 1201 l 494 1072 l 647 1201 l 663 1186 l 508 1028 l 481 1028 l 326 1186 l 342 1201 z "},"Ǹ":{"ha":1017,"x_min":53,"x_max":964,"o":"m 67 0 l 67 28 l 193 38 l 193 903 l 190 907 l 53 913 l 53 940 l 215 940 l 803 67 l 803 903 l 647 913 l 647 940 l 964 940 l 964 913 l 836 903 l 836 -10 l 808 -10 l 226 853 l 226 38 l 383 28 l 383 0 l 67 0 m 556 1029 l 544 1014 q 464 1063 504 1038 q 386 1113 424 1089 q 337 1147 351 1136 q 322 1169 322 1157 q 329 1187 322 1181 q 347 1193 336 1193 q 371 1184 358 1193 q 413 1150 383 1175 q 481 1092 444 1122 q 556 1029 518 1061 z "},"Ñ":{"ha":1017,"x_min":53,"x_max":964,"o":"m 67 0 l 67 28 l 193 38 l 193 903 l 190 907 l 53 913 l 53 940 l 215 940 l 803 67 l 803 903 l 647 913 l 647 940 l 964 940 l 964 913 l 836 903 l 836 -10 l 808 -10 l 226 853 l 226 38 l 383 28 l 383 0 l 67 0 m 267 1046 q 309 1138 276 1103 q 393 1174 342 1174 q 460 1156 433 1174 q 507 1114 488 1138 q 549 1076 529 1090 q 600 1061 568 1061 q 661 1087 638 1061 q 700 1163 685 1113 l 722 1156 q 680 1065 713 1100 q 594 1029 647 1029 q 528 1047 554 1029 q 482 1088 501 1065 q 440 1126 460 1111 q 389 1142 421 1142 q 328 1115 351 1142 q 289 1039 304 1089 l 267 1046 z "},"Ņ":{"ha":1017,"x_min":53,"x_max":964,"o":"m 67 0 l 67 28 l 193 38 l 193 903 l 190 907 l 53 913 l 53 940 l 215 940 l 803 67 l 803 903 l 647 913 l 647 940 l 964 940 l 964 913 l 836 903 l 836 -10 l 808 -10 l 226 853 l 226 38 l 383 28 l 383 0 l 67 0 m 594 -144 q 583 -205 594 -176 q 550 -256 571 -233 q 502 -296 529 -279 q 446 -321 475 -312 l 438 -299 q 514 -252 485 -281 q 556 -187 543 -224 q 517 -164 532 -179 q 503 -133 503 -149 q 515 -103 503 -112 q 546 -93 528 -93 q 568 -97 557 -93 q 588 -108 579 -100 q 594 -144 594 -122 z "},"Ṅ":{"ha":1017,"x_min":53,"x_max":964,"o":"m 67 0 l 67 28 l 193 38 l 193 903 l 190 907 l 53 913 l 53 940 l 215 940 l 803 67 l 803 903 l 647 913 l 647 940 l 964 940 l 964 913 l 836 903 l 836 -10 l 808 -10 l 226 853 l 226 38 l 383 28 l 383 0 l 67 0 m 494 1054 q 464 1067 478 1054 q 450 1099 450 1079 q 464 1131 450 1118 q 494 1143 478 1143 q 525 1131 511 1143 q 539 1099 539 1118 q 525 1067 539 1079 q 494 1054 511 1054 z "},"Ṇ":{"ha":1017,"x_min":53,"x_max":964,"o":"m 67 0 l 67 28 l 193 38 l 193 903 l 190 907 l 53 913 l 53 940 l 215 940 l 803 67 l 803 903 l 647 913 l 647 940 l 964 940 l 964 913 l 836 903 l 836 -10 l 808 -10 l 226 853 l 226 38 l 383 28 l 383 0 l 67 0 m 521 -229 q 490 -217 504 -229 q 476 -185 476 -204 q 490 -153 476 -165 q 521 -140 504 -140 q 551 -153 538 -140 q 565 -185 565 -165 q 551 -217 565 -204 q 521 -229 538 -229 z "},"Ṉ":{"ha":1017,"x_min":53,"x_max":964,"o":"m 67 0 l 67 28 l 193 38 l 193 903 l 190 907 l 53 913 l 53 940 l 215 940 l 803 67 l 803 903 l 647 913 l 647 940 l 964 940 l 964 913 l 836 903 l 836 -10 l 808 -10 l 226 853 l 226 38 l 383 28 l 383 0 l 67 0 m 340 -185 l 340 -149 l 674 -149 l 674 -185 l 340 -185 z "},"Ò":{"ha":981,"x_min":88,"x_max":893,"o":"m 132 469 q 157 292 132 375 q 228 147 182 210 q 340 49 274 85 q 490 13 407 13 q 640 49 574 13 q 753 147 707 85 q 824 292 799 210 q 849 469 849 375 q 824 646 849 563 q 753 792 799 729 q 640 891 707 854 q 490 928 574 928 q 340 891 407 928 q 228 792 274 854 q 157 646 182 729 q 132 469 132 563 m 490 958 q 650 924 576 958 q 778 824 724 889 q 863 669 832 760 q 893 469 893 579 q 863 269 893 358 q 778 115 832 179 q 650 17 724 51 q 490 -18 576 -18 q 331 17 404 -18 q 203 115 257 51 q 118 269 149 179 q 88 469 88 358 q 118 669 88 579 q 203 824 149 760 q 331 924 257 889 q 490 958 404 958 m 553 1029 l 542 1014 q 461 1063 501 1038 q 383 1113 421 1089 q 334 1147 349 1136 q 319 1169 319 1157 q 326 1187 319 1181 q 344 1193 333 1193 q 368 1184 356 1193 q 410 1150 381 1175 q 478 1092 442 1122 q 553 1029 515 1061 z "},"Ó":{"ha":981,"x_min":88,"x_max":893,"o":"m 132 469 q 157 292 132 375 q 228 147 182 210 q 340 49 274 85 q 490 13 407 13 q 640 49 574 13 q 753 147 707 85 q 824 292 799 210 q 849 469 849 375 q 824 646 849 563 q 753 792 799 729 q 640 891 707 854 q 490 928 574 928 q 340 891 407 928 q 228 792 274 854 q 157 646 182 729 q 132 469 132 563 m 490 958 q 650 924 576 958 q 778 824 724 889 q 863 669 832 760 q 893 469 893 579 q 863 269 893 358 q 778 115 832 179 q 650 17 724 51 q 490 -18 576 -18 q 331 17 404 -18 q 203 115 257 51 q 118 269 149 179 q 88 469 88 358 q 118 669 88 579 q 203 824 149 760 q 331 924 257 889 q 490 958 404 958 m 431 1029 q 505 1092 468 1061 q 574 1151 542 1124 q 615 1184 603 1175 q 639 1193 628 1193 q 657 1187 650 1193 q 664 1169 664 1181 q 650 1146 664 1157 q 601 1114 636 1135 q 522 1065 563 1090 q 442 1014 482 1039 l 431 1029 z "},"Ŏ":{"ha":981,"x_min":88,"x_max":893,"o":"m 132 469 q 157 292 132 375 q 228 147 182 210 q 340 49 274 85 q 490 13 407 13 q 640 49 574 13 q 753 147 707 85 q 824 292 799 210 q 849 469 849 375 q 824 646 849 563 q 753 792 799 729 q 640 891 707 854 q 490 928 574 928 q 340 891 407 928 q 228 792 274 854 q 157 646 182 729 q 132 469 132 563 m 490 958 q 650 924 576 958 q 778 824 724 889 q 863 669 832 760 q 893 469 893 579 q 863 269 893 358 q 778 115 832 179 q 650 17 724 51 q 490 -18 576 -18 q 331 17 404 -18 q 203 115 257 51 q 118 269 149 179 q 88 469 88 358 q 118 669 88 579 q 203 824 149 760 q 331 924 257 889 q 490 958 404 958 m 304 1200 l 325 1207 q 384 1110 344 1146 q 490 1075 424 1075 q 597 1110 557 1075 q 656 1207 636 1146 l 676 1200 q 656 1142 669 1171 q 619 1090 642 1114 q 564 1052 596 1067 q 490 1038 532 1038 q 417 1052 449 1038 q 362 1090 385 1067 q 324 1142 339 1114 q 304 1200 310 1171 z "},"Ô":{"ha":981,"x_min":88,"x_max":893,"o":"m 132 469 q 157 292 132 375 q 228 147 182 210 q 340 49 274 85 q 490 13 407 13 q 640 49 574 13 q 753 147 707 85 q 824 292 799 210 q 849 469 849 375 q 824 646 849 563 q 753 792 799 729 q 640 891 707 854 q 490 928 574 928 q 340 891 407 928 q 228 792 274 854 q 157 646 182 729 q 132 469 132 563 m 490 958 q 650 924 576 958 q 778 824 724 889 q 863 669 832 760 q 893 469 893 579 q 863 269 893 358 q 778 115 832 179 q 650 17 724 51 q 490 -18 576 -18 q 331 17 404 -18 q 203 115 257 51 q 118 269 149 179 q 88 469 88 358 q 118 669 88 579 q 203 824 149 760 q 331 924 257 889 q 490 958 404 958 m 501 1169 l 682 1014 l 671 1000 l 492 1118 l 313 1000 l 301 1014 l 482 1169 l 501 1169 z "},"Õ":{"ha":981,"x_min":88,"x_max":893,"o":"m 132 469 q 157 292 132 375 q 228 147 182 210 q 340 49 274 85 q 490 13 407 13 q 640 49 574 13 q 753 147 707 85 q 824 292 799 210 q 849 469 849 375 q 824 646 849 563 q 753 792 799 729 q 640 891 707 854 q 490 928 574 928 q 340 891 407 928 q 228 792 274 854 q 157 646 182 729 q 132 469 132 563 m 490 958 q 650 924 576 958 q 778 824 724 889 q 863 669 832 760 q 893 469 893 579 q 863 269 893 358 q 778 115 832 179 q 650 17 724 51 q 490 -18 576 -18 q 331 17 404 -18 q 203 115 257 51 q 118 269 149 179 q 88 469 88 358 q 118 669 88 579 q 203 824 149 760 q 331 924 257 889 q 490 958 404 958 m 264 1046 q 306 1138 274 1103 q 390 1174 339 1174 q 458 1156 431 1174 q 504 1114 485 1138 q 546 1076 526 1090 q 597 1061 565 1061 q 658 1087 635 1061 q 697 1163 682 1113 l 719 1156 q 677 1065 710 1100 q 592 1029 644 1029 q 525 1047 551 1029 q 479 1088 499 1065 q 438 1126 457 1111 q 386 1142 418 1142 q 325 1115 349 1142 q 286 1039 301 1089 l 264 1046 z "},"Ö":{"ha":981,"x_min":88,"x_max":893,"o":"m 132 469 q 157 292 132 375 q 228 147 182 210 q 340 49 274 85 q 490 13 407 13 q 640 49 574 13 q 753 147 707 85 q 824 292 799 210 q 849 469 849 375 q 824 646 849 563 q 753 792 799 729 q 640 891 707 854 q 490 928 574 928 q 340 891 407 928 q 228 792 274 854 q 157 646 182 729 q 132 469 132 563 m 490 958 q 650 924 576 958 q 778 824 724 889 q 863 669 832 760 q 893 469 893 579 q 863 269 893 358 q 778 115 832 179 q 650 17 724 51 q 490 -18 576 -18 q 331 17 404 -18 q 203 115 257 51 q 118 269 149 179 q 88 469 88 358 q 118 669 88 579 q 203 824 149 760 q 331 924 257 889 q 490 958 404 958 m 349 1050 q 318 1062 332 1050 q 304 1094 304 1074 q 318 1127 304 1115 q 349 1139 332 1139 q 380 1127 367 1139 q 393 1094 393 1115 q 380 1062 393 1074 q 349 1050 367 1050 m 635 1050 q 603 1062 617 1050 q 590 1094 590 1074 q 603 1127 590 1115 q 635 1139 617 1139 q 665 1127 651 1139 q 679 1094 679 1115 q 665 1062 679 1074 q 635 1050 651 1050 z "},"Ō":{"ha":981,"x_min":88,"x_max":893,"o":"m 132 469 q 157 292 132 375 q 228 147 182 210 q 340 49 274 85 q 490 13 407 13 q 640 49 574 13 q 753 147 707 85 q 824 292 799 210 q 849 469 849 375 q 824 646 849 563 q 753 792 799 729 q 640 891 707 854 q 490 928 574 928 q 340 891 407 928 q 228 792 274 854 q 157 646 182 729 q 132 469 132 563 m 490 958 q 650 924 576 958 q 778 824 724 889 q 863 669 832 760 q 893 469 893 579 q 863 269 893 358 q 778 115 832 179 q 650 17 724 51 q 490 -18 576 -18 q 331 17 404 -18 q 203 115 257 51 q 118 269 149 179 q 88 469 88 358 q 118 669 88 579 q 203 824 149 760 q 331 924 257 889 q 490 958 404 958 m 289 1065 l 289 1101 l 694 1101 l 694 1065 l 289 1065 z "},"Ő":{"ha":981,"x_min":88,"x_max":893,"o":"m 132 469 q 157 292 132 375 q 228 147 182 210 q 340 49 274 85 q 490 13 407 13 q 640 49 574 13 q 753 147 707 85 q 824 292 799 210 q 849 469 849 375 q 824 646 849 563 q 753 792 799 729 q 640 891 707 854 q 490 928 574 928 q 340 891 407 928 q 228 792 274 854 q 157 646 182 729 q 132 469 132 563 m 490 958 q 650 924 576 958 q 778 824 724 889 q 863 669 832 760 q 893 469 893 579 q 863 269 893 358 q 778 115 832 179 q 650 17 724 51 q 490 -18 576 -18 q 331 17 404 -18 q 203 115 257 51 q 118 269 149 179 q 88 469 88 358 q 118 669 88 579 q 203 824 149 760 q 331 924 257 889 q 490 958 404 958 m 372 1019 l 485 1178 q 519 1203 501 1203 q 535 1196 529 1203 q 540 1182 540 1189 q 537 1165 540 1171 q 522 1147 533 1158 l 389 1007 l 372 1019 m 554 1019 l 667 1178 q 701 1203 683 1203 q 717 1196 711 1203 q 722 1182 722 1189 q 719 1165 722 1171 q 704 1147 715 1158 l 571 1007 l 554 1019 z "},"Ǒ":{"ha":981,"x_min":88,"x_max":893,"o":"m 132 469 q 157 292 132 375 q 228 147 182 210 q 340 49 274 85 q 490 13 407 13 q 640 49 574 13 q 753 147 707 85 q 824 292 799 210 q 849 469 849 375 q 824 646 849 563 q 753 792 799 729 q 640 891 707 854 q 490 928 574 928 q 340 891 407 928 q 228 792 274 854 q 157 646 182 729 q 132 469 132 563 m 490 958 q 650 924 576 958 q 778 824 724 889 q 863 669 832 760 q 893 469 893 579 q 863 269 893 358 q 778 115 832 179 q 650 17 724 51 q 490 -18 576 -18 q 331 17 404 -18 q 203 115 257 51 q 118 269 149 179 q 88 469 88 358 q 118 669 88 579 q 203 824 149 760 q 331 924 257 889 q 490 958 404 958 m 338 1201 l 490 1072 l 643 1201 l 658 1186 l 504 1028 l 476 1028 l 322 1186 l 338 1201 z "},"Ố":{"ha":981,"x_min":88,"x_max":893,"o":"m 132 469 q 157 292 132 375 q 228 147 182 210 q 340 49 274 85 q 490 13 407 13 q 640 49 574 13 q 753 147 707 85 q 824 292 799 210 q 849 469 849 375 q 824 646 849 563 q 753 792 799 729 q 640 891 707 854 q 490 928 574 928 q 340 891 407 928 q 228 792 274 854 q 157 646 182 729 q 132 469 132 563 m 490 958 q 650 924 576 958 q 778 824 724 889 q 863 669 832 760 q 893 469 893 579 q 863 269 893 358 q 778 115 832 179 q 650 17 724 51 q 490 -18 576 -18 q 331 17 404 -18 q 203 115 257 51 q 118 269 149 179 q 88 469 88 358 q 118 669 88 579 q 203 824 149 760 q 331 924 257 889 q 490 958 404 958 m 313 1000 l 301 1014 l 482 1169 l 501 1169 l 682 1014 l 671 1000 l 492 1118 l 313 1000 m 639 1090 l 625 1104 l 708 1206 q 724 1222 717 1217 q 742 1228 731 1228 q 765 1204 765 1228 q 756 1184 765 1193 q 739 1168 747 1175 l 639 1090 z "},"Ộ":{"ha":981,"x_min":88,"x_max":893,"o":"m 132 469 q 157 292 132 375 q 228 147 182 210 q 340 49 274 85 q 490 13 407 13 q 640 49 574 13 q 753 147 707 85 q 824 292 799 210 q 849 469 849 375 q 824 646 849 563 q 753 792 799 729 q 640 891 707 854 q 490 928 574 928 q 340 891 407 928 q 228 792 274 854 q 157 646 182 729 q 132 469 132 563 m 490 958 q 650 924 576 958 q 778 824 724 889 q 863 669 832 760 q 893 469 893 579 q 863 269 893 358 q 778 115 832 179 q 650 17 724 51 q 490 -18 576 -18 q 331 17 404 -18 q 203 115 257 51 q 118 269 149 179 q 88 469 88 358 q 118 669 88 579 q 203 824 149 760 q 331 924 257 889 q 490 958 404 958 m 501 1169 l 682 1014 l 671 1000 l 492 1118 l 313 1000 l 301 1014 l 482 1169 l 501 1169 m 490 -229 q 460 -217 474 -229 q 446 -185 446 -204 q 460 -153 446 -165 q 490 -140 474 -140 q 521 -153 507 -140 q 535 -185 535 -165 q 521 -217 535 -204 q 490 -229 507 -229 z "},"Ồ":{"ha":981,"x_min":88,"x_max":893,"o":"m 132 469 q 157 292 132 375 q 228 147 182 210 q 340 49 274 85 q 490 13 407 13 q 640 49 574 13 q 753 147 707 85 q 824 292 799 210 q 849 469 849 375 q 824 646 849 563 q 753 792 799 729 q 640 891 707 854 q 490 928 574 928 q 340 891 407 928 q 228 792 274 854 q 157 646 182 729 q 132 469 132 563 m 490 958 q 650 924 576 958 q 778 824 724 889 q 863 669 832 760 q 893 469 893 579 q 863 269 893 358 q 778 115 832 179 q 650 17 724 51 q 490 -18 576 -18 q 331 17 404 -18 q 203 115 257 51 q 118 269 149 179 q 88 469 88 358 q 118 669 88 579 q 203 824 149 760 q 331 924 257 889 q 490 958 404 958 m 671 1000 l 492 1118 l 313 1000 l 301 1014 l 482 1169 l 501 1169 l 682 1014 l 671 1000 m 344 1090 l 244 1168 q 227 1184 236 1175 q 218 1204 218 1193 q 242 1228 218 1228 q 260 1222 253 1228 q 275 1206 267 1217 l 358 1104 l 344 1090 z "},"Ổ":{"ha":981,"x_min":88,"x_max":893,"o":"m 132 469 q 157 292 132 375 q 228 147 182 210 q 340 49 274 85 q 490 13 407 13 q 640 49 574 13 q 753 147 707 85 q 824 292 799 210 q 849 469 849 375 q 824 646 849 563 q 753 792 799 729 q 640 891 707 854 q 490 928 574 928 q 340 891 407 928 q 228 792 274 854 q 157 646 182 729 q 132 469 132 563 m 490 958 q 650 924 576 958 q 778 824 724 889 q 863 669 832 760 q 893 469 893 579 q 863 269 893 358 q 778 115 832 179 q 650 17 724 51 q 490 -18 576 -18 q 331 17 404 -18 q 203 115 257 51 q 118 269 149 179 q 88 469 88 358 q 118 669 88 579 q 203 824 149 760 q 331 924 257 889 q 490 958 404 958 m 313 1000 l 301 1014 l 482 1169 l 501 1169 l 682 1014 l 671 1000 l 492 1118 l 313 1000 m 628 1114 q 708 1179 708 1132 q 678 1222 708 1210 q 575 1242 649 1233 l 579 1276 q 704 1247 663 1269 q 746 1183 746 1225 q 716 1124 746 1149 q 633 1093 686 1100 l 628 1114 z "},"Ỗ":{"ha":981,"x_min":88,"x_max":893,"o":"m 132 469 q 157 292 132 375 q 228 147 182 210 q 340 49 274 85 q 490 13 407 13 q 640 49 574 13 q 753 147 707 85 q 824 292 799 210 q 849 469 849 375 q 824 646 849 563 q 753 792 799 729 q 640 891 707 854 q 490 928 574 928 q 340 891 407 928 q 228 792 274 854 q 157 646 182 729 q 132 469 132 563 m 490 958 q 650 924 576 958 q 778 824 724 889 q 863 669 832 760 q 893 469 893 579 q 863 269 893 358 q 778 115 832 179 q 650 17 724 51 q 490 -18 576 -18 q 331 17 404 -18 q 203 115 257 51 q 118 269 149 179 q 88 469 88 358 q 118 669 88 579 q 203 824 149 760 q 331 924 257 889 q 490 958 404 958 m 308 1000 l 300 1014 l 481 1142 l 500 1142 l 681 1014 l 672 1000 l 490 1092 l 308 1000 m 285 1176 q 324 1249 294 1221 q 400 1278 353 1278 q 458 1266 435 1278 q 501 1240 482 1254 q 540 1217 524 1225 q 585 1208 557 1208 q 642 1226 621 1208 q 676 1278 664 1243 l 696 1272 q 657 1200 686 1228 q 581 1172 628 1172 q 522 1183 544 1172 q 479 1208 499 1193 q 440 1233 457 1224 q 396 1242 424 1242 q 338 1224 360 1242 q 304 1172 317 1207 l 285 1176 z "},"Ọ":{"ha":981,"x_min":88,"x_max":893,"o":"m 132 469 q 157 292 132 375 q 228 147 182 210 q 340 49 274 85 q 490 13 407 13 q 640 49 574 13 q 753 147 707 85 q 824 292 799 210 q 849 469 849 375 q 824 646 849 563 q 753 792 799 729 q 640 891 707 854 q 490 928 574 928 q 340 891 407 928 q 228 792 274 854 q 157 646 182 729 q 132 469 132 563 m 490 958 q 650 924 576 958 q 778 824 724 889 q 863 669 832 760 q 893 469 893 579 q 863 269 893 358 q 778 115 832 179 q 650 17 724 51 q 490 -18 576 -18 q 331 17 404 -18 q 203 115 257 51 q 118 269 149 179 q 88 469 88 358 q 118 669 88 579 q 203 824 149 760 q 331 924 257 889 q 490 958 404 958 m 490 -229 q 460 -217 474 -229 q 446 -185 446 -204 q 460 -153 446 -165 q 490 -140 474 -140 q 521 -153 507 -140 q 535 -185 535 -165 q 521 -217 535 -204 q 490 -229 507 -229 z "},"Ỏ":{"ha":981,"x_min":88,"x_max":893,"o":"m 132 469 q 157 292 132 375 q 228 147 182 210 q 340 49 274 85 q 490 13 407 13 q 640 49 574 13 q 753 147 707 85 q 824 292 799 210 q 849 469 849 375 q 824 646 849 563 q 753 792 799 729 q 640 891 707 854 q 490 928 574 928 q 340 891 407 928 q 228 792 274 854 q 157 646 182 729 q 132 469 132 563 m 490 958 q 650 924 576 958 q 778 824 724 889 q 863 669 832 760 q 893 469 893 579 q 863 269 893 358 q 778 115 832 179 q 650 17 724 51 q 490 -18 576 -18 q 331 17 404 -18 q 203 115 257 51 q 118 269 149 179 q 88 469 88 358 q 118 669 88 579 q 203 824 149 760 q 331 924 257 889 q 490 958 404 958 m 465 1003 l 460 1024 q 532 1051 510 1035 q 554 1093 554 1067 q 549 1118 554 1107 q 532 1138 544 1129 q 497 1152 519 1146 q 438 1165 474 1158 l 443 1200 q 559 1163 526 1189 q 592 1097 592 1138 q 558 1035 592 1061 q 465 1003 525 1010 z "},"Ơ":{"ha":981,"x_min":88,"x_max":893,"o":"m 132 469 q 157 292 132 375 q 228 147 182 210 q 340 49 274 85 q 490 13 407 13 q 640 49 574 13 q 753 147 707 85 q 824 292 799 210 q 849 469 849 375 q 824 646 849 563 q 753 792 799 729 q 640 891 707 854 q 490 928 574 928 q 340 891 407 928 q 228 792 274 854 q 157 646 182 729 q 132 469 132 563 m 490 958 q 650 924 576 958 q 778 824 724 889 q 863 669 832 760 q 893 469 893 579 q 863 269 893 358 q 778 115 832 179 q 650 17 724 51 q 490 -18 576 -18 q 331 17 404 -18 q 203 115 257 51 q 118 269 149 179 q 88 469 88 358 q 118 669 88 579 q 203 824 149 760 q 331 924 257 889 q 490 958 404 958 m 708 850 l 704 874 q 776 890 747 878 q 821 921 804 903 q 844 959 838 939 q 851 1000 851 979 q 840 1058 851 1039 q 828 1093 828 1078 q 836 1111 828 1104 q 856 1118 844 1118 q 871 1115 865 1118 q 885 1082 878 1104 q 893 1028 893 1060 q 885 971 893 1000 q 855 917 876 942 q 798 874 833 892 q 708 850 763 856 z "},"Ớ":{"ha":981,"x_min":88,"x_max":893,"o":"m 132 469 q 157 292 132 375 q 228 147 182 210 q 340 49 274 85 q 490 13 407 13 q 640 49 574 13 q 753 147 707 85 q 824 292 799 210 q 849 469 849 375 q 824 646 849 563 q 753 792 799 729 q 640 891 707 854 q 490 928 574 928 q 340 891 407 928 q 228 792 274 854 q 157 646 182 729 q 132 469 132 563 m 490 958 q 650 924 576 958 q 778 824 724 889 q 863 669 832 760 q 893 469 893 579 q 863 269 893 358 q 778 115 832 179 q 650 17 724 51 q 490 -18 576 -18 q 331 17 404 -18 q 203 115 257 51 q 118 269 149 179 q 88 469 88 358 q 118 669 88 579 q 203 824 149 760 q 331 924 257 889 q 490 958 404 958 m 708 850 l 704 874 q 776 890 747 878 q 821 921 804 903 q 844 959 838 939 q 851 1000 851 979 q 840 1058 851 1039 q 828 1093 828 1078 q 836 1111 828 1104 q 856 1118 844 1118 q 871 1115 865 1118 q 885 1082 878 1104 q 893 1028 893 1060 q 885 971 893 1000 q 855 917 876 942 q 798 874 833 892 q 708 850 763 856 m 429 1029 q 503 1092 467 1061 q 572 1151 540 1124 q 614 1184 601 1175 q 638 1193 626 1193 q 656 1187 649 1193 q 663 1169 663 1181 q 649 1146 663 1157 q 600 1114 635 1135 q 521 1065 561 1090 q 440 1014 481 1039 l 429 1029 z "},"Ợ":{"ha":981,"x_min":88,"x_max":893,"o":"m 132 469 q 157 292 132 375 q 228 147 182 210 q 340 49 274 85 q 490 13 407 13 q 640 49 574 13 q 753 147 707 85 q 824 292 799 210 q 849 469 849 375 q 824 646 849 563 q 753 792 799 729 q 640 891 707 854 q 490 928 574 928 q 340 891 407 928 q 228 792 274 854 q 157 646 182 729 q 132 469 132 563 m 490 958 q 650 924 576 958 q 778 824 724 889 q 863 669 832 760 q 893 469 893 579 q 863 269 893 358 q 778 115 832 179 q 650 17 724 51 q 490 -18 576 -18 q 331 17 404 -18 q 203 115 257 51 q 118 269 149 179 q 88 469 88 358 q 118 669 88 579 q 203 824 149 760 q 331 924 257 889 q 490 958 404 958 m 708 850 l 704 874 q 776 890 747 878 q 821 921 804 903 q 844 959 838 939 q 851 1000 851 979 q 840 1058 851 1039 q 828 1093 828 1078 q 836 1111 828 1104 q 856 1118 844 1118 q 871 1115 865 1118 q 885 1082 878 1104 q 893 1028 893 1060 q 885 971 893 1000 q 855 917 876 942 q 798 874 833 892 q 708 850 763 856 m 490 -229 q 460 -217 474 -229 q 446 -185 446 -204 q 460 -153 446 -165 q 490 -140 474 -140 q 521 -153 507 -140 q 535 -185 535 -165 q 521 -217 535 -204 q 490 -229 507 -229 z "},"Ờ":{"ha":981,"x_min":88,"x_max":893,"o":"m 132 469 q 157 292 132 375 q 228 147 182 210 q 340 49 274 85 q 490 13 407 13 q 640 49 574 13 q 753 147 707 85 q 824 292 799 210 q 849 469 849 375 q 824 646 849 563 q 753 792 799 729 q 640 891 707 854 q 490 928 574 928 q 340 891 407 928 q 228 792 274 854 q 157 646 182 729 q 132 469 132 563 m 490 958 q 650 924 576 958 q 778 824 724 889 q 863 669 832 760 q 893 469 893 579 q 863 269 893 358 q 778 115 832 179 q 650 17 724 51 q 490 -18 576 -18 q 331 17 404 -18 q 203 115 257 51 q 118 269 149 179 q 88 469 88 358 q 118 669 88 579 q 203 824 149 760 q 331 924 257 889 q 490 958 404 958 m 708 850 l 704 874 q 776 890 747 878 q 821 921 804 903 q 844 959 838 939 q 851 1000 851 979 q 840 1058 851 1039 q 828 1093 828 1078 q 836 1111 828 1104 q 856 1118 844 1118 q 871 1115 865 1118 q 885 1082 878 1104 q 893 1028 893 1060 q 885 971 893 1000 q 855 917 876 942 q 798 874 833 892 q 708 850 763 856 m 551 1029 l 540 1014 q 460 1063 500 1038 q 382 1113 419 1089 q 333 1147 347 1136 q 318 1169 318 1157 q 325 1187 318 1181 q 343 1193 332 1193 q 367 1184 354 1193 q 408 1150 379 1175 q 477 1092 440 1122 q 551 1029 514 1061 z "},"Ở":{"ha":981,"x_min":88,"x_max":893,"o":"m 132 469 q 157 292 132 375 q 228 147 182 210 q 340 49 274 85 q 490 13 407 13 q 640 49 574 13 q 753 147 707 85 q 824 292 799 210 q 849 469 849 375 q 824 646 849 563 q 753 792 799 729 q 640 891 707 854 q 490 928 574 928 q 340 891 407 928 q 228 792 274 854 q 157 646 182 729 q 132 469 132 563 m 490 958 q 650 924 576 958 q 778 824 724 889 q 863 669 832 760 q 893 469 893 579 q 863 269 893 358 q 778 115 832 179 q 650 17 724 51 q 490 -18 576 -18 q 331 17 404 -18 q 203 115 257 51 q 118 269 149 179 q 88 469 88 358 q 118 669 88 579 q 203 824 149 760 q 331 924 257 889 q 490 958 404 958 m 708 850 l 704 874 q 776 890 747 878 q 821 921 804 903 q 844 959 838 939 q 851 1000 851 979 q 840 1058 851 1039 q 828 1093 828 1078 q 836 1111 828 1104 q 856 1118 844 1118 q 871 1115 865 1118 q 885 1082 878 1104 q 893 1028 893 1060 q 885 971 893 1000 q 855 917 876 942 q 798 874 833 892 q 708 850 763 856 m 465 1003 l 460 1024 q 532 1051 510 1035 q 554 1093 554 1067 q 549 1118 554 1107 q 532 1138 544 1129 q 497 1152 519 1146 q 438 1165 474 1158 l 443 1200 q 559 1163 526 1189 q 592 1097 592 1138 q 558 1035 592 1061 q 465 1003 525 1010 z "},"Ỡ":{"ha":981,"x_min":88,"x_max":893,"o":"m 132 469 q 157 292 132 375 q 228 147 182 210 q 340 49 274 85 q 490 13 407 13 q 640 49 574 13 q 753 147 707 85 q 824 292 799 210 q 849 469 849 375 q 824 646 849 563 q 753 792 799 729 q 640 891 707 854 q 490 928 574 928 q 340 891 407 928 q 228 792 274 854 q 157 646 182 729 q 132 469 132 563 m 490 958 q 650 924 576 958 q 778 824 724 889 q 863 669 832 760 q 893 469 893 579 q 863 269 893 358 q 778 115 832 179 q 650 17 724 51 q 490 -18 576 -18 q 331 17 404 -18 q 203 115 257 51 q 118 269 149 179 q 88 469 88 358 q 118 669 88 579 q 203 824 149 760 q 331 924 257 889 q 490 958 404 958 m 708 850 l 704 874 q 776 890 747 878 q 821 921 804 903 q 844 959 838 939 q 851 1000 851 979 q 840 1058 851 1039 q 828 1093 828 1078 q 836 1111 828 1104 q 856 1118 844 1118 q 871 1115 865 1118 q 885 1082 878 1104 q 893 1028 893 1060 q 885 971 893 1000 q 855 917 876 942 q 798 874 833 892 q 708 850 763 856 m 263 1046 q 305 1138 272 1103 q 389 1174 338 1174 q 456 1156 429 1174 q 503 1114 483 1138 q 544 1076 525 1090 q 596 1061 564 1061 q 657 1087 633 1061 q 696 1163 681 1113 l 718 1156 q 676 1065 708 1100 q 590 1029 643 1029 q 524 1047 550 1029 q 478 1088 497 1065 q 436 1126 456 1111 q 385 1142 417 1142 q 324 1115 347 1142 q 285 1039 300 1089 l 263 1046 z "},"Ø":{"ha":981,"x_min":88,"x_max":893,"o":"m 882 947 l 782 819 q 864 667 835 756 q 893 469 893 578 q 863 269 893 358 q 778 115 832 179 q 650 17 724 51 q 490 -18 576 -18 q 340 12 410 -18 q 218 99 271 42 l 124 -22 l 99 -1 l 196 124 q 116 274 144 188 q 88 469 88 361 q 118 669 88 579 q 203 824 149 760 q 331 924 257 889 q 490 958 404 958 q 638 928 569 958 q 760 844 707 899 l 857 968 l 882 947 m 132 469 q 155 298 132 378 q 222 156 178 218 l 736 814 q 628 897 690 867 q 490 928 567 928 q 340 891 407 928 q 228 792 274 854 q 157 646 182 729 q 132 469 132 563 m 490 13 q 640 49 574 13 q 753 147 707 85 q 824 292 799 210 q 849 469 849 375 q 825 643 849 561 q 757 788 801 725 l 242 129 q 350 44 288 75 q 490 13 413 13 z "},"Œ":{"ha":1265,"x_min":89,"x_max":1203,"o":"m 135 469 q 158 297 135 379 q 231 151 182 215 q 356 50 281 88 q 533 13 431 13 q 660 26 603 13 q 663 228 663 126 q 663 431 663 329 l 663 510 q 663 713 663 611 q 660 914 663 814 q 599 924 631 921 q 533 928 567 928 q 356 890 431 928 q 231 790 281 853 q 158 643 182 726 q 135 469 135 560 m 1169 213 l 1203 213 l 1189 0 l 683 0 q 610 -15 647 -11 q 533 -18 574 -18 q 350 17 432 -18 q 210 117 268 53 q 120 272 151 182 q 89 469 89 361 q 120 668 89 578 q 210 823 151 758 q 350 923 268 888 q 533 958 432 958 q 683 940 615 958 l 1169 940 l 1183 728 l 1150 728 l 1128 910 l 707 910 q 704 707 704 810 q 704 490 704 604 l 978 490 l 992 625 l 1018 625 l 1018 325 l 992 325 l 978 460 l 704 460 q 704 226 704 328 q 707 31 704 124 l 1147 31 l 1169 213 z "},"Ŕ":{"ha":900,"x_min":81,"x_max":872,"o":"m 232 431 l 232 510 q 232 708 232 610 q 229 904 232 806 l 81 913 l 81 940 l 442 940 q 667 878 589 940 q 746 694 746 815 q 729 603 746 646 q 683 529 713 561 q 610 476 653 497 q 515 446 567 454 q 590 399 567 431 q 633 311 613 368 l 733 33 l 872 28 l 872 0 q 836 -5 860 -3 q 783 -7 813 -7 q 714 7 732 -7 q 686 47 696 21 l 600 293 q 573 359 586 332 q 540 404 560 386 q 489 431 519 422 q 411 439 458 439 l 274 439 q 274 228 274 326 q 276 36 274 131 l 425 28 l 425 0 l 81 0 l 81 28 l 229 36 q 232 233 232 135 q 232 431 232 331 m 439 910 l 276 910 q 274 703 274 810 q 274 467 274 597 l 454 467 q 554 484 508 467 q 634 533 600 501 q 688 605 668 564 q 707 694 707 646 q 642 851 707 792 q 439 910 576 910 m 401 1029 q 476 1092 439 1061 q 544 1151 513 1124 q 586 1184 574 1175 q 610 1193 599 1193 q 628 1187 621 1193 q 635 1169 635 1181 q 621 1146 635 1157 q 572 1114 607 1135 q 493 1065 533 1090 q 413 1014 453 1039 l 401 1029 z "},"Ř":{"ha":900,"x_min":81,"x_max":872,"o":"m 232 431 l 232 510 q 232 708 232 610 q 229 904 232 806 l 81 913 l 81 940 l 442 940 q 667 878 589 940 q 746 694 746 815 q 729 603 746 646 q 683 529 713 561 q 610 476 653 497 q 515 446 567 454 q 590 399 567 431 q 633 311 613 368 l 733 33 l 872 28 l 872 0 q 836 -5 860 -3 q 783 -7 813 -7 q 714 7 732 -7 q 686 47 696 21 l 600 293 q 573 359 586 332 q 540 404 560 386 q 489 431 519 422 q 411 439 458 439 l 274 439 q 274 228 274 326 q 276 36 274 131 l 425 28 l 425 0 l 81 0 l 81 28 l 229 36 q 232 233 232 135 q 232 431 232 331 m 439 910 l 276 910 q 274 703 274 810 q 274 467 274 597 l 454 467 q 554 484 508 467 q 634 533 600 501 q 688 605 668 564 q 707 694 707 646 q 642 851 707 792 q 439 910 576 910 m 296 1201 l 449 1072 l 601 1201 l 617 1186 l 463 1028 l 435 1028 l 281 1186 l 296 1201 z "},"Ŗ":{"ha":900,"x_min":81,"x_max":872,"o":"m 232 431 l 232 510 q 232 708 232 610 q 229 904 232 806 l 81 913 l 81 940 l 442 940 q 667 878 589 940 q 746 694 746 815 q 729 603 746 646 q 683 529 713 561 q 610 476 653 497 q 515 446 567 454 q 590 399 567 431 q 633 311 613 368 l 733 33 l 872 28 l 872 0 q 836 -5 860 -3 q 783 -7 813 -7 q 714 7 732 -7 q 686 47 696 21 l 600 293 q 573 359 586 332 q 540 404 560 386 q 489 431 519 422 q 411 439 458 439 l 274 439 q 274 228 274 326 q 276 36 274 131 l 425 28 l 425 0 l 81 0 l 81 28 l 229 36 q 232 233 232 135 q 232 431 232 331 m 439 910 l 276 910 q 274 703 274 810 q 274 467 274 597 l 454 467 q 554 484 508 467 q 634 533 600 501 q 688 605 668 564 q 707 694 707 646 q 642 851 707 792 q 439 910 576 910 m 576 -144 q 565 -205 576 -176 q 532 -256 553 -233 q 484 -296 511 -279 q 428 -321 457 -312 l 419 -299 q 496 -252 467 -281 q 538 -187 525 -224 q 499 -164 514 -179 q 485 -133 485 -149 q 497 -103 485 -112 q 528 -93 510 -93 q 550 -97 539 -93 q 569 -108 561 -100 q 576 -144 576 -122 z "},"Ṛ":{"ha":900,"x_min":81,"x_max":872,"o":"m 232 431 l 232 510 q 232 708 232 610 q 229 904 232 806 l 81 913 l 81 940 l 442 940 q 667 878 589 940 q 746 694 746 815 q 729 603 746 646 q 683 529 713 561 q 610 476 653 497 q 515 446 567 454 q 590 399 567 431 q 633 311 613 368 l 733 33 l 872 28 l 872 0 q 836 -5 860 -3 q 783 -7 813 -7 q 714 7 732 -7 q 686 47 696 21 l 600 293 q 573 359 586 332 q 540 404 560 386 q 489 431 519 422 q 411 439 458 439 l 274 439 q 274 228 274 326 q 276 36 274 131 l 425 28 l 425 0 l 81 0 l 81 28 l 229 36 q 232 233 232 135 q 232 431 232 331 m 439 910 l 276 910 q 274 703 274 810 q 274 467 274 597 l 454 467 q 554 484 508 467 q 634 533 600 501 q 688 605 668 564 q 707 694 707 646 q 642 851 707 792 q 439 910 576 910 m 490 -229 q 460 -217 474 -229 q 446 -185 446 -204 q 460 -153 446 -165 q 490 -140 474 -140 q 521 -153 507 -140 q 535 -185 535 -165 q 521 -217 535 -204 q 490 -229 507 -229 z "},"Ṝ":{"ha":900,"x_min":81,"x_max":872,"o":"m 232 431 l 232 510 q 232 708 232 610 q 229 904 232 806 l 81 913 l 81 940 l 442 940 q 667 878 589 940 q 746 694 746 815 q 729 603 746 646 q 683 529 713 561 q 610 476 653 497 q 515 446 567 454 q 590 399 567 431 q 633 311 613 368 l 733 33 l 872 28 l 872 0 q 836 -5 860 -3 q 783 -7 813 -7 q 714 7 732 -7 q 686 47 696 21 l 600 293 q 573 359 586 332 q 540 404 560 386 q 489 431 519 422 q 411 439 458 439 l 274 439 q 274 228 274 326 q 276 36 274 131 l 425 28 l 425 0 l 81 0 l 81 28 l 229 36 q 232 233 232 135 q 232 431 232 331 m 439 910 l 276 910 q 274 703 274 810 q 274 467 274 597 l 454 467 q 554 484 508 467 q 634 533 600 501 q 688 605 668 564 q 707 694 707 646 q 642 851 707 792 q 439 910 576 910 m 490 -229 q 460 -217 474 -229 q 446 -185 446 -204 q 460 -153 446 -165 q 490 -140 474 -140 q 521 -153 507 -140 q 535 -185 535 -165 q 521 -217 535 -204 q 490 -229 507 -229 m 240 1065 l 240 1101 l 646 1101 l 646 1065 l 240 1065 z "},"Ṟ":{"ha":900,"x_min":81,"x_max":872,"o":"m 232 431 l 232 510 q 232 708 232 610 q 229 904 232 806 l 81 913 l 81 940 l 442 940 q 667 878 589 940 q 746 694 746 815 q 729 603 746 646 q 683 529 713 561 q 610 476 653 497 q 515 446 567 454 q 590 399 567 431 q 633 311 613 368 l 733 33 l 872 28 l 872 0 q 836 -5 860 -3 q 783 -7 813 -7 q 714 7 732 -7 q 686 47 696 21 l 600 293 q 573 359 586 332 q 540 404 560 386 q 489 431 519 422 q 411 439 458 439 l 274 439 q 274 228 274 326 q 276 36 274 131 l 425 28 l 425 0 l 81 0 l 81 28 l 229 36 q 232 233 232 135 q 232 431 232 331 m 439 910 l 276 910 q 274 703 274 810 q 274 467 274 597 l 454 467 q 554 484 508 467 q 634 533 600 501 q 688 605 668 564 q 707 694 707 646 q 642 851 707 792 q 439 910 576 910 m 310 -185 l 310 -149 l 643 -149 l 643 -185 l 310 -185 z "},"Ś":{"ha":715,"x_min":76,"x_max":639,"o":"m 338 13 q 443 26 394 13 q 527 65 492 39 q 582 132 563 92 q 601 226 601 172 q 592 297 601 265 q 556 355 582 328 q 488 407 531 382 q 378 460 444 432 l 326 481 q 163 586 214 525 q 111 733 111 647 q 133 836 111 793 q 192 906 156 879 q 277 946 229 933 q 376 958 325 958 q 444 954 414 958 q 501 942 475 950 q 551 921 528 933 q 600 892 575 908 l 596 725 l 565 725 l 553 882 q 472 917 513 906 q 378 928 431 928 q 213 881 278 928 q 149 738 149 835 q 197 607 149 656 q 328 525 244 558 l 383 503 q 510 442 461 471 q 588 381 560 413 q 628 311 617 349 q 639 228 639 274 q 616 124 639 169 q 553 47 593 79 q 458 -1 513 15 q 338 -18 403 -18 q 186 6 256 -18 q 76 57 117 29 l 83 232 l 110 232 l 126 71 q 226 24 178 36 q 338 13 274 13 m 306 1029 q 380 1092 343 1061 q 449 1151 417 1124 q 490 1184 478 1175 q 514 1193 503 1193 q 532 1187 525 1193 q 539 1169 539 1181 q 525 1146 539 1157 q 476 1114 511 1135 q 397 1065 438 1090 q 317 1014 357 1039 l 306 1029 z "},"Š":{"ha":715,"x_min":76,"x_max":639,"o":"m 338 13 q 443 26 394 13 q 527 65 492 39 q 582 132 563 92 q 601 226 601 172 q 592 297 601 265 q 556 355 582 328 q 488 407 531 382 q 378 460 444 432 l 326 481 q 163 586 214 525 q 111 733 111 647 q 133 836 111 793 q 192 906 156 879 q 277 946 229 933 q 376 958 325 958 q 444 954 414 958 q 501 942 475 950 q 551 921 528 933 q 600 892 575 908 l 596 725 l 565 725 l 553 882 q 472 917 513 906 q 378 928 431 928 q 213 881 278 928 q 149 738 149 835 q 197 607 149 656 q 328 525 244 558 l 383 503 q 510 442 461 471 q 588 381 560 413 q 628 311 617 349 q 639 228 639 274 q 616 124 639 169 q 553 47 593 79 q 458 -1 513 15 q 338 -18 403 -18 q 186 6 256 -18 q 76 57 117 29 l 83 232 l 110 232 l 126 71 q 226 24 178 36 q 338 13 274 13 m 233 1201 l 386 1072 l 539 1201 l 554 1186 l 400 1028 l 372 1028 l 218 1186 l 233 1201 z "},"Ş":{"ha":715,"x_min":76,"x_max":639,"o":"m 338 13 q 443 26 394 13 q 527 65 492 39 q 582 132 563 92 q 601 226 601 172 q 592 297 601 265 q 556 355 582 328 q 488 407 531 382 q 378 460 444 432 l 326 481 q 163 586 214 525 q 111 733 111 647 q 133 836 111 793 q 192 906 156 879 q 277 946 229 933 q 376 958 325 958 q 444 954 414 958 q 501 942 475 950 q 551 921 528 933 q 600 892 575 908 l 596 725 l 565 725 l 553 882 q 472 917 513 906 q 378 928 431 928 q 213 881 278 928 q 149 738 149 835 q 197 607 149 656 q 328 525 244 558 l 383 503 q 510 442 461 471 q 588 381 560 413 q 628 311 617 349 q 639 228 639 274 q 616 124 639 169 q 553 47 593 79 q 458 -1 513 15 q 338 -18 403 -18 q 186 6 256 -18 q 76 57 117 29 l 83 232 l 110 232 l 126 71 q 226 24 178 36 q 338 13 274 13 m 314 -107 l 332 0 l 360 0 l 349 -82 q 445 -116 411 -86 q 479 -190 479 -146 q 446 -267 479 -237 q 350 -297 413 -297 q 306 -293 326 -297 q 264 -282 286 -289 l 269 -261 q 309 -268 290 -265 q 344 -271 328 -271 q 415 -249 393 -271 q 438 -192 438 -228 q 410 -131 438 -154 q 314 -107 383 -107 z "},"Ș":{"ha":715,"x_min":76,"x_max":639,"o":"m 338 13 q 443 26 394 13 q 527 65 492 39 q 582 132 563 92 q 601 226 601 172 q 592 297 601 265 q 556 355 582 328 q 488 407 531 382 q 378 460 444 432 l 326 481 q 163 586 214 525 q 111 733 111 647 q 133 836 111 793 q 192 906 156 879 q 277 946 229 933 q 376 958 325 958 q 444 954 414 958 q 501 942 475 950 q 551 921 528 933 q 600 892 575 908 l 596 725 l 565 725 l 553 882 q 472 917 513 906 q 378 928 431 928 q 213 881 278 928 q 149 738 149 835 q 197 607 149 656 q 328 525 244 558 l 383 503 q 510 442 461 471 q 588 381 560 413 q 628 311 617 349 q 639 228 639 274 q 616 124 639 169 q 553 47 593 79 q 458 -1 513 15 q 338 -18 403 -18 q 186 6 256 -18 q 76 57 117 29 l 83 232 l 110 232 l 126 71 q 226 24 178 36 q 338 13 274 13 m 431 -144 q 419 -205 431 -176 q 386 -256 407 -233 q 338 -296 365 -279 q 282 -321 311 -312 l 274 -299 q 350 -252 321 -281 q 392 -187 379 -224 q 353 -164 368 -179 q 339 -133 339 -149 q 351 -103 339 -112 q 382 -93 364 -93 q 404 -97 393 -93 q 424 -108 415 -100 q 431 -144 431 -122 z "},"Ŝ":{"ha":715,"x_min":76,"x_max":639,"o":"m 338 13 q 443 26 394 13 q 527 65 492 39 q 582 132 563 92 q 601 226 601 172 q 592 297 601 265 q 556 355 582 328 q 488 407 531 382 q 378 460 444 432 l 326 481 q 163 586 214 525 q 111 733 111 647 q 133 836 111 793 q 192 906 156 879 q 277 946 229 933 q 376 958 325 958 q 444 954 414 958 q 501 942 475 950 q 551 921 528 933 q 600 892 575 908 l 596 725 l 565 725 l 553 882 q 472 917 513 906 q 378 928 431 928 q 213 881 278 928 q 149 738 149 835 q 197 607 149 656 q 328 525 244 558 l 383 503 q 510 442 461 471 q 588 381 560 413 q 628 311 617 349 q 639 228 639 274 q 616 124 639 169 q 553 47 593 79 q 458 -1 513 15 q 338 -18 403 -18 q 186 6 256 -18 q 76 57 117 29 l 83 232 l 110 232 l 126 71 q 226 24 178 36 q 338 13 274 13 m 382 1169 l 563 1014 l 551 1000 l 372 1118 l 193 1000 l 182 1014 l 363 1169 l 382 1169 z "},"Ṡ":{"ha":715,"x_min":76,"x_max":639,"o":"m 338 13 q 443 26 394 13 q 527 65 492 39 q 582 132 563 92 q 601 226 601 172 q 592 297 601 265 q 556 355 582 328 q 488 407 531 382 q 378 460 444 432 l 326 481 q 163 586 214 525 q 111 733 111 647 q 133 836 111 793 q 192 906 156 879 q 277 946 229 933 q 376 958 325 958 q 444 954 414 958 q 501 942 475 950 q 551 921 528 933 q 600 892 575 908 l 596 725 l 565 725 l 553 882 q 472 917 513 906 q 378 928 431 928 q 213 881 278 928 q 149 738 149 835 q 197 607 149 656 q 328 525 244 558 l 383 503 q 510 442 461 471 q 588 381 560 413 q 628 311 617 349 q 639 228 639 274 q 616 124 639 169 q 553 47 593 79 q 458 -1 513 15 q 338 -18 403 -18 q 186 6 256 -18 q 76 57 117 29 l 83 232 l 110 232 l 126 71 q 226 24 178 36 q 338 13 274 13 m 372 1054 q 342 1067 356 1054 q 328 1099 328 1079 q 342 1131 328 1118 q 372 1143 356 1143 q 403 1131 389 1143 q 417 1099 417 1118 q 403 1067 417 1079 q 372 1054 389 1054 z "},"Ṣ":{"ha":715,"x_min":76,"x_max":639,"o":"m 338 13 q 443 26 394 13 q 527 65 492 39 q 582 132 563 92 q 601 226 601 172 q 592 297 601 265 q 556 355 582 328 q 488 407 531 382 q 378 460 444 432 l 326 481 q 163 586 214 525 q 111 733 111 647 q 133 836 111 793 q 192 906 156 879 q 277 946 229 933 q 376 958 325 958 q 444 954 414 958 q 501 942 475 950 q 551 921 528 933 q 600 892 575 908 l 596 725 l 565 725 l 553 882 q 472 917 513 906 q 378 928 431 928 q 213 881 278 928 q 149 738 149 835 q 197 607 149 656 q 328 525 244 558 l 383 503 q 510 442 461 471 q 588 381 560 413 q 628 311 617 349 q 639 228 639 274 q 616 124 639 169 q 553 47 593 79 q 458 -1 513 15 q 338 -18 403 -18 q 186 6 256 -18 q 76 57 117 29 l 83 232 l 110 232 l 126 71 q 226 24 178 36 q 338 13 274 13 m 369 -229 q 339 -217 353 -229 q 325 -185 325 -204 q 339 -153 325 -165 q 369 -140 353 -140 q 400 -153 386 -140 q 414 -185 414 -165 q 400 -217 414 -204 q 369 -229 386 -229 z "},"ẞ":{"ha":956,"x_min":81,"x_max":900,"o":"m 81 0 l 81 28 l 229 36 q 232 235 232 135 q 232 444 232 336 l 232 625 q 311 880 232 801 q 558 958 390 958 q 697 939 638 958 q 797 889 757 919 l 797 869 q 689 773 721 824 q 657 657 657 722 q 680 562 657 606 q 739 475 703 518 l 781 425 q 828 369 806 394 q 866 319 850 344 q 891 264 882 293 q 900 196 900 235 q 884 113 900 151 q 839 44 868 74 q 767 -1 810 15 q 672 -18 725 -18 q 562 -3 606 -18 q 481 43 518 13 l 486 232 l 514 232 l 528 53 q 592 21 560 29 q 675 13 624 13 q 753 26 718 13 q 811 65 788 40 q 847 124 835 90 q 860 196 860 157 q 852 251 860 226 q 831 297 844 275 q 797 340 817 318 q 754 390 778 363 l 715 435 q 642 539 667 490 q 618 646 618 588 q 658 782 618 728 q 772 879 697 836 q 678 915 728 903 q 557 928 629 928 q 427 912 481 928 q 340 860 374 896 q 290 767 306 825 q 274 625 274 710 l 274 444 q 274 216 274 325 q 276 0 274 107 l 81 0 z "},"Ť":{"ha":825,"x_min":28,"x_max":797,"o":"m 392 431 l 392 510 q 392 710 392 611 q 389 910 392 810 l 83 910 l 61 714 l 28 714 l 42 940 l 783 940 l 797 714 l 764 714 l 742 910 l 436 910 q 433 710 433 810 q 433 510 433 611 l 433 431 q 433 233 433 331 q 436 36 433 135 l 599 28 l 599 0 l 226 0 l 226 28 l 389 36 q 392 233 392 135 q 392 431 392 331 m 260 1201 l 413 1072 l 565 1201 l 581 1186 l 426 1028 l 399 1028 l 244 1186 l 260 1201 z "},"Ţ":{"ha":825,"x_min":28,"x_max":797,"o":"m 392 431 l 392 510 q 392 710 392 611 q 389 910 392 810 l 83 910 l 61 714 l 28 714 l 42 940 l 783 940 l 797 714 l 764 714 l 742 910 l 436 910 q 433 710 433 810 q 433 510 433 611 l 433 431 q 433 233 433 331 q 436 36 433 135 l 599 28 l 599 0 l 226 0 l 226 28 l 389 36 q 392 233 392 135 q 392 431 392 331 m 383 -107 l 401 0 l 429 0 l 418 -82 q 515 -116 481 -86 q 549 -190 549 -146 q 515 -267 549 -237 q 419 -297 482 -297 q 376 -293 396 -297 q 333 -282 356 -289 l 339 -261 q 378 -268 360 -265 q 414 -271 397 -271 q 485 -249 463 -271 q 507 -192 507 -228 q 480 -131 507 -154 q 383 -107 453 -107 z "},"Ț":{"ha":825,"x_min":28,"x_max":797,"o":"m 392 431 l 392 510 q 392 710 392 611 q 389 910 392 810 l 83 910 l 61 714 l 28 714 l 42 940 l 783 940 l 797 714 l 764 714 l 742 910 l 436 910 q 433 710 433 810 q 433 510 433 611 l 433 431 q 433 233 433 331 q 436 36 433 135 l 599 28 l 599 0 l 226 0 l 226 28 l 389 36 q 392 233 392 135 q 392 431 392 331 m 451 -144 q 440 -205 451 -176 q 407 -256 428 -233 q 359 -296 386 -279 q 303 -321 332 -312 l 294 -299 q 371 -252 342 -281 q 413 -187 400 -224 q 374 -164 389 -179 q 360 -133 360 -149 q 372 -103 360 -112 q 403 -93 385 -93 q 425 -97 414 -93 q 444 -108 436 -100 q 451 -144 451 -122 z "},"Ṭ":{"ha":825,"x_min":28,"x_max":797,"o":"m 392 431 l 392 510 q 392 710 392 611 q 389 910 392 810 l 83 910 l 61 714 l 28 714 l 42 940 l 783 940 l 797 714 l 764 714 l 742 910 l 436 910 q 433 710 433 810 q 433 510 433 611 l 433 431 q 433 233 433 331 q 436 36 433 135 l 599 28 l 599 0 l 226 0 l 226 28 l 389 36 q 392 233 392 135 q 392 431 392 331 m 414 -229 q 383 -217 397 -229 q 369 -185 369 -204 q 383 -153 369 -165 q 414 -140 397 -140 q 444 -153 431 -140 q 458 -185 458 -165 q 444 -217 458 -204 q 414 -229 431 -229 z "},"Ṯ":{"ha":825,"x_min":28,"x_max":797,"o":"m 392 431 l 392 510 q 392 710 392 611 q 389 910 392 810 l 83 910 l 61 714 l 28 714 l 42 940 l 783 940 l 797 714 l 764 714 l 742 910 l 436 910 q 433 710 433 810 q 433 510 433 611 l 433 431 q 433 233 433 331 q 436 36 433 135 l 599 28 l 599 0 l 226 0 l 226 28 l 389 36 q 392 233 392 135 q 392 431 392 331 m 247 -185 l 247 -149 l 581 -149 l 581 -185 l 247 -185 z "},"Ù":{"ha":1024,"x_min":69,"x_max":957,"o":"m 247 356 q 266 200 247 264 q 320 95 285 136 q 404 36 356 54 q 514 18 453 18 q 643 38 589 18 q 732 102 697 58 q 783 215 767 146 q 799 381 799 283 l 799 903 l 629 913 l 629 940 l 957 940 l 957 913 l 832 903 l 832 344 q 756 76 832 171 q 514 -18 679 -18 q 386 2 443 -18 q 289 66 329 22 q 227 178 249 110 q 206 346 206 247 l 206 501 q 206 703 206 603 q 203 904 206 804 l 69 913 l 69 940 l 400 940 l 400 913 l 250 904 q 247 705 247 804 q 247 501 247 606 l 247 356 m 561 1029 l 550 1014 q 469 1063 510 1038 q 392 1113 429 1089 q 342 1147 357 1136 q 328 1169 328 1157 q 335 1187 328 1181 q 353 1193 342 1193 q 376 1184 364 1193 q 418 1150 389 1175 q 487 1092 450 1122 q 561 1029 524 1061 z "},"Ú":{"ha":1024,"x_min":69,"x_max":957,"o":"m 247 356 q 266 200 247 264 q 320 95 285 136 q 404 36 356 54 q 514 18 453 18 q 643 38 589 18 q 732 102 697 58 q 783 215 767 146 q 799 381 799 283 l 799 903 l 629 913 l 629 940 l 957 940 l 957 913 l 832 903 l 832 344 q 756 76 832 171 q 514 -18 679 -18 q 386 2 443 -18 q 289 66 329 22 q 227 178 249 110 q 206 346 206 247 l 206 501 q 206 703 206 603 q 203 904 206 804 l 69 913 l 69 940 l 400 940 l 400 913 l 250 904 q 247 705 247 804 q 247 501 247 606 l 247 356 m 467 1029 q 541 1092 504 1061 q 610 1151 578 1124 q 651 1184 639 1175 q 675 1193 664 1193 q 693 1187 686 1193 q 700 1169 700 1181 q 686 1146 700 1157 q 638 1114 672 1135 q 558 1065 599 1090 q 478 1014 518 1039 l 467 1029 z "},"Û":{"ha":1024,"x_min":69,"x_max":957,"o":"m 247 356 q 266 200 247 264 q 320 95 285 136 q 404 36 356 54 q 514 18 453 18 q 643 38 589 18 q 732 102 697 58 q 783 215 767 146 q 799 381 799 283 l 799 903 l 629 913 l 629 940 l 957 940 l 957 913 l 832 903 l 832 344 q 756 76 832 171 q 514 -18 679 -18 q 386 2 443 -18 q 289 66 329 22 q 227 178 249 110 q 206 346 206 247 l 206 501 q 206 703 206 603 q 203 904 206 804 l 69 913 l 69 940 l 400 940 l 400 913 l 250 904 q 247 705 247 804 q 247 501 247 606 l 247 356 m 538 1169 l 718 1014 l 707 1000 l 528 1118 l 349 1000 l 338 1014 l 518 1169 l 538 1169 z "},"Ü":{"ha":1024,"x_min":69,"x_max":957,"o":"m 247 356 q 266 200 247 264 q 320 95 285 136 q 404 36 356 54 q 514 18 453 18 q 643 38 589 18 q 732 102 697 58 q 783 215 767 146 q 799 381 799 283 l 799 903 l 629 913 l 629 940 l 957 940 l 957 913 l 832 903 l 832 344 q 756 76 832 171 q 514 -18 679 -18 q 386 2 443 -18 q 289 66 329 22 q 227 178 249 110 q 206 346 206 247 l 206 501 q 206 703 206 603 q 203 904 206 804 l 69 913 l 69 940 l 400 940 l 400 913 l 250 904 q 247 705 247 804 q 247 501 247 606 l 247 356 m 378 1050 q 347 1062 361 1050 q 333 1094 333 1074 q 347 1127 333 1115 q 378 1139 361 1139 q 409 1127 396 1139 q 422 1094 422 1115 q 409 1062 422 1074 q 378 1050 396 1050 m 664 1050 q 633 1062 646 1050 q 619 1094 619 1074 q 633 1127 619 1115 q 664 1139 646 1139 q 694 1127 681 1139 q 708 1094 708 1115 q 694 1062 708 1074 q 664 1050 681 1050 z "},"Ū":{"ha":1024,"x_min":69,"x_max":957,"o":"m 247 356 q 266 200 247 264 q 320 95 285 136 q 404 36 356 54 q 514 18 453 18 q 643 38 589 18 q 732 102 697 58 q 783 215 767 146 q 799 381 799 283 l 799 903 l 629 913 l 629 940 l 957 940 l 957 913 l 832 903 l 832 344 q 756 76 832 171 q 514 -18 679 -18 q 386 2 443 -18 q 289 66 329 22 q 227 178 249 110 q 206 346 206 247 l 206 501 q 206 703 206 603 q 203 904 206 804 l 69 913 l 69 940 l 400 940 l 400 913 l 250 904 q 247 705 247 804 q 247 501 247 606 l 247 356 m 325 1065 l 325 1101 l 731 1101 l 731 1065 l 325 1065 z "},"Ů":{"ha":1024,"x_min":69,"x_max":957,"o":"m 247 356 q 266 200 247 264 q 320 95 285 136 q 404 36 356 54 q 514 18 453 18 q 643 38 589 18 q 732 102 697 58 q 783 215 767 146 q 799 381 799 283 l 799 903 l 629 913 l 629 940 l 957 940 l 957 913 l 832 903 l 832 344 q 756 76 832 171 q 514 -18 679 -18 q 386 2 443 -18 q 289 66 329 22 q 227 178 249 110 q 206 346 206 247 l 206 501 q 206 703 206 603 q 203 904 206 804 l 69 913 l 69 940 l 400 940 l 400 913 l 250 904 q 247 705 247 804 q 247 501 247 606 l 247 356 m 521 1001 q 442 1033 476 1001 q 407 1117 407 1064 q 442 1201 407 1169 q 521 1232 476 1232 q 600 1201 565 1232 q 635 1117 635 1169 q 600 1033 635 1064 q 521 1001 565 1001 m 521 1029 q 580 1056 557 1029 q 603 1117 603 1082 q 580 1178 603 1151 q 521 1204 557 1204 q 462 1178 485 1204 q 439 1117 439 1151 q 462 1056 439 1082 q 521 1029 485 1029 z "},"Ű":{"ha":1024,"x_min":69,"x_max":957,"o":"m 247 356 q 266 200 247 264 q 320 95 285 136 q 404 36 356 54 q 514 18 453 18 q 643 38 589 18 q 732 102 697 58 q 783 215 767 146 q 799 381 799 283 l 799 903 l 629 913 l 629 940 l 957 940 l 957 913 l 832 903 l 832 344 q 756 76 832 171 q 514 -18 679 -18 q 386 2 443 -18 q 289 66 329 22 q 227 178 249 110 q 206 346 206 247 l 206 501 q 206 703 206 603 q 203 904 206 804 l 69 913 l 69 940 l 400 940 l 400 913 l 250 904 q 247 705 247 804 q 247 501 247 606 l 247 356 m 408 1019 l 521 1178 q 556 1203 538 1203 q 571 1196 565 1203 q 576 1182 576 1189 q 573 1165 576 1171 q 558 1147 569 1158 l 425 1007 l 408 1019 m 590 1019 l 703 1178 q 738 1203 719 1203 q 753 1196 747 1203 q 758 1182 758 1189 q 755 1165 758 1171 q 740 1147 751 1158 l 607 1007 l 590 1019 z "},"Ų":{"ha":1024,"x_min":69,"x_max":957,"o":"m 69 913 l 69 940 l 400 940 l 400 913 l 250 904 q 247 705 247 804 q 247 501 247 606 l 247 353 q 266 197 247 261 q 320 94 285 133 q 404 36 356 54 q 514 18 453 18 q 643 38 589 18 q 732 100 697 57 q 783 212 767 143 q 799 378 799 281 l 799 903 l 629 913 l 629 940 l 957 940 l 957 913 l 832 903 l 832 342 q 696 26 832 110 q 599 -68 629 -15 q 569 -164 569 -121 q 599 -244 569 -217 q 676 -271 629 -271 q 722 -263 701 -271 q 768 -235 743 -256 l 782 -249 q 734 -289 764 -274 q 664 -304 704 -304 q 568 -270 606 -304 q 531 -179 531 -236 q 556 -85 531 -131 q 626 -4 582 -40 q 574 -15 601 -11 q 514 -18 546 -18 q 386 1 443 -18 q 289 65 329 21 q 227 176 249 108 q 206 343 206 244 l 206 501 q 206 703 206 603 q 203 904 206 804 l 69 913 z "},"Ŭ":{"ha":1024,"x_min":69,"x_max":957,"o":"m 247 356 q 266 200 247 264 q 320 95 285 136 q 404 36 356 54 q 514 18 453 18 q 643 38 589 18 q 732 102 697 58 q 783 215 767 146 q 799 381 799 283 l 799 903 l 629 913 l 629 940 l 957 940 l 957 913 l 832 903 l 832 344 q 756 76 832 171 q 514 -18 679 -18 q 386 2 443 -18 q 289 66 329 22 q 227 178 249 110 q 206 346 206 247 l 206 501 q 206 703 206 603 q 203 904 206 804 l 69 913 l 69 940 l 400 940 l 400 913 l 250 904 q 247 705 247 804 q 247 501 247 606 l 247 356 m 325 1186 l 346 1193 q 405 1097 365 1132 q 511 1061 444 1061 q 617 1097 578 1061 q 676 1193 657 1132 l 697 1186 q 676 1128 690 1157 q 640 1076 663 1100 q 585 1038 617 1053 q 511 1024 553 1024 q 438 1038 469 1024 q 383 1076 406 1053 q 345 1128 360 1100 q 325 1186 331 1157 z "},"Ǔ":{"ha":1024,"x_min":69,"x_max":957,"o":"m 247 356 q 266 200 247 264 q 320 95 285 136 q 404 36 356 54 q 514 18 453 18 q 643 38 589 18 q 732 102 697 58 q 783 215 767 146 q 799 381 799 283 l 799 903 l 629 913 l 629 940 l 957 940 l 957 913 l 832 903 l 832 344 q 756 76 832 171 q 514 -18 679 -18 q 386 2 443 -18 q 289 66 329 22 q 227 178 249 110 q 206 346 206 247 l 206 501 q 206 703 206 603 q 203 904 206 804 l 69 913 l 69 940 l 400 940 l 400 913 l 250 904 q 247 705 247 804 q 247 501 247 606 l 247 356 m 364 1201 l 517 1072 l 669 1201 l 685 1186 l 531 1028 l 503 1028 l 349 1186 l 364 1201 z "},"Ǘ":{"ha":1024,"x_min":69,"x_max":957,"o":"m 247 356 q 266 200 247 264 q 320 95 285 136 q 404 36 356 54 q 514 18 453 18 q 643 38 589 18 q 732 102 697 58 q 783 215 767 146 q 799 381 799 283 l 799 903 l 629 913 l 629 940 l 957 940 l 957 913 l 832 903 l 832 344 q 756 76 832 171 q 514 -18 679 -18 q 386 2 443 -18 q 289 66 329 22 q 227 178 249 110 q 206 346 206 247 l 206 501 q 206 703 206 603 q 203 904 206 804 l 69 913 l 69 940 l 400 940 l 400 913 l 250 904 q 247 705 247 804 q 247 501 247 606 l 247 356 m 335 1094 q 349 1127 335 1115 q 379 1139 363 1139 q 410 1127 397 1139 q 424 1094 424 1115 q 410 1062 424 1074 q 379 1050 397 1050 q 349 1062 363 1050 q 335 1094 335 1074 m 503 1131 l 489 1146 l 604 1261 q 635 1289 625 1282 q 656 1296 644 1296 q 674 1290 667 1296 q 681 1272 681 1283 q 669 1250 681 1260 q 625 1218 657 1240 l 503 1131 m 621 1094 q 634 1127 621 1115 q 665 1139 647 1139 q 696 1127 682 1139 q 710 1094 710 1115 q 696 1062 710 1074 q 665 1050 682 1050 q 634 1062 647 1050 q 621 1094 621 1074 z "},"Ǚ":{"ha":1024,"x_min":69,"x_max":957,"o":"m 247 356 q 266 200 247 264 q 320 95 285 136 q 404 36 356 54 q 514 18 453 18 q 643 38 589 18 q 732 102 697 58 q 783 215 767 146 q 799 381 799 283 l 799 903 l 629 913 l 629 940 l 957 940 l 957 913 l 832 903 l 832 344 q 756 76 832 171 q 514 -18 679 -18 q 386 2 443 -18 q 289 66 329 22 q 227 178 249 110 q 206 346 206 247 l 206 501 q 206 703 206 603 q 203 904 206 804 l 69 913 l 69 940 l 400 940 l 400 913 l 250 904 q 247 705 247 804 q 247 501 247 606 l 247 356 m 378 1050 q 347 1062 361 1050 q 333 1094 333 1074 q 347 1127 333 1115 q 378 1139 361 1139 q 409 1127 396 1139 q 422 1094 422 1115 q 409 1062 422 1074 q 378 1050 396 1050 m 664 1050 q 633 1062 646 1050 q 619 1094 619 1074 q 633 1127 619 1115 q 664 1139 646 1139 q 694 1127 681 1139 q 708 1094 708 1115 q 694 1062 708 1074 q 664 1050 681 1050 m 368 1332 l 521 1203 l 674 1332 l 689 1317 l 535 1158 l 507 1158 l 353 1317 l 368 1332 z "},"Ǜ":{"ha":1024,"x_min":69,"x_max":957,"o":"m 247 356 q 266 200 247 264 q 320 95 285 136 q 404 36 356 54 q 514 18 453 18 q 643 38 589 18 q 732 102 697 58 q 783 215 767 146 q 799 381 799 283 l 799 903 l 629 913 l 629 940 l 957 940 l 957 913 l 832 903 l 832 344 q 756 76 832 171 q 514 -18 679 -18 q 386 2 443 -18 q 289 66 329 22 q 227 178 249 110 q 206 346 206 247 l 206 501 q 206 703 206 603 q 203 904 206 804 l 69 913 l 69 940 l 400 940 l 400 913 l 250 904 q 247 705 247 804 q 247 501 247 606 l 247 356 m 333 1094 q 347 1127 333 1115 q 378 1139 361 1139 q 409 1127 396 1139 q 422 1094 422 1115 q 409 1062 422 1074 q 378 1050 396 1050 q 347 1062 361 1050 q 333 1094 333 1074 m 418 1218 q 374 1250 386 1240 q 363 1272 363 1260 q 369 1290 363 1283 q 388 1296 376 1296 q 408 1289 399 1296 q 439 1261 418 1282 l 554 1146 l 540 1131 l 418 1218 m 619 1094 q 633 1127 619 1115 q 664 1139 646 1139 q 694 1127 681 1139 q 708 1094 708 1115 q 694 1062 708 1074 q 664 1050 681 1050 q 633 1062 646 1050 q 619 1094 619 1074 z "},"Ǖ":{"ha":1024,"x_min":69,"x_max":957,"o":"m 247 356 q 266 200 247 264 q 320 95 285 136 q 404 36 356 54 q 514 18 453 18 q 643 38 589 18 q 732 102 697 58 q 783 215 767 146 q 799 381 799 283 l 799 903 l 629 913 l 629 940 l 957 940 l 957 913 l 832 903 l 832 344 q 756 76 832 171 q 514 -18 679 -18 q 386 2 443 -18 q 289 66 329 22 q 227 178 249 110 q 206 346 206 247 l 206 501 q 206 703 206 603 q 203 904 206 804 l 69 913 l 69 940 l 400 940 l 400 913 l 250 904 q 247 705 247 804 q 247 501 247 606 l 247 356 m 378 1050 q 347 1062 361 1050 q 333 1094 333 1074 q 347 1127 333 1115 q 378 1139 361 1139 q 409 1127 396 1139 q 422 1094 422 1115 q 409 1062 422 1074 q 378 1050 396 1050 m 664 1050 q 633 1062 646 1050 q 619 1094 619 1074 q 633 1127 619 1115 q 664 1139 646 1139 q 694 1127 681 1139 q 708 1094 708 1115 q 694 1062 708 1074 q 664 1050 681 1050 m 318 1251 l 318 1288 l 724 1288 l 724 1251 l 318 1251 z "},"Ụ":{"ha":1024,"x_min":69,"x_max":957,"o":"m 247 356 q 266 200 247 264 q 320 95 285 136 q 404 36 356 54 q 514 18 453 18 q 643 38 589 18 q 732 102 697 58 q 783 215 767 146 q 799 381 799 283 l 799 903 l 629 913 l 629 940 l 957 940 l 957 913 l 832 903 l 832 344 q 756 76 832 171 q 514 -18 679 -18 q 386 2 443 -18 q 289 66 329 22 q 227 178 249 110 q 206 346 206 247 l 206 501 q 206 703 206 603 q 203 904 206 804 l 69 913 l 69 940 l 400 940 l 400 913 l 250 904 q 247 705 247 804 q 247 501 247 606 l 247 356 m 525 -229 q 494 -217 508 -229 q 481 -185 481 -204 q 494 -153 481 -165 q 525 -140 508 -140 q 556 -153 542 -140 q 569 -185 569 -165 q 556 -217 569 -204 q 525 -229 542 -229 z "},"Ủ":{"ha":1024,"x_min":69,"x_max":957,"o":"m 247 356 q 266 200 247 264 q 320 95 285 136 q 404 36 356 54 q 514 18 453 18 q 643 38 589 18 q 732 102 697 58 q 783 215 767 146 q 799 381 799 283 l 799 903 l 629 913 l 629 940 l 957 940 l 957 913 l 832 903 l 832 344 q 756 76 832 171 q 514 -18 679 -18 q 386 2 443 -18 q 289 66 329 22 q 227 178 249 110 q 206 346 206 247 l 206 501 q 206 703 206 603 q 203 904 206 804 l 69 913 l 69 940 l 400 940 l 400 913 l 250 904 q 247 705 247 804 q 247 501 247 606 l 247 356 m 486 1003 l 481 1024 q 553 1051 531 1035 q 575 1093 575 1067 q 570 1118 575 1107 q 553 1138 565 1129 q 517 1152 540 1146 q 458 1165 494 1158 l 464 1200 q 580 1163 547 1189 q 613 1097 613 1138 q 579 1035 613 1061 q 486 1003 546 1010 z "},"Ư":{"ha":1024,"x_min":69,"x_max":1007,"o":"m 247 356 q 266 200 247 264 q 320 95 285 136 q 404 36 356 54 q 514 18 453 18 q 643 38 589 18 q 732 102 697 58 q 783 215 767 146 q 799 381 799 283 l 799 903 l 629 913 l 629 940 l 832 940 l 832 861 q 897 881 871 867 q 938 915 922 896 q 959 957 953 935 q 965 1000 965 979 q 953 1058 965 1039 q 942 1093 942 1078 q 950 1111 942 1104 q 969 1118 958 1118 q 985 1115 979 1118 q 999 1082 992 1104 q 1007 1028 1007 1060 q 999 967 1007 999 q 970 908 990 935 q 916 861 950 881 q 832 838 882 842 l 832 344 q 756 76 832 171 q 514 -18 679 -18 q 386 2 443 -18 q 289 66 329 22 q 227 178 249 110 q 206 346 206 247 l 206 501 q 206 703 206 603 q 203 904 206 804 l 69 913 l 69 940 l 400 940 l 400 913 l 250 904 q 247 705 247 804 q 247 501 247 606 l 247 356 z "},"Ứ":{"ha":1024,"x_min":69,"x_max":1007,"o":"m 247 356 q 266 200 247 264 q 320 95 285 136 q 404 36 356 54 q 514 18 453 18 q 643 38 589 18 q 732 102 697 58 q 783 215 767 146 q 799 381 799 283 l 799 903 l 629 913 l 629 940 l 832 940 l 832 861 q 897 881 871 867 q 938 915 922 896 q 959 957 953 935 q 965 1000 965 979 q 953 1058 965 1039 q 942 1093 942 1078 q 950 1111 942 1104 q 969 1118 958 1118 q 985 1115 979 1118 q 999 1082 992 1104 q 1007 1028 1007 1060 q 999 967 1007 999 q 970 908 990 935 q 916 861 950 881 q 832 838 882 842 l 832 344 q 756 76 832 171 q 514 -18 679 -18 q 386 2 443 -18 q 289 66 329 22 q 227 178 249 110 q 206 346 206 247 l 206 501 q 206 703 206 603 q 203 904 206 804 l 69 913 l 69 940 l 400 940 l 400 913 l 250 904 q 247 705 247 804 q 247 501 247 606 l 247 356 m 469 1029 q 544 1092 507 1061 q 613 1151 581 1124 q 654 1184 642 1175 q 678 1193 667 1193 q 696 1187 689 1193 q 703 1169 703 1181 q 689 1146 703 1157 q 640 1114 675 1135 q 561 1065 601 1090 q 481 1014 521 1039 l 469 1029 z "},"Ự":{"ha":1024,"x_min":69,"x_max":1007,"o":"m 247 356 q 266 200 247 264 q 320 95 285 136 q 404 36 356 54 q 514 18 453 18 q 643 38 589 18 q 732 102 697 58 q 783 215 767 146 q 799 381 799 283 l 799 903 l 629 913 l 629 940 l 832 940 l 832 861 q 897 881 871 867 q 938 915 922 896 q 959 957 953 935 q 965 1000 965 979 q 953 1058 965 1039 q 942 1093 942 1078 q 950 1111 942 1104 q 969 1118 958 1118 q 985 1115 979 1118 q 999 1082 992 1104 q 1007 1028 1007 1060 q 999 967 1007 999 q 970 908 990 935 q 916 861 950 881 q 832 838 882 842 l 832 344 q 756 76 832 171 q 514 -18 679 -18 q 386 2 443 -18 q 289 66 329 22 q 227 178 249 110 q 206 346 206 247 l 206 501 q 206 703 206 603 q 203 904 206 804 l 69 913 l 69 940 l 400 940 l 400 913 l 250 904 q 247 705 247 804 q 247 501 247 606 l 247 356 m 517 -229 q 486 -217 500 -229 q 472 -185 472 -204 q 486 -153 472 -165 q 517 -140 500 -140 q 547 -153 533 -140 q 561 -185 561 -165 q 547 -217 561 -204 q 517 -229 533 -229 z "},"Ừ":{"ha":1024,"x_min":69,"x_max":1007,"o":"m 247 356 q 266 200 247 264 q 320 95 285 136 q 404 36 356 54 q 514 18 453 18 q 643 38 589 18 q 732 102 697 58 q 783 215 767 146 q 799 381 799 283 l 799 903 l 629 913 l 629 940 l 832 940 l 832 861 q 897 881 871 867 q 938 915 922 896 q 959 957 953 935 q 965 1000 965 979 q 953 1058 965 1039 q 942 1093 942 1078 q 950 1111 942 1104 q 969 1118 958 1118 q 985 1115 979 1118 q 999 1082 992 1104 q 1007 1028 1007 1060 q 999 967 1007 999 q 970 908 990 935 q 916 861 950 881 q 832 838 882 842 l 832 344 q 756 76 832 171 q 514 -18 679 -18 q 386 2 443 -18 q 289 66 329 22 q 227 178 249 110 q 206 346 206 247 l 206 501 q 206 703 206 603 q 203 904 206 804 l 69 913 l 69 940 l 400 940 l 400 913 l 250 904 q 247 705 247 804 q 247 501 247 606 l 247 356 m 564 1029 l 553 1014 q 472 1063 513 1038 q 394 1113 432 1089 q 345 1147 360 1136 q 331 1169 331 1157 q 338 1187 331 1181 q 356 1193 344 1193 q 379 1184 367 1193 q 421 1150 392 1175 q 490 1092 453 1122 q 564 1029 526 1061 z "},"Ử":{"ha":1024,"x_min":69,"x_max":1007,"o":"m 247 356 q 266 200 247 264 q 320 95 285 136 q 404 36 356 54 q 514 18 453 18 q 643 38 589 18 q 732 102 697 58 q 783 215 767 146 q 799 381 799 283 l 799 903 l 629 913 l 629 940 l 832 940 l 832 861 q 897 881 871 867 q 938 915 922 896 q 959 957 953 935 q 965 1000 965 979 q 953 1058 965 1039 q 942 1093 942 1078 q 950 1111 942 1104 q 969 1118 958 1118 q 985 1115 979 1118 q 999 1082 992 1104 q 1007 1028 1007 1060 q 999 967 1007 999 q 970 908 990 935 q 916 861 950 881 q 832 838 882 842 l 832 344 q 756 76 832 171 q 514 -18 679 -18 q 386 2 443 -18 q 289 66 329 22 q 227 178 249 110 q 206 346 206 247 l 206 501 q 206 703 206 603 q 203 904 206 804 l 69 913 l 69 940 l 400 940 l 400 913 l 250 904 q 247 705 247 804 q 247 501 247 606 l 247 356 m 478 1003 l 472 1024 q 544 1051 522 1035 q 567 1093 567 1067 q 562 1118 567 1107 q 544 1138 557 1129 q 509 1152 532 1146 q 450 1165 486 1158 l 456 1200 q 572 1163 539 1189 q 604 1097 604 1138 q 571 1035 604 1061 q 478 1003 538 1010 z "},"Ữ":{"ha":1024,"x_min":69,"x_max":1007,"o":"m 247 356 q 266 200 247 264 q 320 95 285 136 q 404 36 356 54 q 514 18 453 18 q 643 38 589 18 q 732 102 697 58 q 783 215 767 146 q 799 381 799 283 l 799 903 l 629 913 l 629 940 l 832 940 l 832 861 q 897 881 871 867 q 938 915 922 896 q 959 957 953 935 q 965 1000 965 979 q 953 1058 965 1039 q 942 1093 942 1078 q 950 1111 942 1104 q 969 1118 958 1118 q 985 1115 979 1118 q 999 1082 992 1104 q 1007 1028 1007 1060 q 999 967 1007 999 q 970 908 990 935 q 916 861 950 881 q 832 838 882 842 l 832 344 q 756 76 832 171 q 514 -18 679 -18 q 386 2 443 -18 q 289 66 329 22 q 227 178 249 110 q 206 346 206 247 l 206 501 q 206 703 206 603 q 203 904 206 804 l 69 913 l 69 940 l 400 940 l 400 913 l 250 904 q 247 705 247 804 q 247 501 247 606 l 247 356 m 283 1046 q 326 1138 293 1103 q 410 1174 358 1174 q 477 1156 450 1174 q 524 1114 504 1138 q 565 1076 546 1090 q 617 1061 585 1061 q 678 1087 654 1061 q 717 1163 701 1113 l 739 1156 q 697 1065 729 1100 q 611 1029 664 1029 q 544 1047 571 1029 q 499 1088 518 1065 q 457 1126 476 1111 q 406 1142 438 1142 q 344 1115 368 1142 q 306 1039 321 1089 l 283 1046 z "},"Ũ":{"ha":1024,"x_min":69,"x_max":957,"o":"m 247 356 q 266 200 247 264 q 320 95 285 136 q 404 36 356 54 q 514 18 453 18 q 643 38 589 18 q 732 102 697 58 q 783 215 767 146 q 799 381 799 283 l 799 903 l 629 913 l 629 940 l 957 940 l 957 913 l 832 903 l 832 344 q 756 76 832 171 q 514 -18 679 -18 q 386 2 443 -18 q 289 66 329 22 q 227 178 249 110 q 206 346 206 247 l 206 501 q 206 703 206 603 q 203 904 206 804 l 69 913 l 69 940 l 400 940 l 400 913 l 250 904 q 247 705 247 804 q 247 501 247 606 l 247 356 m 283 1046 q 326 1138 293 1103 q 410 1174 358 1174 q 477 1156 450 1174 q 524 1114 504 1138 q 565 1076 546 1090 q 617 1061 585 1061 q 678 1087 654 1061 q 717 1163 701 1113 l 739 1156 q 697 1065 729 1100 q 611 1029 664 1029 q 544 1047 571 1029 q 499 1088 518 1065 q 457 1126 476 1111 q 406 1142 438 1142 q 344 1115 368 1142 q 306 1039 321 1089 l 283 1046 z "},"Ẃ":{"ha":1342,"x_min":15,"x_max":1328,"o":"m 922 -10 l 672 851 l 422 -10 l 394 -10 l 147 904 l 15 913 l 15 940 l 332 940 l 332 913 l 189 904 l 415 67 l 657 904 l 525 913 l 525 940 l 842 940 l 842 913 l 699 903 l 942 63 l 1150 903 l 1011 913 l 1011 940 l 1328 940 l 1328 913 l 1186 903 l 950 -10 l 922 -10 m 610 1029 q 684 1092 647 1061 q 753 1151 721 1124 q 794 1184 782 1175 q 818 1193 807 1193 q 836 1187 829 1193 q 843 1169 843 1181 q 829 1146 843 1157 q 781 1114 815 1135 q 701 1065 742 1090 q 621 1014 661 1039 l 610 1029 z "},"Ŵ":{"ha":1342,"x_min":15,"x_max":1328,"o":"m 922 -10 l 672 851 l 422 -10 l 394 -10 l 147 904 l 15 913 l 15 940 l 332 940 l 332 913 l 189 904 l 415 67 l 657 904 l 525 913 l 525 940 l 842 940 l 842 913 l 699 903 l 942 63 l 1150 903 l 1011 913 l 1011 940 l 1328 940 l 1328 913 l 1186 903 l 950 -10 l 922 -10 m 681 1169 l 861 1014 l 850 1000 l 671 1118 l 492 1000 l 481 1014 l 661 1169 l 681 1169 z "},"Ẅ":{"ha":1342,"x_min":15,"x_max":1328,"o":"m 922 -10 l 672 851 l 422 -10 l 394 -10 l 147 904 l 15 913 l 15 940 l 332 940 l 332 913 l 189 904 l 415 67 l 657 904 l 525 913 l 525 940 l 842 940 l 842 913 l 699 903 l 942 63 l 1150 903 l 1011 913 l 1011 940 l 1328 940 l 1328 913 l 1186 903 l 950 -10 l 922 -10 m 528 1050 q 497 1062 511 1050 q 483 1094 483 1074 q 497 1127 483 1115 q 528 1139 511 1139 q 559 1127 546 1139 q 572 1094 572 1115 q 559 1062 572 1074 q 528 1050 546 1050 m 814 1050 q 783 1062 796 1050 q 769 1094 769 1074 q 783 1127 769 1115 q 814 1139 796 1139 q 844 1127 831 1139 q 858 1094 858 1115 q 844 1062 858 1074 q 814 1050 831 1050 z "},"Ẁ":{"ha":1342,"x_min":15,"x_max":1328,"o":"m 922 -10 l 672 851 l 422 -10 l 394 -10 l 147 904 l 15 913 l 15 940 l 332 940 l 332 913 l 189 904 l 415 67 l 657 904 l 525 913 l 525 940 l 842 940 l 842 913 l 699 903 l 942 63 l 1150 903 l 1011 913 l 1011 940 l 1328 940 l 1328 913 l 1186 903 l 950 -10 l 922 -10 m 732 1029 l 721 1014 q 640 1063 681 1038 q 563 1113 600 1089 q 513 1147 528 1136 q 499 1169 499 1157 q 506 1187 499 1181 q 524 1193 513 1193 q 547 1184 535 1193 q 589 1150 560 1175 q 658 1092 621 1122 q 732 1029 694 1061 z "},"Ý":{"ha":882,"x_min":43,"x_max":846,"o":"m 628 0 l 256 0 l 256 28 l 419 36 q 420 106 419 75 q 421 174 421 138 q 421 257 421 210 q 421 378 421 304 l 156 904 l 43 913 l 43 940 l 353 940 l 353 913 l 200 903 l 446 411 l 690 903 l 536 913 l 536 940 l 846 940 l 846 913 l 726 904 l 463 379 q 463 255 463 304 q 463 169 463 206 q 463 103 463 133 q 464 36 464 74 l 628 28 l 628 0 m 411 1029 q 485 1092 449 1061 q 554 1151 522 1124 q 596 1184 583 1175 q 619 1193 608 1193 q 638 1187 631 1193 q 644 1169 644 1181 q 631 1146 644 1157 q 582 1114 617 1135 q 503 1065 543 1090 q 422 1014 463 1039 l 411 1029 z "},"Ÿ":{"ha":882,"x_min":43,"x_max":846,"o":"m 628 0 l 256 0 l 256 28 l 419 36 q 420 106 419 75 q 421 174 421 138 q 421 257 421 210 q 421 378 421 304 l 156 904 l 43 913 l 43 940 l 353 940 l 353 913 l 200 903 l 446 411 l 690 903 l 536 913 l 536 940 l 846 940 l 846 913 l 726 904 l 463 379 q 463 255 463 304 q 463 169 463 206 q 463 103 463 133 q 464 36 464 74 l 628 28 l 628 0 m 315 1050 q 285 1062 299 1050 q 271 1094 271 1074 q 285 1127 271 1115 q 315 1139 299 1139 q 347 1127 333 1139 q 360 1094 360 1115 q 347 1062 360 1074 q 315 1050 333 1050 m 601 1050 q 570 1062 583 1050 q 557 1094 557 1074 q 570 1127 557 1115 q 601 1139 583 1139 q 632 1127 618 1139 q 646 1094 646 1115 q 632 1062 646 1074 q 601 1050 618 1050 z "},"Ŷ":{"ha":882,"x_min":43,"x_max":846,"o":"m 628 0 l 256 0 l 256 28 l 419 36 q 420 106 419 75 q 421 174 421 138 q 421 257 421 210 q 421 378 421 304 l 156 904 l 43 913 l 43 940 l 353 940 l 353 913 l 200 903 l 446 411 l 690 903 l 536 913 l 536 940 l 846 940 l 846 913 l 726 904 l 463 379 q 463 255 463 304 q 463 169 463 206 q 463 103 463 133 q 464 36 464 74 l 628 28 l 628 0 m 450 1169 l 631 1014 l 619 1000 l 440 1118 l 261 1000 l 250 1014 l 431 1169 l 450 1169 z "},"Ẏ":{"ha":882,"x_min":43,"x_max":846,"o":"m 628 0 l 256 0 l 256 28 l 419 36 q 420 106 419 75 q 421 174 421 138 q 421 257 421 210 q 421 378 421 304 l 156 904 l 43 913 l 43 940 l 353 940 l 353 913 l 200 903 l 446 411 l 690 903 l 536 913 l 536 940 l 846 940 l 846 913 l 726 904 l 463 379 q 463 255 463 304 q 463 169 463 206 q 463 103 463 133 q 464 36 464 74 l 628 28 l 628 0 m 443 1054 q 413 1067 426 1054 q 399 1099 399 1079 q 413 1131 399 1118 q 443 1143 426 1143 q 474 1131 460 1143 q 488 1099 488 1118 q 474 1067 488 1079 q 443 1054 460 1054 z "},"Ỵ":{"ha":882,"x_min":43,"x_max":846,"o":"m 628 0 l 256 0 l 256 28 l 419 36 q 420 106 419 75 q 421 174 421 138 q 421 257 421 210 q 421 378 421 304 l 156 904 l 43 913 l 43 940 l 353 940 l 353 913 l 200 903 l 446 411 l 690 903 l 536 913 l 536 940 l 846 940 l 846 913 l 726 904 l 463 379 q 463 255 463 304 q 463 169 463 206 q 463 103 463 133 q 464 36 464 74 l 628 28 l 628 0 m 443 -229 q 413 -217 426 -229 q 399 -185 399 -204 q 413 -153 399 -165 q 443 -140 426 -140 q 474 -153 460 -140 q 488 -185 488 -165 q 474 -217 488 -204 q 443 -229 460 -229 z "},"Ỳ":{"ha":882,"x_min":43,"x_max":846,"o":"m 628 0 l 256 0 l 256 28 l 419 36 q 420 106 419 75 q 421 174 421 138 q 421 257 421 210 q 421 378 421 304 l 156 904 l 43 913 l 43 940 l 353 940 l 353 913 l 200 903 l 446 411 l 690 903 l 536 913 l 536 940 l 846 940 l 846 913 l 726 904 l 463 379 q 463 255 463 304 q 463 169 463 206 q 463 103 463 133 q 464 36 464 74 l 628 28 l 628 0 m 501 1029 l 490 1014 q 410 1063 450 1038 q 332 1113 369 1089 q 283 1147 297 1136 q 268 1169 268 1157 q 275 1187 268 1181 q 293 1193 282 1193 q 317 1184 304 1193 q 358 1150 329 1175 q 427 1092 390 1122 q 501 1029 464 1061 z "},"Ỷ":{"ha":882,"x_min":43,"x_max":846,"o":"m 628 0 l 256 0 l 256 28 l 419 36 q 420 106 419 75 q 421 174 421 138 q 421 257 421 210 q 421 378 421 304 l 156 904 l 43 913 l 43 940 l 353 940 l 353 913 l 200 903 l 446 411 l 690 903 l 536 913 l 536 940 l 846 940 l 846 913 l 726 904 l 463 379 q 463 255 463 304 q 463 169 463 206 q 463 103 463 133 q 464 36 464 74 l 628 28 l 628 0 m 415 1003 l 410 1024 q 482 1051 460 1035 q 504 1093 504 1067 q 499 1118 504 1107 q 482 1138 494 1129 q 447 1152 469 1146 q 388 1165 424 1158 l 393 1200 q 509 1163 476 1189 q 542 1097 542 1138 q 508 1035 542 1061 q 415 1003 475 1010 z "},"Ỹ":{"ha":882,"x_min":43,"x_max":846,"o":"m 628 0 l 256 0 l 256 28 l 419 36 q 420 106 419 75 q 421 174 421 138 q 421 257 421 210 q 421 378 421 304 l 156 904 l 43 913 l 43 940 l 353 940 l 353 913 l 200 903 l 446 411 l 690 903 l 536 913 l 536 940 l 846 940 l 846 913 l 726 904 l 463 379 q 463 255 463 304 q 463 169 463 206 q 463 103 463 133 q 464 36 464 74 l 628 28 l 628 0 m 213 1046 q 255 1138 222 1103 q 339 1174 288 1174 q 406 1156 379 1174 q 453 1114 433 1138 q 494 1076 475 1090 q 546 1061 514 1061 q 607 1087 583 1061 q 646 1163 631 1113 l 668 1156 q 626 1065 658 1100 q 540 1029 593 1029 q 474 1047 500 1029 q 428 1088 447 1065 q 386 1126 406 1111 q 335 1142 367 1142 q 274 1115 297 1142 q 235 1039 250 1089 l 213 1046 z "},"Ź":{"ha":771,"x_min":42,"x_max":729,"o":"m 699 226 l 729 226 l 715 0 l 42 0 l 42 28 l 656 910 l 119 910 l 93 714 l 63 714 l 74 940 l 703 940 l 703 913 l 92 31 l 669 31 l 699 226 m 325 1029 q 399 1092 363 1061 q 468 1151 436 1124 q 510 1184 497 1175 q 533 1193 522 1193 q 551 1187 544 1193 q 558 1169 558 1181 q 544 1146 558 1157 q 496 1114 531 1135 q 417 1065 457 1090 q 336 1014 376 1039 l 325 1029 z "},"Ž":{"ha":771,"x_min":42,"x_max":729,"o":"m 699 226 l 729 226 l 715 0 l 42 0 l 42 28 l 656 910 l 119 910 l 93 714 l 63 714 l 74 940 l 703 940 l 703 913 l 92 31 l 669 31 l 699 226 m 242 1201 l 394 1072 l 547 1201 l 563 1186 l 408 1028 l 381 1028 l 226 1186 l 242 1201 z "},"Ż":{"ha":771,"x_min":42,"x_max":729,"o":"m 699 226 l 729 226 l 715 0 l 42 0 l 42 28 l 656 910 l 119 910 l 93 714 l 63 714 l 74 940 l 703 940 l 703 913 l 92 31 l 669 31 l 699 226 m 392 1054 q 361 1067 375 1054 q 347 1099 347 1079 q 361 1131 347 1118 q 392 1143 375 1143 q 422 1131 408 1143 q 436 1099 436 1118 q 422 1067 436 1079 q 392 1054 408 1054 z "},"Ẓ":{"ha":771,"x_min":42,"x_max":729,"o":"m 699 226 l 729 226 l 715 0 l 42 0 l 42 28 l 656 910 l 119 910 l 93 714 l 63 714 l 74 940 l 703 940 l 703 913 l 92 31 l 669 31 l 699 226 m 401 -229 q 371 -217 385 -229 q 357 -185 357 -204 q 371 -153 357 -165 q 401 -140 385 -140 q 432 -153 418 -140 q 446 -185 446 -165 q 432 -217 446 -204 q 401 -229 418 -229 z "},"Ð":{"ha":985,"x_min":81,"x_max":896,"o":"m 540 467 l 274 467 q 274 228 274 332 q 276 31 274 125 l 407 31 q 603 62 519 31 q 742 150 688 93 q 824 288 797 207 q 851 469 851 369 q 744 797 851 685 q 428 910 638 910 l 276 910 q 274 708 274 810 q 274 497 274 607 l 540 497 l 540 467 m 81 0 l 81 28 l 229 36 q 232 239 232 135 q 232 467 232 343 l 81 467 l 81 497 l 232 497 q 232 712 232 614 q 229 904 232 810 l 81 913 l 81 940 l 438 940 q 776 819 657 940 q 896 469 896 697 q 865 277 896 364 q 776 129 835 190 q 628 34 717 68 q 425 0 540 0 l 81 0 z "},"Þ":{"ha":824,"x_min":81,"x_max":757,"o":"m 232 431 l 232 510 q 232 708 232 610 q 229 904 232 806 l 81 913 l 81 940 l 432 940 l 432 913 l 276 904 q 275 829 275 867 q 274 754 275 792 l 421 754 q 575 735 511 754 q 679 681 639 715 q 738 598 719 646 q 757 493 757 550 q 738 394 757 440 q 679 315 719 349 q 575 263 639 282 q 421 243 511 243 l 274 243 q 274 140 274 190 q 276 36 275 89 l 432 28 l 432 0 l 81 0 l 81 28 l 229 36 q 232 233 232 135 q 232 431 232 331 m 274 431 l 274 274 l 421 274 q 647 333 578 274 q 717 499 717 392 q 647 665 717 606 q 421 724 578 724 l 274 724 l 274 510 l 274 431 z "},"Ə":{"ha":913,"x_min":88,"x_max":825,"o":"m 88 382 q 90 448 88 422 q 99 494 93 474 l 783 494 q 749 690 781 608 q 667 825 718 772 q 550 903 615 878 q 415 928 485 928 q 269 894 333 928 q 153 803 206 861 l 138 819 q 264 922 192 886 q 421 958 336 958 q 570 931 497 958 q 699 844 643 903 q 790 694 756 786 q 825 475 825 603 q 797 265 825 357 q 719 110 768 174 q 602 15 669 47 q 457 -18 535 -18 q 294 14 364 -18 q 179 100 225 46 q 110 227 133 154 q 88 382 88 300 m 461 13 q 597 46 538 13 q 697 140 656 79 q 759 283 738 200 q 783 464 781 365 l 135 464 q 131 429 132 443 q 129 386 129 415 q 149 244 129 311 q 210 125 169 176 q 314 43 251 74 q 461 13 376 13 z "},"à":{"ha":701,"x_min":79,"x_max":675,"o":"m 261 18 q 374 51 321 18 q 493 156 428 85 l 493 381 q 390 353 443 368 q 288 321 336 339 q 121 153 121 260 q 158 53 121 89 q 261 18 196 18 m 590 -18 q 522 18 543 -18 q 494 122 500 54 q 376 17 431 51 q 250 -18 321 -18 q 127 24 175 -18 q 79 144 79 65 q 131 269 79 219 q 286 353 183 319 q 392 382 339 369 q 493 406 444 394 l 493 450 q 483 545 493 508 q 451 604 472 582 q 398 635 429 626 q 325 643 367 643 q 182 601 246 643 l 160 518 q 126 488 151 488 q 96 514 103 488 q 179 631 118 592 q 328 671 240 671 q 481 624 429 671 q 532 471 532 576 l 532 156 q 550 44 532 74 q 601 15 568 15 q 628 20 615 15 q 661 39 642 25 l 675 19 q 636 -8 658 3 q 590 -18 614 -18 m 415 794 l 400 782 q 315 871 356 828 q 244 946 275 914 q 214 979 224 968 q 204 1001 204 990 q 211 1019 204 1013 q 228 1025 218 1025 q 247 1015 239 1025 q 275 982 256 1006 q 341 895 304 944 q 415 794 378 846 z "},"á":{"ha":701,"x_min":79,"x_max":675,"o":"m 261 18 q 374 51 321 18 q 493 156 428 85 l 493 381 q 390 353 443 368 q 288 321 336 339 q 121 153 121 260 q 158 53 121 89 q 261 18 196 18 m 590 -18 q 522 18 543 -18 q 494 122 500 54 q 376 17 431 51 q 250 -18 321 -18 q 127 24 175 -18 q 79 144 79 65 q 131 269 79 219 q 286 353 183 319 q 392 382 339 369 q 493 406 444 394 l 493 450 q 483 545 493 508 q 451 604 472 582 q 398 635 429 626 q 325 643 367 643 q 182 601 246 643 l 160 518 q 126 488 151 488 q 96 514 103 488 q 179 631 118 592 q 328 671 240 671 q 481 624 429 671 q 532 471 532 576 l 532 156 q 550 44 532 74 q 601 15 568 15 q 628 20 615 15 q 661 39 642 25 l 675 19 q 636 -8 658 3 q 590 -18 614 -18 m 288 794 q 363 895 326 846 q 429 982 400 944 q 456 1015 447 1006 q 475 1025 464 1025 q 492 1019 485 1025 q 499 1001 499 1013 q 489 979 499 990 q 458 946 479 968 q 388 870 428 914 q 303 782 347 826 l 288 794 z "},"â":{"ha":701,"x_min":79,"x_max":675,"o":"m 261 18 q 374 51 321 18 q 493 156 428 85 l 493 381 q 390 353 443 368 q 288 321 336 339 q 121 153 121 260 q 158 53 121 89 q 261 18 196 18 m 590 -18 q 522 18 543 -18 q 494 122 500 54 q 376 17 431 51 q 250 -18 321 -18 q 127 24 175 -18 q 79 144 79 65 q 131 269 79 219 q 286 353 183 319 q 392 382 339 369 q 493 406 444 394 l 493 450 q 483 545 493 508 q 451 604 472 582 q 398 635 429 626 q 325 643 367 643 q 182 601 246 643 l 160 518 q 126 488 151 488 q 96 514 103 488 q 179 631 118 592 q 328 671 240 671 q 481 624 429 671 q 532 471 532 576 l 532 156 q 550 44 532 74 q 601 15 568 15 q 628 20 615 15 q 661 39 642 25 l 675 19 q 636 -8 658 3 q 590 -18 614 -18 m 488 768 l 336 944 l 185 768 l 169 781 l 326 999 l 346 999 l 503 781 l 488 768 z "},"ã":{"ha":701,"x_min":79,"x_max":675,"o":"m 261 18 q 374 51 321 18 q 493 156 428 85 l 493 381 q 390 353 443 368 q 288 321 336 339 q 121 153 121 260 q 158 53 121 89 q 261 18 196 18 m 590 -18 q 522 18 543 -18 q 494 122 500 54 q 376 17 431 51 q 250 -18 321 -18 q 127 24 175 -18 q 79 144 79 65 q 131 269 79 219 q 286 353 183 319 q 392 382 339 369 q 493 406 444 394 l 493 450 q 483 545 493 508 q 451 604 472 582 q 398 635 429 626 q 325 643 367 643 q 182 601 246 643 l 160 518 q 126 488 151 488 q 96 514 103 488 q 179 631 118 592 q 328 671 240 671 q 481 624 429 671 q 532 471 532 576 l 532 156 q 550 44 532 74 q 601 15 568 15 q 628 20 615 15 q 661 39 642 25 l 675 19 q 636 -8 658 3 q 590 -18 614 -18 m 132 833 q 170 926 140 890 q 247 961 200 961 q 307 943 282 961 q 350 901 332 925 q 387 863 369 878 q 432 849 404 849 q 522 950 497 849 l 543 943 q 505 852 535 888 q 428 817 475 817 q 367 835 392 817 q 325 875 342 853 q 288 914 306 899 q 243 929 271 929 q 153 826 178 929 l 132 833 z "},"ä":{"ha":701,"x_min":79,"x_max":675,"o":"m 261 18 q 374 51 321 18 q 493 156 428 85 l 493 381 q 390 353 443 368 q 288 321 336 339 q 121 153 121 260 q 158 53 121 89 q 261 18 196 18 m 590 -18 q 522 18 543 -18 q 494 122 500 54 q 376 17 431 51 q 250 -18 321 -18 q 127 24 175 -18 q 79 144 79 65 q 131 269 79 219 q 286 353 183 319 q 392 382 339 369 q 493 406 444 394 l 493 450 q 483 545 493 508 q 451 604 472 582 q 398 635 429 626 q 325 643 367 643 q 182 601 246 643 l 160 518 q 126 488 151 488 q 96 514 103 488 q 179 631 118 592 q 328 671 240 671 q 481 624 429 671 q 532 471 532 576 l 532 156 q 550 44 532 74 q 601 15 568 15 q 628 20 615 15 q 661 39 642 25 l 675 19 q 636 -8 658 3 q 590 -18 614 -18 m 467 894 q 439 906 451 894 q 426 936 426 917 q 439 966 426 956 q 467 976 451 976 q 494 966 482 976 q 507 936 507 956 q 494 906 507 917 q 467 894 482 894 m 206 894 q 178 906 190 894 q 165 936 165 917 q 178 966 165 956 q 206 976 190 976 q 233 966 221 976 q 246 936 246 956 q 233 906 246 917 q 206 894 221 894 z "},"ā":{"ha":701,"x_min":79,"x_max":675,"o":"m 261 18 q 374 51 321 18 q 493 156 428 85 l 493 381 q 390 353 443 368 q 288 321 336 339 q 121 153 121 260 q 158 53 121 89 q 261 18 196 18 m 590 -18 q 522 18 543 -18 q 494 122 500 54 q 376 17 431 51 q 250 -18 321 -18 q 127 24 175 -18 q 79 144 79 65 q 131 269 79 219 q 286 353 183 319 q 392 382 339 369 q 493 406 444 394 l 493 450 q 483 545 493 508 q 451 604 472 582 q 398 635 429 626 q 325 643 367 643 q 182 601 246 643 l 160 518 q 126 488 151 488 q 96 514 103 488 q 179 631 118 592 q 328 671 240 671 q 481 624 429 671 q 532 471 532 576 l 532 156 q 550 44 532 74 q 601 15 568 15 q 628 20 615 15 q 661 39 642 25 l 675 19 q 636 -8 658 3 q 590 -18 614 -18 m 163 876 l 163 913 l 496 913 l 496 876 l 163 876 z "},"ă":{"ha":701,"x_min":79,"x_max":675,"o":"m 261 18 q 374 51 321 18 q 493 156 428 85 l 493 381 q 390 353 443 368 q 288 321 336 339 q 121 153 121 260 q 158 53 121 89 q 261 18 196 18 m 590 -18 q 522 18 543 -18 q 494 122 500 54 q 376 17 431 51 q 250 -18 321 -18 q 127 24 175 -18 q 79 144 79 65 q 131 269 79 219 q 286 353 183 319 q 392 382 339 369 q 493 406 444 394 l 493 450 q 483 545 493 508 q 451 604 472 582 q 398 635 429 626 q 325 643 367 643 q 182 601 246 643 l 160 518 q 126 488 151 488 q 96 514 103 488 q 179 631 118 592 q 328 671 240 671 q 481 624 429 671 q 532 471 532 576 l 532 156 q 550 44 532 74 q 601 15 568 15 q 628 20 615 15 q 661 39 642 25 l 675 19 q 636 -8 658 3 q 590 -18 614 -18 m 144 1008 l 165 1014 q 227 896 186 942 q 340 850 268 850 q 453 896 413 850 q 515 1014 494 942 l 536 1008 q 472 867 524 921 q 340 813 419 813 q 209 867 261 813 q 144 1008 157 921 z "},"ắ":{"ha":701,"x_min":79,"x_max":675,"o":"m 261 18 q 374 51 321 18 q 493 156 428 85 l 493 381 q 390 353 443 368 q 288 321 336 339 q 121 153 121 260 q 158 53 121 89 q 261 18 196 18 m 590 -18 q 522 18 543 -18 q 494 122 500 54 q 376 17 431 51 q 250 -18 321 -18 q 127 24 175 -18 q 79 144 79 65 q 131 269 79 219 q 286 353 183 319 q 392 382 339 369 q 493 406 444 394 l 493 450 q 483 545 493 508 q 451 604 472 582 q 398 635 429 626 q 325 643 367 643 q 182 601 246 643 l 160 518 q 126 488 151 488 q 96 514 103 488 q 179 631 118 592 q 328 671 240 671 q 481 624 429 671 q 532 471 532 576 l 532 156 q 550 44 532 74 q 601 15 568 15 q 628 20 615 15 q 661 39 642 25 l 675 19 q 636 -8 658 3 q 590 -18 614 -18 m 340 813 q 267 827 299 813 q 212 865 235 842 q 174 917 189 889 q 154 975 160 946 l 175 982 q 234 885 194 921 q 340 850 274 850 q 447 885 407 850 q 506 982 486 921 l 526 975 q 506 917 519 946 q 469 865 492 889 q 414 827 446 842 q 340 813 382 813 m 297 960 l 404 1111 q 419 1129 411 1122 q 438 1136 426 1136 q 454 1130 447 1136 q 461 1113 461 1124 q 453 1092 461 1101 q 439 1076 446 1083 l 313 947 l 297 960 z "},"ặ":{"ha":701,"x_min":79,"x_max":675,"o":"m 261 18 q 374 51 321 18 q 493 156 428 85 l 493 381 q 390 353 443 368 q 288 321 336 339 q 121 153 121 260 q 158 53 121 89 q 261 18 196 18 m 590 -18 q 522 18 543 -18 q 494 122 500 54 q 376 17 431 51 q 250 -18 321 -18 q 127 24 175 -18 q 79 144 79 65 q 131 269 79 219 q 286 353 183 319 q 392 382 339 369 q 493 406 444 394 l 493 450 q 483 545 493 508 q 451 604 472 582 q 398 635 429 626 q 325 643 367 643 q 182 601 246 643 l 160 518 q 126 488 151 488 q 96 514 103 488 q 179 631 118 592 q 328 671 240 671 q 481 624 429 671 q 532 471 532 576 l 532 156 q 550 44 532 74 q 601 15 568 15 q 628 20 615 15 q 661 39 642 25 l 675 19 q 636 -8 658 3 q 590 -18 614 -18 m 144 1008 l 165 1014 q 227 896 186 942 q 340 850 268 850 q 453 896 413 850 q 515 1014 494 942 l 536 1008 q 472 867 524 921 q 340 813 419 813 q 209 867 261 813 q 144 1008 157 921 m 340 -229 q 310 -217 324 -229 q 296 -185 296 -204 q 310 -153 296 -165 q 340 -140 324 -140 q 371 -153 357 -140 q 385 -185 385 -165 q 371 -217 385 -204 q 340 -229 357 -229 z "},"ằ":{"ha":701,"x_min":79,"x_max":675,"o":"m 261 18 q 374 51 321 18 q 493 156 428 85 l 493 381 q 390 353 443 368 q 288 321 336 339 q 121 153 121 260 q 158 53 121 89 q 261 18 196 18 m 590 -18 q 522 18 543 -18 q 494 122 500 54 q 376 17 431 51 q 250 -18 321 -18 q 127 24 175 -18 q 79 144 79 65 q 131 269 79 219 q 286 353 183 319 q 392 382 339 369 q 493 406 444 394 l 493 450 q 483 545 493 508 q 451 604 472 582 q 398 635 429 626 q 325 643 367 643 q 182 601 246 643 l 160 518 q 126 488 151 488 q 96 514 103 488 q 179 631 118 592 q 328 671 240 671 q 481 624 429 671 q 532 471 532 576 l 532 156 q 550 44 532 74 q 601 15 568 15 q 628 20 615 15 q 661 39 642 25 l 675 19 q 636 -8 658 3 q 590 -18 614 -18 m 154 975 l 175 982 q 234 885 194 921 q 340 850 274 850 q 447 885 407 850 q 506 982 486 921 l 526 975 q 506 917 519 946 q 469 865 492 889 q 414 827 446 842 q 340 813 382 813 q 267 827 299 813 q 212 865 235 842 q 174 917 189 889 q 154 975 160 946 m 242 1076 q 227 1092 235 1083 q 219 1113 219 1101 q 226 1130 219 1124 q 243 1136 233 1136 q 262 1129 254 1136 q 276 1111 269 1122 l 383 960 l 368 947 l 242 1076 z "},"ẳ":{"ha":701,"x_min":79,"x_max":675,"o":"m 261 18 q 374 51 321 18 q 493 156 428 85 l 493 381 q 390 353 443 368 q 288 321 336 339 q 121 153 121 260 q 158 53 121 89 q 261 18 196 18 m 590 -18 q 522 18 543 -18 q 494 122 500 54 q 376 17 431 51 q 250 -18 321 -18 q 127 24 175 -18 q 79 144 79 65 q 131 269 79 219 q 286 353 183 319 q 392 382 339 369 q 493 406 444 394 l 493 450 q 483 545 493 508 q 451 604 472 582 q 398 635 429 626 q 325 643 367 643 q 182 601 246 643 l 160 518 q 126 488 151 488 q 96 514 103 488 q 179 631 118 592 q 328 671 240 671 q 481 624 429 671 q 532 471 532 576 l 532 156 q 550 44 532 74 q 601 15 568 15 q 628 20 615 15 q 661 39 642 25 l 675 19 q 636 -8 658 3 q 590 -18 614 -18 m 315 947 l 310 968 q 382 995 360 979 q 404 1038 404 1011 q 399 1063 404 1051 q 382 1082 394 1074 q 347 1097 369 1090 q 288 1110 324 1103 l 293 1144 q 409 1108 376 1133 q 442 1042 442 1082 q 408 980 442 1006 q 315 947 375 954 m 154 975 l 175 982 q 234 885 194 921 q 340 850 274 850 q 447 885 407 850 q 506 982 486 921 l 526 975 q 506 917 519 946 q 469 865 492 889 q 414 827 446 842 q 340 813 382 813 q 267 827 299 813 q 212 865 235 842 q 174 917 189 889 q 154 975 160 946 z "},"ẵ":{"ha":701,"x_min":79,"x_max":675,"o":"m 261 18 q 374 51 321 18 q 493 156 428 85 l 493 381 q 390 353 443 368 q 288 321 336 339 q 121 153 121 260 q 158 53 121 89 q 261 18 196 18 m 590 -18 q 522 18 543 -18 q 494 122 500 54 q 376 17 431 51 q 250 -18 321 -18 q 127 24 175 -18 q 79 144 79 65 q 131 269 79 219 q 286 353 183 319 q 392 382 339 369 q 493 406 444 394 l 493 450 q 483 545 493 508 q 451 604 472 582 q 398 635 429 626 q 325 643 367 643 q 182 601 246 643 l 160 518 q 126 488 151 488 q 96 514 103 488 q 179 631 118 592 q 328 671 240 671 q 481 624 429 671 q 532 471 532 576 l 532 156 q 550 44 532 74 q 601 15 568 15 q 628 20 615 15 q 661 39 642 25 l 675 19 q 636 -8 658 3 q 590 -18 614 -18 m 340 813 q 217 850 268 813 q 146 950 165 888 l 165 961 q 232 881 190 911 q 340 850 274 850 q 449 881 407 850 q 515 961 490 911 l 535 950 q 464 850 515 888 q 340 813 413 813 m 135 1003 q 174 1076 144 1047 q 250 1104 203 1104 q 308 1092 285 1104 q 351 1067 332 1081 q 390 1043 374 1051 q 435 1035 407 1035 q 492 1052 471 1035 q 526 1104 514 1069 l 546 1099 q 507 1026 536 1054 q 431 999 478 999 q 372 1009 394 999 q 329 1035 349 1019 q 290 1059 307 1050 q 246 1068 274 1068 q 188 1051 210 1068 q 154 999 167 1033 l 135 1003 z "},"ǎ":{"ha":701,"x_min":79,"x_max":675,"o":"m 261 18 q 374 51 321 18 q 493 156 428 85 l 493 381 q 390 353 443 368 q 288 321 336 339 q 121 153 121 260 q 158 53 121 89 q 261 18 196 18 m 590 -18 q 522 18 543 -18 q 494 122 500 54 q 376 17 431 51 q 250 -18 321 -18 q 127 24 175 -18 q 79 144 79 65 q 131 269 79 219 q 286 353 183 319 q 392 382 339 369 q 493 406 444 394 l 493 450 q 483 545 493 508 q 451 604 472 582 q 398 635 429 626 q 325 643 367 643 q 182 601 246 643 l 160 518 q 126 488 151 488 q 96 514 103 488 q 179 631 118 592 q 328 671 240 671 q 481 624 429 671 q 532 471 532 576 l 532 156 q 550 44 532 74 q 601 15 568 15 q 628 20 615 15 q 661 39 642 25 l 675 19 q 636 -8 658 3 q 590 -18 614 -18 m 178 994 l 342 843 l 506 994 l 519 981 l 356 792 l 328 792 l 164 981 l 178 994 z "},"ấ":{"ha":701,"x_min":79,"x_max":675,"o":"m 261 18 q 374 51 321 18 q 493 156 428 85 l 493 381 q 390 353 443 368 q 288 321 336 339 q 121 153 121 260 q 158 53 121 89 q 261 18 196 18 m 590 -18 q 522 18 543 -18 q 494 122 500 54 q 376 17 431 51 q 250 -18 321 -18 q 127 24 175 -18 q 79 144 79 65 q 131 269 79 219 q 286 353 183 319 q 392 382 339 369 q 493 406 444 394 l 493 450 q 483 545 493 508 q 451 604 472 582 q 398 635 429 626 q 325 643 367 643 q 182 601 246 643 l 160 518 q 126 488 151 488 q 96 514 103 488 q 179 631 118 592 q 328 671 240 671 q 481 624 429 671 q 532 471 532 576 l 532 156 q 550 44 532 74 q 601 15 568 15 q 628 20 615 15 q 661 39 642 25 l 675 19 q 636 -8 658 3 q 590 -18 614 -18 m 179 757 l 168 771 l 321 926 l 340 926 l 493 771 l 482 757 l 331 874 l 179 757 m 474 857 l 458 869 l 547 1000 q 581 1025 563 1025 q 597 1019 590 1025 q 604 1001 604 1013 q 597 981 604 990 q 582 965 589 972 l 474 857 z "},"ậ":{"ha":701,"x_min":79,"x_max":675,"o":"m 261 18 q 374 51 321 18 q 493 156 428 85 l 493 381 q 390 353 443 368 q 288 321 336 339 q 121 153 121 260 q 158 53 121 89 q 261 18 196 18 m 590 -18 q 522 18 543 -18 q 494 122 500 54 q 376 17 431 51 q 250 -18 321 -18 q 127 24 175 -18 q 79 144 79 65 q 131 269 79 219 q 286 353 183 319 q 392 382 339 369 q 493 406 444 394 l 493 450 q 483 545 493 508 q 451 604 472 582 q 398 635 429 626 q 325 643 367 643 q 182 601 246 643 l 160 518 q 126 488 151 488 q 96 514 103 488 q 179 631 118 592 q 328 671 240 671 q 481 624 429 671 q 532 471 532 576 l 532 156 q 550 44 532 74 q 601 15 568 15 q 628 20 615 15 q 661 39 642 25 l 675 19 q 636 -8 658 3 q 590 -18 614 -18 m 488 768 l 336 944 l 185 768 l 169 781 l 326 999 l 346 999 l 503 781 l 488 768 m 340 -229 q 310 -217 324 -229 q 296 -185 296 -204 q 310 -153 296 -165 q 340 -140 324 -140 q 371 -153 357 -140 q 385 -185 385 -165 q 371 -217 385 -204 q 340 -229 357 -229 z "},"ầ":{"ha":701,"x_min":57,"x_max":675,"o":"m 261 18 q 374 51 321 18 q 493 156 428 85 l 493 381 q 390 353 443 368 q 288 321 336 339 q 121 153 121 260 q 158 53 121 89 q 261 18 196 18 m 590 -18 q 522 18 543 -18 q 494 122 500 54 q 376 17 431 51 q 250 -18 321 -18 q 127 24 175 -18 q 79 144 79 65 q 131 269 79 219 q 286 353 183 319 q 392 382 339 369 q 493 406 444 394 l 493 450 q 483 545 493 508 q 451 604 472 582 q 398 635 429 626 q 325 643 367 643 q 182 601 246 643 l 160 518 q 126 488 151 488 q 96 514 103 488 q 179 631 118 592 q 328 671 240 671 q 481 624 429 671 q 532 471 532 576 l 532 156 q 550 44 532 74 q 601 15 568 15 q 628 20 615 15 q 661 39 642 25 l 675 19 q 636 -8 658 3 q 590 -18 614 -18 m 79 965 q 65 981 72 972 q 57 1001 57 990 q 64 1019 57 1013 q 81 1025 71 1025 q 114 1000 99 1025 l 203 869 l 188 857 l 79 965 m 179 757 l 168 771 l 321 926 l 340 926 l 493 771 l 482 757 l 331 874 l 179 757 z "},"ẩ":{"ha":701,"x_min":79,"x_max":675,"o":"m 261 18 q 374 51 321 18 q 493 156 428 85 l 493 381 q 390 353 443 368 q 288 321 336 339 q 121 153 121 260 q 158 53 121 89 q 261 18 196 18 m 590 -18 q 522 18 543 -18 q 494 122 500 54 q 376 17 431 51 q 250 -18 321 -18 q 127 24 175 -18 q 79 144 79 65 q 131 269 79 219 q 286 353 183 319 q 392 382 339 369 q 493 406 444 394 l 493 450 q 483 545 493 508 q 451 604 472 582 q 398 635 429 626 q 325 643 367 643 q 182 601 246 643 l 160 518 q 126 488 151 488 q 96 514 103 488 q 179 631 118 592 q 328 671 240 671 q 481 624 429 671 q 532 471 532 576 l 532 156 q 550 44 532 74 q 601 15 568 15 q 628 20 615 15 q 661 39 642 25 l 675 19 q 636 -8 658 3 q 590 -18 614 -18 m 179 757 l 168 771 l 321 926 l 340 926 l 493 771 l 482 757 l 331 874 l 179 757 m 460 878 q 527 910 507 889 q 547 964 547 932 q 517 1021 547 1003 q 414 1047 488 1039 l 418 1082 q 585 968 585 1067 q 553 894 585 925 q 465 857 522 864 l 460 878 z "},"ẫ":{"ha":701,"x_min":79,"x_max":675,"o":"m 261 18 q 374 51 321 18 q 493 156 428 85 l 493 381 q 390 353 443 368 q 288 321 336 339 q 121 153 121 260 q 158 53 121 89 q 261 18 196 18 m 590 -18 q 522 18 543 -18 q 494 122 500 54 q 376 17 431 51 q 250 -18 321 -18 q 127 24 175 -18 q 79 144 79 65 q 131 269 79 219 q 286 353 183 319 q 392 382 339 369 q 493 406 444 394 l 493 450 q 483 545 493 508 q 451 604 472 582 q 398 635 429 626 q 325 643 367 643 q 182 601 246 643 l 160 518 q 126 488 151 488 q 96 514 103 488 q 179 631 118 592 q 328 671 240 671 q 481 624 429 671 q 532 471 532 576 l 532 156 q 550 44 532 74 q 601 15 568 15 q 628 20 615 15 q 661 39 642 25 l 675 19 q 636 -8 658 3 q 590 -18 614 -18 m 179 757 l 168 771 l 321 926 l 340 926 l 493 771 l 482 757 l 331 874 l 179 757 m 125 954 q 164 1027 135 999 q 240 1056 193 1056 q 299 1044 275 1056 q 342 1018 322 1032 q 381 994 364 1003 q 425 986 397 986 q 483 1003 461 986 q 517 1056 504 1021 l 536 1050 q 497 978 526 1006 q 421 950 468 950 q 362 960 385 950 q 319 986 339 971 q 281 1010 297 1001 q 236 1019 264 1019 q 178 1002 200 1019 q 144 950 157 985 l 125 954 z "},"ạ":{"ha":701,"x_min":79,"x_max":675,"o":"m 261 18 q 374 51 321 18 q 493 156 428 85 l 493 381 q 390 353 443 368 q 288 321 336 339 q 121 153 121 260 q 158 53 121 89 q 261 18 196 18 m 590 -18 q 522 18 543 -18 q 494 122 500 54 q 376 17 431 51 q 250 -18 321 -18 q 127 24 175 -18 q 79 144 79 65 q 131 269 79 219 q 286 353 183 319 q 392 382 339 369 q 493 406 444 394 l 493 450 q 483 545 493 508 q 451 604 472 582 q 398 635 429 626 q 325 643 367 643 q 182 601 246 643 l 160 518 q 126 488 151 488 q 96 514 103 488 q 179 631 118 592 q 328 671 240 671 q 481 624 429 671 q 532 471 532 576 l 532 156 q 550 44 532 74 q 601 15 568 15 q 628 20 615 15 q 661 39 642 25 l 675 19 q 636 -8 658 3 q 590 -18 614 -18 m 340 -229 q 310 -217 324 -229 q 296 -185 296 -204 q 310 -153 296 -165 q 340 -140 324 -140 q 371 -153 357 -140 q 385 -185 385 -165 q 371 -217 385 -204 q 340 -229 357 -229 z "},"ả":{"ha":701,"x_min":79,"x_max":675,"o":"m 261 18 q 374 51 321 18 q 493 156 428 85 l 493 381 q 390 353 443 368 q 288 321 336 339 q 121 153 121 260 q 158 53 121 89 q 261 18 196 18 m 590 -18 q 522 18 543 -18 q 494 122 500 54 q 376 17 431 51 q 250 -18 321 -18 q 127 24 175 -18 q 79 144 79 65 q 131 269 79 219 q 286 353 183 319 q 392 382 339 369 q 493 406 444 394 l 493 450 q 483 545 493 508 q 451 604 472 582 q 398 635 429 626 q 325 643 367 643 q 182 601 246 643 l 160 518 q 126 488 151 488 q 96 514 103 488 q 179 631 118 592 q 328 671 240 671 q 481 624 429 671 q 532 471 532 576 l 532 156 q 550 44 532 74 q 601 15 568 15 q 628 20 615 15 q 661 39 642 25 l 675 19 q 636 -8 658 3 q 590 -18 614 -18 m 338 774 l 332 794 q 404 827 382 806 q 426 881 426 849 q 422 915 426 900 q 404 942 417 931 q 369 963 392 954 q 310 978 346 971 l 315 1013 q 431 969 399 1001 q 464 885 464 936 q 431 811 464 842 q 338 774 397 781 z "},"å":{"ha":701,"x_min":79,"x_max":675,"o":"m 261 18 q 374 51 321 18 q 493 156 428 85 l 493 381 q 390 353 443 368 q 288 321 336 339 q 121 153 121 260 q 158 53 121 89 q 261 18 196 18 m 590 -18 q 522 18 543 -18 q 494 122 500 54 q 376 17 431 51 q 250 -18 321 -18 q 127 24 175 -18 q 79 144 79 65 q 131 269 79 219 q 286 353 183 319 q 392 382 339 369 q 493 406 444 394 l 493 450 q 483 545 493 508 q 451 604 472 582 q 398 635 429 626 q 325 643 367 643 q 182 601 246 643 l 160 518 q 126 488 151 488 q 96 514 103 488 q 179 631 118 592 q 328 671 240 671 q 481 624 429 671 q 532 471 532 576 l 532 156 q 550 44 532 74 q 601 15 568 15 q 628 20 615 15 q 661 39 642 25 l 675 19 q 636 -8 658 3 q 590 -18 614 -18 m 343 818 q 406 846 382 818 q 431 911 431 874 q 406 976 431 949 q 343 1004 382 1004 q 280 976 304 1004 q 256 911 256 949 q 280 846 256 874 q 343 818 304 818 m 343 790 q 260 823 297 790 q 224 911 224 856 q 260 999 224 967 q 343 1032 297 1032 q 426 999 389 1032 q 463 911 463 967 q 426 823 463 856 q 343 790 389 790 z "},"ą":{"ha":701,"x_min":79,"x_max":699,"o":"m 79 144 q 131 268 79 219 q 286 350 183 317 q 392 379 339 367 q 493 403 444 392 l 493 450 q 483 545 493 508 q 451 604 472 582 q 398 635 429 626 q 325 643 367 643 q 250 633 285 643 q 181 601 215 624 l 164 514 q 151 494 161 500 q 129 488 140 488 q 96 514 103 488 q 179 631 118 592 q 328 671 240 671 q 481 624 429 671 q 532 471 532 576 l 532 161 q 549 48 532 79 q 597 17 565 17 q 628 22 614 17 q 663 39 643 26 l 675 24 q 652 6 664 13 q 628 -8 640 -1 q 539 -79 574 -40 q 504 -161 504 -118 q 529 -240 504 -214 q 594 -265 554 -265 q 640 -258 619 -265 q 685 -231 661 -250 l 699 -243 q 651 -283 681 -268 q 583 -299 622 -299 q 500 -267 535 -299 q 465 -175 465 -236 q 501 -83 465 -122 q 583 -14 536 -44 q 516 22 536 -11 q 493 118 496 56 q 376 15 431 47 q 250 -18 321 -18 q 127 24 175 -18 q 79 144 79 65 m 261 18 q 374 50 321 18 q 493 153 428 82 l 493 378 q 390 351 443 365 q 288 318 336 336 q 162 247 203 286 q 121 153 121 207 q 158 53 121 89 q 261 18 196 18 z "},"æ":{"ha":1099,"x_min":79,"x_max":1035,"o":"m 121 150 q 157 55 121 92 q 268 18 193 18 q 314 24 290 18 q 367 47 338 31 q 432 94 396 64 q 515 174 468 125 q 496 246 503 207 q 489 329 489 285 q 490 356 489 343 q 492 379 490 368 q 389 353 442 368 q 288 321 336 339 q 121 150 121 260 m 796 -18 q 641 22 715 -18 q 525 149 567 63 q 447 67 482 99 q 380 16 411 35 q 319 -10 349 -3 q 257 -18 289 -18 q 128 23 176 -18 q 79 144 79 64 q 131 269 79 219 q 286 353 183 319 q 392 382 339 369 q 493 406 444 394 l 493 450 q 483 545 493 508 q 451 604 472 582 q 398 635 429 626 q 325 643 367 643 q 250 633 285 643 q 181 601 215 624 l 164 514 q 151 494 161 500 q 129 488 140 488 q 96 514 103 488 q 179 631 118 592 q 328 671 240 671 q 473 631 422 671 q 531 499 524 590 q 638 628 572 585 q 785 671 704 671 q 892 650 844 671 q 970 594 939 629 q 1018 513 1001 558 q 1035 415 1035 467 q 1026 336 1035 367 l 533 336 q 556 191 533 251 q 616 92 579 131 q 700 36 653 54 q 796 18 747 18 q 1014 107 929 18 l 1029 92 q 926 10 988 39 q 796 -18 864 -18 m 785 643 q 688 621 732 643 q 610 561 643 599 q 558 473 578 524 q 535 365 539 422 l 965 365 q 987 377 981 365 q 993 419 993 389 q 980 503 993 463 q 940 574 967 543 q 875 624 914 606 q 785 643 836 643 z "},"ç":{"ha":678,"x_min":72,"x_max":614,"o":"m 386 643 q 280 620 329 643 q 194 556 231 597 q 138 456 158 514 q 117 328 117 399 q 136 203 117 260 q 191 105 156 146 q 275 41 226 64 q 381 18 324 18 q 499 41 443 18 q 599 110 554 64 l 614 96 q 515 14 572 46 q 378 -18 458 -18 q 255 7 311 -18 q 158 78 199 32 q 94 187 117 124 q 72 326 72 250 q 99 472 72 408 q 169 581 125 536 q 270 648 213 625 q 389 671 328 671 q 522 635 463 671 q 613 525 581 599 q 582 497 606 497 q 546 524 556 497 l 514 606 q 450 635 481 626 q 386 643 419 643 m 338 -107 l 356 0 l 383 0 l 372 -82 q 469 -116 435 -86 q 503 -190 503 -146 q 469 -267 503 -237 q 374 -297 436 -297 q 330 -293 350 -297 q 288 -282 310 -289 l 293 -261 q 333 -268 314 -265 q 368 -271 351 -271 q 439 -249 417 -271 q 461 -192 461 -228 q 434 -131 461 -154 q 338 -107 407 -107 z "},"ć":{"ha":678,"x_min":72,"x_max":614,"o":"m 386 643 q 280 620 329 643 q 194 556 231 597 q 138 456 158 514 q 117 328 117 399 q 136 203 117 260 q 191 105 156 146 q 275 41 226 64 q 381 18 324 18 q 499 41 443 18 q 599 110 554 64 l 614 96 q 515 14 572 46 q 378 -18 458 -18 q 255 7 311 -18 q 158 78 199 32 q 94 187 117 124 q 72 326 72 250 q 99 472 72 408 q 169 581 125 536 q 270 648 213 625 q 389 671 328 671 q 522 635 463 671 q 613 525 581 599 q 582 497 606 497 q 546 524 556 497 l 514 606 q 450 635 481 626 q 386 643 419 643 m 318 794 q 394 895 357 846 q 460 982 431 944 q 486 1015 478 1006 q 506 1025 494 1025 q 522 1019 515 1025 q 529 1001 529 1013 q 519 979 529 990 q 489 946 510 968 q 418 870 458 914 q 333 782 378 826 l 318 794 z "},"č":{"ha":678,"x_min":72,"x_max":614,"o":"m 386 643 q 280 620 329 643 q 194 556 231 597 q 138 456 158 514 q 117 328 117 399 q 136 203 117 260 q 191 105 156 146 q 275 41 226 64 q 381 18 324 18 q 499 41 443 18 q 599 110 554 64 l 614 96 q 515 14 572 46 q 378 -18 458 -18 q 255 7 311 -18 q 158 78 199 32 q 94 187 117 124 q 72 326 72 250 q 99 472 72 408 q 169 581 125 536 q 270 648 213 625 q 389 671 328 671 q 522 635 463 671 q 613 525 581 599 q 582 497 606 497 q 546 524 556 497 l 514 606 q 450 635 481 626 q 386 643 419 643 m 217 994 l 381 843 l 544 994 l 558 981 l 394 792 l 367 792 l 203 981 l 217 994 z "},"ĉ":{"ha":678,"x_min":72,"x_max":614,"o":"m 386 643 q 280 620 329 643 q 194 556 231 597 q 138 456 158 514 q 117 328 117 399 q 136 203 117 260 q 191 105 156 146 q 275 41 226 64 q 381 18 324 18 q 499 41 443 18 q 599 110 554 64 l 614 96 q 515 14 572 46 q 378 -18 458 -18 q 255 7 311 -18 q 158 78 199 32 q 94 187 117 124 q 72 326 72 250 q 99 472 72 408 q 169 581 125 536 q 270 648 213 625 q 389 671 328 671 q 522 635 463 671 q 613 525 581 599 q 582 497 606 497 q 546 524 556 497 l 514 606 q 450 635 481 626 q 386 643 419 643 m 540 768 l 389 944 l 238 768 l 222 781 l 379 999 l 399 999 l 556 781 l 540 768 z "},"ċ":{"ha":678,"x_min":72,"x_max":614,"o":"m 386 643 q 280 620 329 643 q 194 556 231 597 q 138 456 158 514 q 117 328 117 399 q 136 203 117 260 q 191 105 156 146 q 275 41 226 64 q 381 18 324 18 q 499 41 443 18 q 599 110 554 64 l 614 96 q 515 14 572 46 q 378 -18 458 -18 q 255 7 311 -18 q 158 78 199 32 q 94 187 117 124 q 72 326 72 250 q 99 472 72 408 q 169 581 125 536 q 270 648 213 625 q 389 671 328 671 q 522 635 463 671 q 613 525 581 599 q 582 497 606 497 q 546 524 556 497 l 514 606 q 450 635 481 626 q 386 643 419 643 m 403 868 q 372 881 386 868 q 358 913 358 893 q 372 944 358 932 q 403 957 386 957 q 433 944 419 957 q 447 913 447 932 q 433 881 447 893 q 403 868 419 868 z "},"ď":{"ha":813,"x_min":72,"x_max":772,"o":"m 117 315 q 135 186 117 242 q 184 93 153 131 q 258 36 215 56 q 350 17 301 17 q 468 44 415 17 q 572 136 521 71 l 572 526 q 478 608 526 581 q 367 636 429 636 q 269 617 314 636 q 190 558 224 597 q 136 458 156 518 q 117 315 117 397 m 568 -8 l 571 96 q 465 8 522 33 q 346 -18 407 -18 q 235 7 285 -18 q 149 76 185 32 q 92 182 113 121 q 72 315 72 243 q 94 465 72 399 q 156 576 117 531 q 250 647 196 622 q 367 671 304 671 q 471 644 417 671 q 572 560 525 618 l 572 994 l 446 994 l 446 1022 l 594 1039 l 614 1028 l 611 836 l 611 35 l 758 28 l 758 0 l 568 -8 m 750 1033 q 772 1003 772 1033 q 767 928 772 974 q 754 822 761 882 l 743 722 l 722 722 l 725 1025 q 750 1033 735 1033 z "},"đ":{"ha":799,"x_min":72,"x_max":758,"o":"m 296 813 l 296 846 l 572 846 l 572 994 l 446 994 l 446 1022 l 594 1039 l 614 1028 l 611 846 l 740 846 l 740 813 l 611 813 l 611 35 l 758 28 l 758 0 l 568 -8 l 571 96 q 465 8 522 33 q 346 -18 407 -18 q 235 6 285 -18 q 149 75 185 31 q 92 181 113 119 q 72 315 72 242 q 94 458 72 396 q 156 564 117 521 q 250 630 196 607 q 367 653 304 653 q 471 626 417 653 q 572 542 525 600 l 572 813 l 296 813 m 117 315 q 135 185 117 242 q 184 92 153 129 q 258 35 215 54 q 350 17 301 17 q 468 44 415 17 q 572 136 521 71 l 572 508 q 478 590 526 563 q 367 618 429 618 q 269 600 314 618 q 190 545 224 582 q 136 451 156 508 q 117 315 117 394 z "},"ḍ":{"ha":799,"x_min":72,"x_max":758,"o":"m 117 315 q 135 186 117 242 q 184 93 153 131 q 258 36 215 56 q 350 17 301 17 q 468 44 415 17 q 572 136 521 71 l 572 526 q 478 608 526 581 q 367 636 429 636 q 269 617 314 636 q 190 558 224 597 q 136 458 156 518 q 117 315 117 397 m 568 -8 l 571 96 q 465 8 522 33 q 346 -18 407 -18 q 235 7 285 -18 q 149 76 185 32 q 92 182 113 121 q 72 315 72 243 q 94 465 72 399 q 156 576 117 531 q 250 647 196 622 q 367 671 304 671 q 471 644 417 671 q 572 560 525 618 l 572 994 l 446 994 l 446 1022 l 594 1039 l 614 1028 l 611 836 l 611 35 l 758 28 l 758 0 l 568 -8 m 418 -229 q 388 -217 401 -229 q 374 -185 374 -204 q 388 -153 374 -165 q 418 -140 401 -140 q 449 -153 435 -140 q 463 -185 463 -165 q 449 -217 463 -204 q 418 -229 435 -229 z "},"ḏ":{"ha":799,"x_min":72,"x_max":758,"o":"m 117 315 q 135 186 117 242 q 184 93 153 131 q 258 36 215 56 q 350 17 301 17 q 468 44 415 17 q 572 136 521 71 l 572 526 q 478 608 526 581 q 367 636 429 636 q 269 617 314 636 q 190 558 224 597 q 136 458 156 518 q 117 315 117 397 m 568 -8 l 571 96 q 465 8 522 33 q 346 -18 407 -18 q 235 7 285 -18 q 149 76 185 32 q 92 182 113 121 q 72 315 72 243 q 94 465 72 399 q 156 576 117 531 q 250 647 196 622 q 367 671 304 671 q 471 644 417 671 q 572 560 525 618 l 572 994 l 446 994 l 446 1022 l 594 1039 l 614 1028 l 611 836 l 611 35 l 758 28 l 758 0 l 568 -8 m 236 -185 l 236 -149 l 569 -149 l 569 -185 l 236 -185 z "},"è":{"ha":682,"x_min":72,"x_max":618,"o":"m 549 365 q 570 377 564 365 q 576 419 576 389 q 563 503 576 463 q 524 574 550 543 q 458 624 497 606 q 368 643 419 643 q 271 621 315 643 q 193 560 226 599 q 140 472 160 522 q 118 367 121 422 l 549 365 m 368 671 q 475 650 428 671 q 553 594 522 629 q 601 513 585 558 q 618 415 618 467 q 610 336 618 367 l 117 338 q 141 191 118 251 q 200 92 164 131 q 283 35 236 53 q 379 18 331 18 q 597 107 513 18 l 613 92 q 509 10 571 39 q 379 -18 447 -18 q 267 2 322 -18 q 168 65 211 22 q 99 172 125 107 q 72 329 72 238 q 97 472 72 408 q 162 579 121 535 q 256 647 203 624 q 368 671 310 671 m 419 794 l 404 782 q 319 871 360 828 q 249 946 279 914 q 218 979 228 968 q 208 1001 208 990 q 215 1019 208 1013 q 232 1025 222 1025 q 251 1015 243 1025 q 279 982 260 1006 q 345 895 308 944 q 419 794 382 846 z "},"é":{"ha":682,"x_min":72,"x_max":618,"o":"m 549 365 q 570 377 564 365 q 576 419 576 389 q 563 503 576 463 q 524 574 550 543 q 458 624 497 606 q 368 643 419 643 q 271 621 315 643 q 193 560 226 599 q 140 472 160 522 q 118 367 121 422 l 549 365 m 368 671 q 475 650 428 671 q 553 594 522 629 q 601 513 585 558 q 618 415 618 467 q 610 336 618 367 l 117 338 q 141 191 118 251 q 200 92 164 131 q 283 35 236 53 q 379 18 331 18 q 597 107 513 18 l 613 92 q 509 10 571 39 q 379 -18 447 -18 q 267 2 322 -18 q 168 65 211 22 q 99 172 125 107 q 72 329 72 238 q 97 472 72 408 q 162 579 121 535 q 256 647 203 624 q 368 671 310 671 m 306 794 q 381 895 344 846 q 447 982 418 944 q 474 1015 465 1006 q 493 1025 482 1025 q 510 1019 503 1025 q 517 1001 517 1013 q 507 979 517 990 q 476 946 497 968 q 406 870 446 914 q 321 782 365 826 l 306 794 z "},"ê":{"ha":682,"x_min":72,"x_max":618,"o":"m 549 365 q 570 377 564 365 q 576 419 576 389 q 563 503 576 463 q 524 574 550 543 q 458 624 497 606 q 368 643 419 643 q 271 621 315 643 q 193 560 226 599 q 140 472 160 522 q 118 367 121 422 l 549 365 m 368 671 q 475 650 428 671 q 553 594 522 629 q 601 513 585 558 q 618 415 618 467 q 610 336 618 367 l 117 338 q 141 191 118 251 q 200 92 164 131 q 283 35 236 53 q 379 18 331 18 q 597 107 513 18 l 613 92 q 509 10 571 39 q 379 -18 447 -18 q 267 2 322 -18 q 168 65 211 22 q 99 172 125 107 q 72 329 72 238 q 97 472 72 408 q 162 579 121 535 q 256 647 203 624 q 368 671 310 671 m 525 768 l 374 944 l 222 768 l 207 781 l 364 999 l 383 999 l 540 781 l 525 768 z "},"ě":{"ha":682,"x_min":72,"x_max":618,"o":"m 549 365 q 570 377 564 365 q 576 419 576 389 q 563 503 576 463 q 524 574 550 543 q 458 624 497 606 q 368 643 419 643 q 271 621 315 643 q 193 560 226 599 q 140 472 160 522 q 118 367 121 422 l 549 365 m 368 671 q 475 650 428 671 q 553 594 522 629 q 601 513 585 558 q 618 415 618 467 q 610 336 618 367 l 117 338 q 141 191 118 251 q 200 92 164 131 q 283 35 236 53 q 379 18 331 18 q 597 107 513 18 l 613 92 q 509 10 571 39 q 379 -18 447 -18 q 267 2 322 -18 q 168 65 211 22 q 99 172 125 107 q 72 329 72 238 q 97 472 72 408 q 162 579 121 535 q 256 647 203 624 q 368 671 310 671 m 204 994 l 368 843 l 532 994 l 546 981 l 382 792 l 354 792 l 190 981 l 204 994 z "},"ë":{"ha":682,"x_min":72,"x_max":618,"o":"m 549 365 q 570 377 564 365 q 576 419 576 389 q 563 503 576 463 q 524 574 550 543 q 458 624 497 606 q 368 643 419 643 q 271 621 315 643 q 193 560 226 599 q 140 472 160 522 q 118 367 121 422 l 549 365 m 368 671 q 475 650 428 671 q 553 594 522 629 q 601 513 585 558 q 618 415 618 467 q 610 336 618 367 l 117 338 q 141 191 118 251 q 200 92 164 131 q 283 35 236 53 q 379 18 331 18 q 597 107 513 18 l 613 92 q 509 10 571 39 q 379 -18 447 -18 q 267 2 322 -18 q 168 65 211 22 q 99 172 125 107 q 72 329 72 238 q 97 472 72 408 q 162 579 121 535 q 256 647 203 624 q 368 671 310 671 m 499 894 q 471 906 483 894 q 458 936 458 917 q 471 966 458 956 q 499 976 483 976 q 526 966 514 976 q 539 936 539 956 q 526 906 539 917 q 499 894 514 894 m 238 894 q 210 906 222 894 q 197 936 197 917 q 210 966 197 956 q 238 976 222 976 q 265 966 253 976 q 278 936 278 956 q 265 906 278 917 q 238 894 253 894 z "},"ē":{"ha":682,"x_min":72,"x_max":618,"o":"m 549 365 q 570 377 564 365 q 576 419 576 389 q 563 503 576 463 q 524 574 550 543 q 458 624 497 606 q 368 643 419 643 q 271 621 315 643 q 193 560 226 599 q 140 472 160 522 q 118 367 121 422 l 549 365 m 368 671 q 475 650 428 671 q 553 594 522 629 q 601 513 585 558 q 618 415 618 467 q 610 336 618 367 l 117 338 q 141 191 118 251 q 200 92 164 131 q 283 35 236 53 q 379 18 331 18 q 597 107 513 18 l 613 92 q 509 10 571 39 q 379 -18 447 -18 q 267 2 322 -18 q 168 65 211 22 q 99 172 125 107 q 72 329 72 238 q 97 472 72 408 q 162 579 121 535 q 256 647 203 624 q 368 671 310 671 m 201 876 l 201 913 l 535 913 l 535 876 l 201 876 z "},"ė":{"ha":682,"x_min":72,"x_max":618,"o":"m 549 365 q 570 377 564 365 q 576 419 576 389 q 563 503 576 463 q 524 574 550 543 q 458 624 497 606 q 368 643 419 643 q 271 621 315 643 q 193 560 226 599 q 140 472 160 522 q 118 367 121 422 l 549 365 m 368 671 q 475 650 428 671 q 553 594 522 629 q 601 513 585 558 q 618 415 618 467 q 610 336 618 367 l 117 338 q 141 191 118 251 q 200 92 164 131 q 283 35 236 53 q 379 18 331 18 q 597 107 513 18 l 613 92 q 509 10 571 39 q 379 -18 447 -18 q 267 2 322 -18 q 168 65 211 22 q 99 172 125 107 q 72 329 72 238 q 97 472 72 408 q 162 579 121 535 q 256 647 203 624 q 368 671 310 671 m 374 868 q 343 881 357 868 q 329 913 329 893 q 343 944 329 932 q 374 957 357 957 q 404 944 390 957 q 418 913 418 932 q 404 881 418 893 q 374 868 390 868 z "},"ę":{"ha":682,"x_min":72,"x_max":618,"o":"m 367 -175 q 398 -81 367 -124 q 464 -6 429 -37 q 379 -18 424 -18 q 267 2 322 -18 q 168 65 211 22 q 99 172 125 107 q 72 329 72 238 q 97 472 72 408 q 162 579 121 535 q 256 647 203 624 q 368 671 310 671 q 475 650 428 671 q 553 594 522 629 q 601 514 585 560 q 618 417 618 468 q 610 338 618 368 l 117 338 q 140 194 117 254 q 199 94 163 133 q 283 37 236 56 q 379 18 329 18 q 597 107 513 18 l 613 92 q 566 46 592 65 q 513 7 540 26 q 437 -71 468 -24 q 406 -161 406 -118 q 431 -240 406 -214 q 496 -265 456 -265 q 542 -258 521 -265 q 586 -231 563 -250 l 600 -243 q 553 -283 582 -268 q 485 -299 524 -299 q 401 -267 436 -299 q 367 -175 367 -236 m 368 643 q 271 622 315 643 q 194 563 226 600 q 142 474 161 525 q 118 367 122 424 l 549 367 q 570 378 564 367 q 576 421 576 390 q 563 504 576 464 q 524 575 550 544 q 458 624 497 606 q 368 643 419 643 z "},"ĕ":{"ha":682,"x_min":72,"x_max":618,"o":"m 549 365 q 570 377 564 365 q 576 419 576 389 q 563 503 576 463 q 524 574 550 543 q 458 624 497 606 q 368 643 419 643 q 271 621 315 643 q 193 560 226 599 q 140 472 160 522 q 118 367 121 422 l 549 365 m 368 671 q 475 650 428 671 q 553 594 522 629 q 601 513 585 558 q 618 415 618 467 q 610 336 618 367 l 117 338 q 141 191 118 251 q 200 92 164 131 q 283 35 236 53 q 379 18 331 18 q 597 107 513 18 l 613 92 q 509 10 571 39 q 379 -18 447 -18 q 267 2 322 -18 q 168 65 211 22 q 99 172 125 107 q 72 329 72 238 q 97 472 72 408 q 162 579 121 535 q 256 647 203 624 q 368 671 310 671 m 178 1008 l 199 1014 q 260 896 219 942 q 374 850 301 850 q 487 896 446 850 q 549 1014 528 942 l 569 1008 q 505 867 557 921 q 374 813 453 813 q 242 867 294 813 q 178 1008 190 921 z "},"ế":{"ha":682,"x_min":72,"x_max":643,"o":"m 549 365 q 570 377 564 365 q 576 419 576 389 q 563 503 576 463 q 524 574 550 543 q 458 624 497 606 q 368 643 419 643 q 271 621 315 643 q 193 560 226 599 q 140 472 160 522 q 118 367 121 422 l 549 365 m 368 671 q 475 650 428 671 q 553 594 522 629 q 601 513 585 558 q 618 415 618 467 q 610 336 618 367 l 117 338 q 141 191 118 251 q 200 92 164 131 q 283 35 236 53 q 379 18 331 18 q 597 107 513 18 l 613 92 q 509 10 571 39 q 379 -18 447 -18 q 267 2 322 -18 q 168 65 211 22 q 99 172 125 107 q 72 329 72 238 q 97 472 72 408 q 162 579 121 535 q 256 647 203 624 q 368 671 310 671 m 218 757 l 207 771 l 360 926 l 379 926 l 532 771 l 521 757 l 369 874 l 218 757 m 513 857 l 497 869 l 586 1000 q 619 1025 601 1025 q 636 1019 629 1025 q 643 1001 643 1013 q 635 981 643 990 q 621 965 628 972 l 513 857 z "},"ệ":{"ha":682,"x_min":72,"x_max":618,"o":"m 549 365 q 570 377 564 365 q 576 419 576 389 q 563 503 576 463 q 524 574 550 543 q 458 624 497 606 q 368 643 419 643 q 271 621 315 643 q 193 560 226 599 q 140 472 160 522 q 118 367 121 422 l 549 365 m 368 671 q 475 650 428 671 q 553 594 522 629 q 601 513 585 558 q 618 415 618 467 q 610 336 618 367 l 117 338 q 141 191 118 251 q 200 92 164 131 q 283 35 236 53 q 379 18 331 18 q 597 107 513 18 l 613 92 q 509 10 571 39 q 379 -18 447 -18 q 267 2 322 -18 q 168 65 211 22 q 99 172 125 107 q 72 329 72 238 q 97 472 72 408 q 162 579 121 535 q 256 647 203 624 q 368 671 310 671 m 525 768 l 374 944 l 222 768 l 207 781 l 364 999 l 383 999 l 540 781 l 525 768 m 364 -229 q 333 -217 347 -229 q 319 -185 319 -204 q 333 -153 319 -165 q 364 -140 347 -140 q 394 -153 381 -140 q 408 -185 408 -165 q 394 -217 408 -204 q 364 -229 381 -229 z "},"ề":{"ha":682,"x_min":72,"x_max":618,"o":"m 549 365 q 570 377 564 365 q 576 419 576 389 q 563 503 576 463 q 524 574 550 543 q 458 624 497 606 q 368 643 419 643 q 271 621 315 643 q 193 560 226 599 q 140 472 160 522 q 118 367 121 422 l 549 365 m 368 671 q 475 650 428 671 q 553 594 522 629 q 601 513 585 558 q 618 415 618 467 q 610 336 618 367 l 117 338 q 141 191 118 251 q 200 92 164 131 q 283 35 236 53 q 379 18 331 18 q 597 107 513 18 l 613 92 q 509 10 571 39 q 379 -18 447 -18 q 267 2 322 -18 q 168 65 211 22 q 99 172 125 107 q 72 329 72 238 q 97 472 72 408 q 162 579 121 535 q 256 647 203 624 q 368 671 310 671 m 118 965 q 103 981 111 972 q 96 1001 96 990 q 103 1019 96 1013 q 119 1025 110 1025 q 153 1000 138 1025 l 242 869 l 226 857 l 118 965 m 218 757 l 207 771 l 360 926 l 379 926 l 532 771 l 521 757 l 369 874 l 218 757 z "},"ể":{"ha":682,"x_min":72,"x_max":624,"o":"m 549 365 q 570 377 564 365 q 576 419 576 389 q 563 503 576 463 q 524 574 550 543 q 458 624 497 606 q 368 643 419 643 q 271 621 315 643 q 193 560 226 599 q 140 472 160 522 q 118 367 121 422 l 549 365 m 368 671 q 475 650 428 671 q 553 594 522 629 q 601 513 585 558 q 618 415 618 467 q 610 336 618 367 l 117 338 q 141 191 118 251 q 200 92 164 131 q 283 35 236 53 q 379 18 331 18 q 597 107 513 18 l 613 92 q 509 10 571 39 q 379 -18 447 -18 q 267 2 322 -18 q 168 65 211 22 q 99 172 125 107 q 72 329 72 238 q 97 472 72 408 q 162 579 121 535 q 256 647 203 624 q 368 671 310 671 m 218 757 l 207 771 l 360 926 l 379 926 l 532 771 l 521 757 l 369 874 l 218 757 m 499 878 q 566 910 546 889 q 586 964 586 932 q 556 1021 586 1003 q 453 1047 526 1039 l 457 1082 q 624 968 624 1067 q 592 894 624 925 q 504 857 561 864 l 499 878 z "},"ễ":{"ha":682,"x_min":72,"x_max":618,"o":"m 549 365 q 570 377 564 365 q 576 419 576 389 q 563 503 576 463 q 524 574 550 543 q 458 624 497 606 q 368 643 419 643 q 271 621 315 643 q 193 560 226 599 q 140 472 160 522 q 118 367 121 422 l 549 365 m 368 671 q 475 650 428 671 q 553 594 522 629 q 601 513 585 558 q 618 415 618 467 q 610 336 618 367 l 117 338 q 141 191 118 251 q 200 92 164 131 q 283 35 236 53 q 379 18 331 18 q 597 107 513 18 l 613 92 q 509 10 571 39 q 379 -18 447 -18 q 267 2 322 -18 q 168 65 211 22 q 99 172 125 107 q 72 329 72 238 q 97 472 72 408 q 162 579 121 535 q 256 647 203 624 q 368 671 310 671 m 218 757 l 207 771 l 360 926 l 379 926 l 532 771 l 521 757 l 369 874 l 218 757 m 164 954 q 203 1027 174 999 q 279 1056 232 1056 q 338 1044 314 1056 q 381 1018 361 1032 q 419 994 403 1003 q 464 986 436 986 q 522 1003 500 986 q 556 1056 543 1021 l 575 1050 q 536 978 565 1006 q 460 950 507 950 q 401 960 424 950 q 358 986 378 971 q 319 1010 336 1001 q 275 1019 303 1019 q 217 1002 239 1019 q 183 950 196 985 l 164 954 z "},"ẹ":{"ha":682,"x_min":72,"x_max":618,"o":"m 549 365 q 570 377 564 365 q 576 419 576 389 q 563 503 576 463 q 524 574 550 543 q 458 624 497 606 q 368 643 419 643 q 271 621 315 643 q 193 560 226 599 q 140 472 160 522 q 118 367 121 422 l 549 365 m 368 671 q 475 650 428 671 q 553 594 522 629 q 601 513 585 558 q 618 415 618 467 q 610 336 618 367 l 117 338 q 141 191 118 251 q 200 92 164 131 q 283 35 236 53 q 379 18 331 18 q 597 107 513 18 l 613 92 q 509 10 571 39 q 379 -18 447 -18 q 267 2 322 -18 q 168 65 211 22 q 99 172 125 107 q 72 329 72 238 q 97 472 72 408 q 162 579 121 535 q 256 647 203 624 q 368 671 310 671 m 365 -229 q 335 -217 349 -229 q 321 -185 321 -204 q 335 -153 321 -165 q 365 -140 349 -140 q 396 -153 382 -140 q 410 -185 410 -165 q 396 -217 410 -204 q 365 -229 382 -229 z "},"ẻ":{"ha":682,"x_min":72,"x_max":618,"o":"m 549 365 q 570 377 564 365 q 576 419 576 389 q 563 503 576 463 q 524 574 550 543 q 458 624 497 606 q 368 643 419 643 q 271 621 315 643 q 193 560 226 599 q 140 472 160 522 q 118 367 121 422 l 549 365 m 368 671 q 475 650 428 671 q 553 594 522 629 q 601 513 585 558 q 618 415 618 467 q 610 336 618 367 l 117 338 q 141 191 118 251 q 200 92 164 131 q 283 35 236 53 q 379 18 331 18 q 597 107 513 18 l 613 92 q 509 10 571 39 q 379 -18 447 -18 q 267 2 322 -18 q 168 65 211 22 q 99 172 125 107 q 72 329 72 238 q 97 472 72 408 q 162 579 121 535 q 256 647 203 624 q 368 671 310 671 m 344 774 l 339 794 q 411 827 389 806 q 433 881 433 849 q 428 915 433 900 q 411 942 424 931 q 376 963 399 954 q 317 978 353 971 l 322 1013 q 438 969 406 1001 q 471 885 471 936 q 438 811 471 842 q 344 774 404 781 z "},"ẽ":{"ha":682,"x_min":72,"x_max":618,"o":"m 549 365 q 570 377 564 365 q 576 419 576 389 q 563 503 576 463 q 524 574 550 543 q 458 624 497 606 q 368 643 419 643 q 271 621 315 643 q 193 560 226 599 q 140 472 160 522 q 118 367 121 422 l 549 365 m 368 671 q 475 650 428 671 q 553 594 522 629 q 601 513 585 558 q 618 415 618 467 q 610 336 618 367 l 117 338 q 141 191 118 251 q 200 92 164 131 q 283 35 236 53 q 379 18 331 18 q 597 107 513 18 l 613 92 q 509 10 571 39 q 379 -18 447 -18 q 267 2 322 -18 q 168 65 211 22 q 99 172 125 107 q 72 329 72 238 q 97 472 72 408 q 162 579 121 535 q 256 647 203 624 q 368 671 310 671 m 165 833 q 203 926 174 890 q 281 961 233 961 q 340 943 315 961 q 383 901 365 925 q 420 863 403 878 q 465 849 438 849 q 556 950 531 849 l 576 943 q 538 852 568 888 q 461 817 508 817 q 400 835 425 817 q 358 875 375 853 q 322 914 339 899 q 276 929 304 929 q 186 826 211 929 l 165 833 z "},"ğ":{"ha":708,"x_min":69,"x_max":660,"o":"m 354 -307 q 551 -254 485 -307 q 617 -125 617 -201 q 610 -80 617 -101 q 586 -42 603 -58 q 541 -17 569 -26 q 469 -8 513 -8 l 297 -8 q 252 -6 275 -8 q 206 -1 229 -4 q 135 -62 160 -31 q 111 -146 111 -94 q 174 -265 111 -222 q 354 -307 236 -307 m 101 442 q 118 535 101 493 q 165 607 135 576 q 237 654 194 638 q 331 671 279 671 q 476 624 418 671 l 639 661 l 660 647 l 660 604 l 499 604 q 544 533 528 574 q 560 442 560 492 q 542 347 560 389 q 495 274 525 304 q 423 228 465 244 q 331 211 381 211 q 225 233 274 211 q 169 167 189 196 q 150 106 150 139 q 180 53 150 74 q 281 33 210 33 l 479 33 q 612 -6 565 33 q 658 -124 658 -44 q 640 -204 658 -165 q 583 -273 621 -243 q 487 -322 544 -303 q 351 -340 429 -340 q 144 -289 219 -340 q 69 -154 69 -237 q 103 -58 69 -99 q 183 8 136 -18 q 132 42 151 19 q 113 96 113 64 q 138 174 113 140 q 204 244 164 208 q 128 324 156 274 q 101 442 101 375 m 331 643 q 195 588 247 643 q 143 442 143 532 q 195 295 143 351 q 331 239 247 239 q 466 295 414 239 q 518 442 518 351 q 466 588 518 532 q 331 643 414 643 m 138 1008 l 158 1014 q 220 896 179 942 q 333 850 261 850 q 447 896 406 850 q 508 1014 488 942 l 529 1008 q 465 867 517 921 q 333 813 413 813 q 202 867 254 813 q 138 1008 150 921 z "},"ġ":{"ha":708,"x_min":69,"x_max":660,"o":"m 354 -307 q 551 -254 485 -307 q 617 -125 617 -201 q 610 -80 617 -101 q 586 -42 603 -58 q 541 -17 569 -26 q 469 -8 513 -8 l 297 -8 q 252 -6 275 -8 q 206 -1 229 -4 q 135 -62 160 -31 q 111 -146 111 -94 q 174 -265 111 -222 q 354 -307 236 -307 m 101 442 q 118 535 101 493 q 165 607 135 576 q 237 654 194 638 q 331 671 279 671 q 476 624 418 671 l 639 661 l 660 647 l 660 604 l 499 604 q 544 533 528 574 q 560 442 560 492 q 542 347 560 389 q 495 274 525 304 q 423 228 465 244 q 331 211 381 211 q 225 233 274 211 q 169 167 189 196 q 150 106 150 139 q 180 53 150 74 q 281 33 210 33 l 479 33 q 612 -6 565 33 q 658 -124 658 -44 q 640 -204 658 -165 q 583 -273 621 -243 q 487 -322 544 -303 q 351 -340 429 -340 q 144 -289 219 -340 q 69 -154 69 -237 q 103 -58 69 -99 q 183 8 136 -18 q 132 42 151 19 q 113 96 113 64 q 138 174 113 140 q 204 244 164 208 q 128 324 156 274 q 101 442 101 375 m 331 643 q 195 588 247 643 q 143 442 143 532 q 195 295 143 351 q 331 239 247 239 q 466 295 414 239 q 518 442 518 351 q 466 588 518 532 q 331 643 414 643 m 340 868 q 310 881 324 868 q 296 913 296 893 q 310 944 296 932 q 340 957 324 957 q 371 944 357 957 q 385 913 385 932 q 371 881 385 893 q 340 868 357 868 z "},"ģ":{"ha":708,"x_min":69,"x_max":660,"o":"m 354 -307 q 551 -254 485 -307 q 617 -125 617 -201 q 610 -80 617 -101 q 586 -42 603 -58 q 541 -17 569 -26 q 469 -8 513 -8 l 297 -8 q 252 -6 275 -8 q 206 -1 229 -4 q 135 -62 160 -31 q 111 -146 111 -94 q 174 -265 111 -222 q 354 -307 236 -307 m 101 442 q 118 535 101 493 q 165 607 135 576 q 237 654 194 638 q 331 671 279 671 q 476 624 418 671 l 639 661 l 660 647 l 660 604 l 499 604 q 544 533 528 574 q 560 442 560 492 q 542 347 560 389 q 495 274 525 304 q 423 228 465 244 q 331 211 381 211 q 225 233 274 211 q 169 167 189 196 q 150 106 150 139 q 180 53 150 74 q 281 33 210 33 l 479 33 q 612 -6 565 33 q 658 -124 658 -44 q 640 -204 658 -165 q 583 -273 621 -243 q 487 -322 544 -303 q 351 -340 429 -340 q 144 -289 219 -340 q 69 -154 69 -237 q 103 -58 69 -99 q 183 8 136 -18 q 132 42 151 19 q 113 96 113 64 q 138 174 113 140 q 204 244 164 208 q 128 324 156 274 q 101 442 101 375 m 331 643 q 195 588 247 643 q 143 442 143 532 q 195 295 143 351 q 331 239 247 239 q 466 295 414 239 q 518 442 518 351 q 466 588 518 532 q 331 643 414 643 m 301 860 q 313 920 301 892 q 346 972 325 949 q 394 1011 367 994 q 450 1036 421 1028 l 458 1014 q 382 967 411 996 q 340 903 353 939 q 378 879 364 894 q 393 849 393 864 q 381 818 393 828 q 350 808 368 808 q 328 812 339 808 q 308 824 317 815 q 301 860 301 838 z "},"ǧ":{"ha":708,"x_min":69,"x_max":660,"o":"m 354 -307 q 551 -254 485 -307 q 617 -125 617 -201 q 610 -80 617 -101 q 586 -42 603 -58 q 541 -17 569 -26 q 469 -8 513 -8 l 297 -8 q 252 -6 275 -8 q 206 -1 229 -4 q 135 -62 160 -31 q 111 -146 111 -94 q 174 -265 111 -222 q 354 -307 236 -307 m 101 442 q 118 535 101 493 q 165 607 135 576 q 237 654 194 638 q 331 671 279 671 q 476 624 418 671 l 639 661 l 660 647 l 660 604 l 499 604 q 544 533 528 574 q 560 442 560 492 q 542 347 560 389 q 495 274 525 304 q 423 228 465 244 q 331 211 381 211 q 225 233 274 211 q 169 167 189 196 q 150 106 150 139 q 180 53 150 74 q 281 33 210 33 l 479 33 q 612 -6 565 33 q 658 -124 658 -44 q 640 -204 658 -165 q 583 -273 621 -243 q 487 -322 544 -303 q 351 -340 429 -340 q 144 -289 219 -340 q 69 -154 69 -237 q 103 -58 69 -99 q 183 8 136 -18 q 132 42 151 19 q 113 96 113 64 q 138 174 113 140 q 204 244 164 208 q 128 324 156 274 q 101 442 101 375 m 331 643 q 195 588 247 643 q 143 442 143 532 q 195 295 143 351 q 331 239 247 239 q 466 295 414 239 q 518 442 518 351 q 466 588 518 532 q 331 643 414 643 m 171 994 l 335 843 l 499 994 l 513 981 l 349 792 l 321 792 l 157 981 l 171 994 z "}}}
